{
.appVersion = "1330";
DisplayStrings = (
"/idotless inhmoU\012sa/commaaccentcomb/scommaaccent/space n=10\012litmltimatesrfe\012oeonnuGaC/_part.ghook OCEANICEXTRABOLD\012C/Ghook/W.ss06 uaXRWV//AtK\012CGR\012mess\012ltlf/space Svadilf\012STREETON",
YMMV,
"HCC-CCHO-O\012(5)/space (H)/space (8)(3)",
"/C.001 10/fraction %",
"creaturesaæ/oe a/C.002 \012reaudmondo\012GIGOLOO",
"(e)(o)",
"B/Softsign-cy P",
"eAÆBCDEFGHI/G.001 JKLMN/Eng O/OE PÞQRS/Germandbls/Schwa TUVW/G.002 XYZa/Q.001 u/Q.002 dtGRPHGOCq/oe æeb/Q.003/Q.archive cd/W.001 ðe/schwa fg/a.ss01/a.ss02 hi/a.ss08/idotless/b.ss01 j/jdotless k/kgreenlandic l/d.ss01 mn/eng o/g.ss01/oe p/g.ss03 þ/i.ss05 q/idotless.ss05 rsßt/o.ss01 u/p.ss01 vw/thorn.ss01 xyz",
Apnae,
"h/dotaccentcomb ibnp/q.ss01 g/a.ss01",
b,
n,
"/d.ss01",
"/pi 2",
"Hn/_part.ghook",
"/_part.bowl.ss01/_part.bowl-reverse.ss01 o/a.ss01/_part.bowl/_part.bowl-reverse/a.ss02 dg/_part.bowl-reverse.ss01/g.ss01 q/q.ss01 \012/_part.bowl peon/a.ss02 a/a.roman eped/_part.bowl b\012o/_part.bowl-reverse qn",
"hb/_part.bowl.ss01/b.ss01 \012/quotedblleft/quotedblright .,/quoteright t/quoteleft [o]{o}(/parenleft.case/parenright.case/braceleft.case/braceright.case/bracketleft.case/bracketright.case o)(H)",
"69/brevecomb/breveinvertedcomb t\012EW\012tH/caroncomb/zcaron/Dzcaron \012/Hbar/Hbrevebelow/Hcircumflex/Hdotbelow \012H//H/macroncomb _//¯/backslash _O_//\012/guilsinglright/guilsinglleft/guilsinglright *»/guilsinglright «/guillemetleft.case",
"/_part.bowl o/_part.bowl-reverse u/a.ss02 adqg/_part.bowl bp/b.ss01",
"/_part.bowl.ss01/b.ss01 o/_part.bowl-reverse.ss01/d.ss01/p.ss01/thorn.ss01 h/b.ss01 egyt/_part.bowl-reverse/a.ss02 a\012raHnc/_part.bowl b",
"qwerftyuiopasdfghjk\012H#679ouan\012lzxcvbnm",

glyphs = (
{
glyphname = A;
lastChange = "2020-06-09 12:11:34 +0000";
layers = (
{
anchors = (
{
name = bottom;
position = "{278, 0}";
},
{
name = ogonek;
position = "{510, 0}";
},
{
name = top;
position = "{442, 720}";
}
);
guideLines = (
{
angle = 67.5;
position = "{-280, -200}";
}
);
layerId = "AB099EFE-E788-4EFC-8633-CF147CB782A6";
paths = (
{
closed = 1;
nodes = (
"-26 0 LINE",
"10 0 LINE",
"160 242 LINE",
"168 254 LINE",
"430 676 LINE",
"434 676 LINE",
"504 252 LINE",
"508 240 LINE",
"546 0 LINE",
"578 0 LINE",
"452 720 LINE",
"424 720 LINE"
);
},
{
closed = 1;
nodes = (
"140 232 LINE",
"518 232 LINE",
"526 262 LINE",
"148 262 LINE"
);
}
);
width = 668;
},
{
anchors = (
{
name = bottom;
position = "{314, 0}";
},
{
name = ogonek;
position = "{610, 0}";
},
{
name = top;
position = "{478, 720}";
}
);
guideLines = (
{
angle = 67.5;
position = "{-304, -200}";
}
);
layerId = "2D8F7115-C311-411E-929D-56333CF7FFB2";
paths = (
{
closed = 1;
nodes = (
"-56 0 LINE",
"148 0 LINE",
"252 176 LINE",
"282 246 LINE",
"436 514 LINE",
"440 514 LINE",
"478 246 LINE",
"476 176 LINE",
"500 0 LINE",
"680 0 LINE",
"552 720 LINE",
"400 720 LINE"
);
},
{
closed = 1;
nodes = (
"150 132 LINE",
"538 132 LINE",
"572 278 LINE",
"184 278 LINE"
);
}
);
width = 744;
},
{
anchors = (
{
name = bottom;
position = "{294, 0}";
},
{
name = ogonek;
position = "{558, 0}";
},
{
name = top;
position = "{458, 720}";
}
);
associatedMasterId = "AB099EFE-E788-4EFC-8633-CF147CB782A6";
guideLines = (
{
angle = 67.5;
position = "{-300, -200}";
}
);
layerId = "118C2287-473A-4C1A-8D33-C3B93A8616D0";
name = "Half {450}";
paths = (
{
closed = 1;
nodes = (
"-48 0 LINE",
"66 0 LINE",
"196 206 LINE",
"220 244 LINE",
"426 574 LINE",
"430 574 LINE",
"488 244 LINE",
"492 206 LINE",
"530 0 LINE",
"632 0 LINE",
"498 720 LINE",
"414 720 LINE"
);
},
{
closed = 1;
nodes = (
"136 180 LINE",
"530 180 LINE",
"550 272 LINE",
"156 272 LINE"
);
}
);
width = 704;
}
);
leftKerningGroup = LAT_A_UC;
rightKerningGroup = LAT_A_UC;
unicode = 0041;
},
{
glyphname = AE;
lastChange = "2020-06-08 07:50:20 +0000";
layers = (
{
anchors = (
{
name = bottom;
position = "{476, 0}";
},
{
name = top;
position = "{658, 720}";
}
);
background = {
components = (
{
name = E;
transform = "{1, 0, 0, 1, 362, 0}";
}
);
};
layerId = "AB099EFE-E788-4EFC-8633-CF147CB782A6";
paths = (
{
closed = 1;
nodes = (
"-50 0 LINE",
"-12 0 LINE",
"324 428 LINE",
"512 666 LINE",
"534 666 LINE",
"542 720 LINE",
"516 720 LINE"
);
},
{
closed = 1;
nodes = (
"158 232 LINE",
"464 232 LINE",
"468 262 LINE",
"166 262 LINE"
);
},
{
closed = 1;
nodes = (
"544 690 LINE",
"922 690 LINE",
"930 720 LINE",
"522 720 LINE",
"500 582 LINE",
"420 0 LINE",
"766 0 LINE",
"772 30 LINE",
"454 30 LINE"
);
},
{
closed = 1;
nodes = (
"798 354 LINE",
"806 384 LINE",
"496 384 LINE",
"492 354 LINE"
);
}
);
width = 892;
},
{
anchors = (
{
name = bottom;
position = "{500, 0}";
},
{
name = top;
position = "{664, 720}";
}
);
background = {
components = (
{
name = E;
transform = "{1, 0, 0, 1, 370, 0}";
}
);
};
layerId = "2D8F7115-C311-411E-929D-56333CF7FFB2";
paths = (
{
closed = 1;
nodes = (
"-58 0 LINE",
"138 0 LINE",
"346 314 LINE",
"500 564 LINE",
"510 564 LINE",
"538 720 LINE",
"418 720 LINE"
);
},
{
closed = 1;
nodes = (
"182 138 LINE",
"566 138 LINE",
"586 274 LINE",
"212 274 LINE"
);
},
{
closed = 1;
nodes = (
"660 560 LINE",
"926 560 LINE",
"962 720 LINE",
"534 720 LINE",
"482 466 LINE",
"414 0 LINE",
"798 0 LINE",
"834 160 LINE",
"606 160 LINE"
);
},
{
closed = 1;
nodes = (
"820 286 LINE",
"856 438 LINE",
"632 438 LINE",
"608 286 LINE"
);
}
);
width = 910;
}
);
leftKerningGroup = LAT_AE_UC;
rightKerningGroup = LAT_E_UC;
rightMetricsKey = E;
unicode = 00C6;
},
{
glyphname = B;
lastChange = "2020-06-09 11:08:07 +0000";
layers = (
{
anchors = (
{
name = bottom;
position = "{228, 0}";
},
{
name = center;
position = "{108, 206}";
},
{
name = top;
position = "{388, 720}";
}
);
background = {
paths = (
{
closed = 1;
nodes = (
"128 0 LINE",
"128 720 LINE",
"96 720 LINE",
"96 0 LINE"
);
},
{
closed = 1;
nodes = (
"302 0 LINE SMOOTH",
"436 0 OFFCURVE",
"524 70 OFFCURVE",
"524 192 CURVE SMOOTH",
"524 288 OFFCURVE",
"454 362 OFFCURVE",
"354 378 CURVE",
"350 370 LINE",
"413 399 OFFCURVE",
"467 462 OFFCURVE",
"466 546 CURVE SMOOTH",
"467 660 OFFCURVE",
"378 720 OFFCURVE",
"250 720 CURVE SMOOTH",
"106 720 LINE",
"106 690 LINE",
"246 690 LINE SMOOTH",
"360 690 OFFCURVE",
"434 639 OFFCURVE",
"434 546 CURVE SMOOTH",
"434 456 OFFCURVE",
"360 384 OFFCURVE",
"284 384 CURVE SMOOTH",
"106 384 LINE",
"106 356 LINE",
"302 356 LINE SMOOTH",
"421 356 OFFCURVE",
"491 280 OFFCURVE",
"492 190 CURVE SMOOTH",
"491 96 OFFCURVE",
"430 30 OFFCURVE",
"308 30 CURVE SMOOTH",
"124 30 LINE",
"124 0 LINE"
);
}
);
};
layerId = "AB099EFE-E788-4EFC-8633-CF147CB782A6";
paths = (
{
closed = 1;
nodes = (
"260 0 LINE SMOOTH",
"386 0 OFFCURVE",
"478 66 OFFCURVE",
"502 184 CURVE SMOOTH",
"522 284 OFFCURVE",
"476 358 OFFCURVE",
"374 378 CURVE",
"386 372 LINE",
"454 400 OFFCURVE",
"506 456 OFFCURVE",
"524 536 CURVE SMOOTH",
"546 638 OFFCURVE",
"488 720 OFFCURVE",
"372 720 CURVE SMOOTH",
"216 720 LINE",
"208 690 LINE",
"368 690 LINE SMOOTH",
"454 690 OFFCURVE",
"514 636 OFFCURVE",
"492 542 CURVE SMOOTH",
"472 452 OFFCURVE",
"390 386 OFFCURVE",
"304 386 CURVE SMOOTH",
"140 386 LINE",
"132 356 LINE",
"310 356 LINE SMOOTH",
"420 356 OFFCURVE",
"492 302 OFFCURVE",
"472 192 CURVE SMOOTH",
"452 90 OFFCURVE",
"370 30 OFFCURVE",
"260 30 CURVE SMOOTH",
"76 30 LINE",
"70 0 LINE"
);
},
{
closed = 1;
nodes = (
"74 0 LINE",
"238 720 LINE",
"206 720 LINE",
"42 0 LINE"
);
}
);
width = 586;
},
{
anchors = (
{
name = bottom;
position = "{284, 0}";
},
{
name = center;
position = "{154, 226}";
},
{
name = top;
position = "{410, 720}";
}
);
background = {
paths = (
{
closed = 1;
nodes = (
"390 0 LINE SMOOTH",
"532 0 OFFCURVE",
"631 88 OFFCURVE",
"632 212 CURVE SMOOTH",
"631 324 OFFCURVE",
"551 369 OFFCURVE",
"456 394 CURVE",
"456 350 LINE",
"536 382 OFFCURVE",
"604 453 OFFCURVE",
"604 536 CURVE SMOOTH",
"604 647 OFFCURVE",
"502 719 OFFCURVE",
"350 720 CURVE SMOOTH",
"234 720 LINE",
"234 568 LINE",
"340 568 LINE SMOOTH",
"391 567 OFFCURVE",
"426 545 OFFCURVE",
"426 500 CURVE SMOOTH",
"426 454 OFFCURVE",
"393 428 OFFCURVE",
"348 428 CURVE SMOOTH",
"234 428 LINE",
"234 300 LINE",
"364 300 LINE SMOOTH",
"421 300 OFFCURVE",
"454 275 OFFCURVE",
"454 230 CURVE SMOOTH",
"454 183 OFFCURVE",
"417 152 OFFCURVE",
"370 152 CURVE SMOOTH",
"234 152 LINE",
"234 0 LINE"
);
},
{
closed = 1;
nodes = (
"248 0 LINE",
"248 720 LINE",
"72 720 LINE",
"72 0 LINE"
);
}
);
};
layerId = "2D8F7115-C311-411E-929D-56333CF7FFB2";
paths = (
{
closed = 1;
nodes = (
"358 0 LINE SMOOTH",
"496 0 OFFCURVE",
"586 80 OFFCURVE",
"610 192 CURVE SMOOTH",
"638 320 OFFCURVE",
"560 374 OFFCURVE",
"472 388 CURVE",
"468 344 LINE",
"540 368 OFFCURVE",
"610 440 OFFCURVE",
"628 524 CURVE SMOOTH",
"652 646 OFFCURVE",
"548 720 OFFCURVE",
"410 720 CURVE SMOOTH",
"342 720 LINE",
"306 564 LINE",
"380 564 LINE SMOOTH",
"422 564 OFFCURVE",
"462 550 OFFCURVE",
"456 506 CURVE SMOOTH",
"452 472 OFFCURVE",
"420 430 OFFCURVE",
"374 430 CURVE SMOOTH",
"276 430 LINE",
"246 298 LINE",
"378 298 LINE SMOOTH",
"418 298 OFFCURVE",
"452 276 OFFCURVE",
"442 232 CURVE SMOOTH",
"432 188 OFFCURVE",
"402 156 OFFCURVE",
"352 156 CURVE SMOOTH",
"214 156 LINE",
"178 0 LINE"
);
},
{
closed = 1;
nodes = (
"192 0 LINE",
"356 720 LINE",
"176 720 LINE",
"12 0 LINE"
);
}
);
width = 652;
},
{
anchors = (
{
name = bottom;
position = "{256, 0}";
},
{
name = center;
position = "{130, 208}";
},
{
name = top;
position = "{418, 720}";
}
);
associatedMasterId = "AB099EFE-E788-4EFC-8633-CF147CB782A6";
background = {
paths = (
{
closed = 1;
nodes = (
"328 0 LINE SMOOTH",
"458 0 OFFCURVE",
"569 68 OFFCURVE",
"570 210 CURVE SMOOTH",
"569 303 OFFCURVE",
"500 360 OFFCURVE",
"416 390 CURVE",
"416 364 LINE",
"481 395 OFFCURVE",
"534 453 OFFCURVE",
"534 534 CURVE SMOOTH",
"534 660 OFFCURVE",
"436 719 OFFCURVE",
"292 720 CURVE SMOOTH",
"172 720 LINE",
"172 624 LINE",
"294 624 LINE SMOOTH",
"378 625 OFFCURVE",
"427 590 OFFCURVE",
"428 520 CURVE SMOOTH",
"427 448 OFFCURVE",
"384 415 OFFCURVE",
"302 416 CURVE SMOOTH",
"172 416 LINE",
"172 320 LINE",
"308 320 LINE SMOOTH",
"405 321 OFFCURVE",
"462 284 OFFCURVE",
"462 210 CURVE SMOOTH",
"464 134 OFFCURVE",
"407 95 OFFCURVE",
"322 94 CURVE SMOOTH",
"182 94 LINE",
"182 0 LINE"
);
},
{
closed = 1;
nodes = (
"194 0 LINE",
"194 720 LINE",
"88 720 LINE",
"88 0 LINE"
);
}
);
};
layerId = "5AD6DEE3-C1BF-45C1-B31B-12614FF61D47";
name = "Half {450}";
paths = (
{
closed = 1;
nodes = (
"300 0 LINE SMOOTH",
"444 0 OFFCURVE",
"534 82 OFFCURVE",
"554 196 CURVE SMOOTH",
"572 294 OFFCURVE",
"528 362 OFFCURVE",
"438 388 CURVE",
"434 362 LINE",
"492 382 OFFCURVE",
"558 448 OFFCURVE",
"576 532 CURVE SMOOTH",
"600 642 OFFCURVE",
"528 720 OFFCURVE",
"370 720 CURVE SMOOTH",
"276 720 LINE",
"256 628 LINE",
"356 628 LINE SMOOTH",
"436 628 OFFCURVE",
"482 596 OFFCURVE",
"472 532 CURVE SMOOTH",
"462 466 OFFCURVE",
"400 414 OFFCURVE",
"324 414 CURVE SMOOTH",
"206 414 LINE",
"186 322 LINE",
"336 322 LINE SMOOTH",
"420 322 OFFCURVE",
"464 276 OFFCURVE",
"452 206 CURVE SMOOTH",
"440 138 OFFCURVE",
"386 92 OFFCURVE",
"310 92 CURVE SMOOTH",
"144 92 LINE",
"122 0 LINE"
);
},
{
closed = 1;
nodes = (
"132 0 LINE",
"296 720 LINE",
"192 720 LINE",
"28 0 LINE"
);
}
);
width = 610;
}
);
leftKerningGroup = LAT_H_UC;
leftMetricsKey = H;
rightKerningGroup = LAT_B_UC;
unicode = 0042;
},
{
glyphname = C;
lastChange = "2020-06-09 12:10:45 +0000";
layers = (
{
anchors = (
{
name = base;
position = "{358, 0}";
},
{
name = bottom;
position = "{338, 0}";
},
{
name = cedilla;
position = "{338, 0}";
},
{
name = top;
position = "{502, 720}";
}
);
guideLines = (
{
angle = 67.5;
position = "{554, 360}";
},
{
angle = 112.5;
position = "{558, 360}";
}
);
layerId = "AB099EFE-E788-4EFC-8633-CF147CB782A6";
paths = (
{
closed = 1;
nodes = (
"422 -8 OFFCURVE",
"508 20 OFFCURVE",
"578 76 CURVE",
"570 110 LINE",
"512 56 OFFCURVE",
"430 22 OFFCURVE",
"348 22 CURVE SMOOTH",
"176 22 OFFCURVE",
"72 170 OFFCURVE",
"114 358 CURVE SMOOTH",
"158 556 OFFCURVE",
"332 698 OFFCURVE",
"492 698 CURVE SMOOTH",
"558 698 OFFCURVE",
"640 676 OFFCURVE",
"682 622 CURVE",
"702 652 LINE",
"656 698 OFFCURVE",
"576 728 OFFCURVE",
"494 728 CURVE SMOOTH",
"314 728 OFFCURVE",
"132 576 OFFCURVE",
"84 362 CURVE SMOOTH",
"34 140 OFFCURVE",
"168 -8 OFFCURVE",
"344 -8 CURVE SMOOTH"
);
}
);
width = 664;
},
{
anchors = (
{
name = base;
position = "{350, 0}";
},
{
name = bottom;
position = "{344, 0}";
},
{
name = cedilla;
position = "{356, 0}";
},
{
name = top;
position = "{504, 720}";
}
);
layerId = "2D8F7115-C311-411E-929D-56333CF7FFB2";
paths = (
{
closed = 1;
nodes = (
"436 -8 OFFCURVE",
"508 4 OFFCURVE",
"582 42 CURVE",
"546 212 LINE",
"506 176 OFFCURVE",
"444 156 OFFCURVE",
"390 156 CURVE SMOOTH",
"282 156 OFFCURVE",
"206 234 OFFCURVE",
"230 356 CURVE SMOOTH",
"252 464 OFFCURVE",
"346 564 OFFCURVE",
"474 564 CURVE SMOOTH",
"528 564 OFFCURVE",
"586 546 OFFCURVE",
"608 516 CURVE",
"708 666 LINE",
"646 706 OFFCURVE",
"564 728 OFFCURVE",
"488 728 CURVE SMOOTH",
"284 728 OFFCURVE",
"102 592 OFFCURVE",
"56 388 CURVE SMOOTH",
"8 176 OFFCURVE",
"142 -8 OFFCURVE",
"376 -8 CURVE SMOOTH"
);
}
);
width = 662;
},
{
anchors = (
{
name = base;
position = "{360, 0}";
},
{
name = bottom;
position = "{346, 0}";
},
{
name = cedilla;
position = "{352, 0}";
},
{
name = top;
position = "{510, 720}";
}
);
associatedMasterId = "AB099EFE-E788-4EFC-8633-CF147CB782A6";
layerId = "0C70BBED-6CBF-4E45-B429-2F50D50C94E8";
name = "Half {450}";
paths = (
{
closed = 1;
nodes = (
"458 -8 OFFCURVE",
"530 22 OFFCURVE",
"596 66 CURVE",
"574 164 LINE",
"524 122 OFFCURVE",
"466 88 OFFCURVE",
"382 88 CURVE SMOOTH",
"228 88 OFFCURVE",
"140 206 OFFCURVE",
"172 356 CURVE SMOOTH",
"202 496 OFFCURVE",
"330 632 OFFCURVE",
"488 632 CURVE SMOOTH",
"554 632 OFFCURVE",
"626 608 OFFCURVE",
"660 568 CURVE",
"718 662 LINE",
"668 702 OFFCURVE",
"582 728 OFFCURVE",
"498 728 CURVE SMOOTH",
"282 728 OFFCURVE",
"108 556 OFFCURVE",
"68 366 CURVE SMOOTH",
"22 150 OFFCURVE",
"160 -8 OFFCURVE",
"366 -8 CURVE SMOOTH"
);
}
);
width = 672;
}
);
leftKerningGroup = LAT_O_UC;
leftMetricsKey = O;
rightKerningGroup = LAT_C_UC;
unicode = 0043;
},
{
glyphname = D;
lastChange = "2020-06-09 02:49:03 +0000";
layers = (
{
anchors = (
{
name = bottom;
position = "{282, 0}";
},
{
name = center;
position = "{144, 360}";
},
{
name = top;
position = "{444, 720}";
}
);
layerId = "AB099EFE-E788-4EFC-8633-CF147CB782A6";
paths = (
{
closed = 1;
nodes = (
"42 0 LINE",
"284 0 LINE SMOOTH",
"478 0 OFFCURVE",
"610 168 OFFCURVE",
"648 362 CURVE SMOOTH",
"694 590 OFFCURVE",
"586 720 OFFCURVE",
"400 720 CURVE SMOOTH",
"206 720 LINE"
);
},
{
closed = 1;
nodes = (
"80 30 LINE",
"230 690 LINE",
"396 690 LINE SMOOTH",
"568 690 OFFCURVE",
"656 572 OFFCURVE",
"618 376 CURVE SMOOTH",
"582 192 OFFCURVE",
"458 30 OFFCURVE",
"282 30 CURVE SMOOTH"
);
}
);
width = 684;
},
{
anchors = (
{
name = bottom;
position = "{280, 0}";
},
{
name = center;
position = "{190, 360}";
},
{
name = top;
position = "{446, 720}";
}
);
layerId = "2D8F7115-C311-411E-929D-56333CF7FFB2";
paths = (
{
closed = 1;
nodes = (
"12 0 LINE",
"300 0 LINE SMOOTH",
"480 0 OFFCURVE",
"650 122 OFFCURVE",
"702 344 CURVE SMOOTH",
"754 564 OFFCURVE",
"632 720 OFFCURVE",
"412 720 CURVE SMOOTH",
"176 720 LINE"
);
},
{
closed = 1;
nodes = (
"228 160 LINE",
"320 560 LINE",
"404 560 LINE SMOOTH",
"470 560 OFFCURVE",
"558 526 OFFCURVE",
"530 380 CURVE SMOOTH",
"500 226 OFFCURVE",
"384 160 OFFCURVE",
"326 160 CURVE SMOOTH"
);
}
);
width = 712;
}
);
leftKerningGroup = LAT_H_UC;
leftMetricsKey = H;
rightKerningGroup = LAT_O_UC;
rightMetricsKey = O;
unicode = 0044;
},
{
glyphname = E;
lastChange = "2020-06-08 07:50:20 +0000";
layers = (
{
anchors = (
{
name = bottom;
position = "{244, 0}";
},
{
name = cedilla;
position = "{238, 0}";
},
{
name = ogonek;
position = "{330, 0}";
},
{
name = top;
position = "{398, 720}";
},
{
name = topleft;
position = "{128, 720}";
}
);
hints = (
{
horizontal = 1;
origin = "{0, 3}";
target = "{0, 0}";
type = TTStem;
options = 4;
},
{
horizontal = 1;
origin = "{0, 4}";
target = "{0, 7}";
type = TTStem;
options = 1;
},
{
horizontal = 1;
origin = "{0, 11}";
target = "{0, 8}";
type = TTStem;
options = 4;
}
);
layerId = "AB099EFE-E788-4EFC-8633-CF147CB782A6";
paths = (
{
closed = 1;
nodes = (
"42 0 LINE",
"406 0 LINE",
"412 30 LINE",
"80 30 LINE",
"154 354 LINE",
"438 354 LINE",
"446 384 LINE",
"162 384 LINE",
"230 690 LINE",
"562 690 LINE",
"570 720 LINE",
"206 720 LINE"
);
}
);
width = 532;
},
{
anchors = (
{
name = bottom;
position = "{242, 0}";
},
{
name = cedilla;
position = "{240, 0}";
},
{
name = ogonek;
position = "{338, 0}";
},
{
name = top;
position = "{404, 720}";
},
{
name = topleft;
position = "{126, 720}";
}
);
hints = (
{
horizontal = 1;
origin = "{0, 3}";
target = "{0, 0}";
type = TTStem;
options = 4;
},
{
horizontal = 1;
origin = "{0, 4}";
target = "{0, 7}";
type = TTStem;
options = 1;
},
{
horizontal = 1;
origin = "{0, 11}";
target = "{0, 8}";
type = TTStem;
options = 4;
}
);
layerId = "2D8F7115-C311-411E-929D-56333CF7FFB2";
paths = (
{
closed = 1;
nodes = (
"12 0 LINE",
"430 0 LINE",
"466 160 LINE",
"228 160 LINE",
"256 286 LINE",
"452 286 LINE",
"490 438 LINE",
"292 438 LINE",
"320 560 LINE",
"556 560 LINE",
"594 720 LINE",
"176 720 LINE"
);
}
);
width = 542;
}
);
leftKerningGroup = LAT_H_UC;
leftMetricsKey = H;
rightKerningGroup = LAT_E_UC;
unicode = 0045;
},
{
glyphname = F;
lastChange = "2020-06-08 07:50:20 +0000";
layers = (
{
anchors = (
{
name = bottom;
position = "{58, 0}";
},
{
name = center;
position = "{100, 184}";
},
{
name = top;
position = "{398, 720}";
}
);
layerId = "AB099EFE-E788-4EFC-8633-CF147CB782A6";
paths = (
{
closed = 1;
nodes = (
"42 0 LINE",
"74 0 LINE",
"154 354 LINE",
"434 354 LINE",
"442 384 LINE",
"162 384 LINE",
"230 690 LINE",
"550 690 LINE",
"558 720 LINE",
"206 720 LINE"
);
}
);
width = 492;
},
{
anchors = (
{
name = bottom;
position = "{102, 0}";
},
{
name = center;
position = "{134, 142}";
},
{
name = top;
position = "{416, 720}";
}
);
layerId = "2D8F7115-C311-411E-929D-56333CF7FFB2";
paths = (
{
closed = 1;
nodes = (
"12 0 LINE",
"192 0 LINE",
"250 256 LINE",
"446 256 LINE",
"482 416 LINE",
"286 416 LINE",
"318 560 LINE",
"558 560 LINE",
"594 720 LINE",
"176 720 LINE"
);
}
);
width = 522;
}
);
leftKerningGroup = LAT_H_UC;
leftMetricsKey = H;
rightKerningGroup = LAT_F_UC;
unicode = 0046;
},
{
glyphname = G;
lastChange = "2020-06-09 02:49:22 +0000";
layers = (
{
anchors = (
{
name = bottom;
position = "{322, 0}";
},
{
name = hook;
position = "{708, 652}";
},
{
name = top;
position = "{486, 720}";
}
);
layerId = "AB099EFE-E788-4EFC-8633-CF147CB782A6";
paths = (
{
closed = 1;
nodes = (
"534 -8 OFFCURVE",
"660 136 OFFCURVE",
"704 342 CURVE SMOOTH",
"710 370 LINE",
"396 370 LINE",
"390 342 LINE",
"672 342 LINE",
"634 167 OFFCURVE",
"522 20 OFFCURVE",
"350 20 CURVE SMOOTH",
"182 20 OFFCURVE",
"72 158 OFFCURVE",
"114 358 CURVE SMOOTH",
"154 546 OFFCURVE",
"308 698 OFFCURVE",
"490 698 CURVE SMOOTH",
"568 698 OFFCURVE",
"650 670 OFFCURVE",
"688 622 CURVE",
"708 652 LINE",
"664 696 OFFCURVE",
"584 728 OFFCURVE",
"494 728 CURVE SMOOTH",
"292 728 OFFCURVE",
"126 564 OFFCURVE",
"84 362 CURVE SMOOTH",
"38 142 OFFCURVE",
"160 -8 OFFCURVE",
"348 -8 CURVE SMOOTH"
);
}
);
width = 744;
},
{
anchors = (
{
name = bottom;
position = "{334, 0}";
},
{
name = hook;
position = "{734, 670}";
},
{
name = top;
position = "{498, 720}";
}
);
layerId = "2D8F7115-C311-411E-929D-56333CF7FFB2";
paths = (
{
closed = 1;
nodes = (
"552 -8 OFFCURVE",
"696 112 OFFCURVE",
"734 280 CURVE SMOOTH",
"766 420 LINE",
"418 418 LINE",
"386 274 LINE",
"566 274 LINE",
"550 210 OFFCURVE",
"472 152 OFFCURVE",
"378 152 CURVE SMOOTH",
"264 152 OFFCURVE",
"210 236 OFFCURVE",
"232 344 CURVE SMOOTH",
"258 472 OFFCURVE",
"372 564 OFFCURVE",
"496 564 CURVE SMOOTH",
"550 564 OFFCURVE",
"606 546 OFFCURVE",
"630 516 CURVE",
"730 666 LINE",
"672 704 OFFCURVE",
"588 728 OFFCURVE",
"504 728 CURVE SMOOTH",
"308 728 OFFCURVE",
"102 594 OFFCURVE",
"54 380 CURVE SMOOTH",
"8 180 OFFCURVE",
"126 -8 OFFCURVE",
"362 -8 CURVE SMOOTH"
);
}
);
width = 762;
},
{
anchors = (
{
name = bottom;
position = "{336, 0}";
},
{
name = hook;
position = "{732, 662}";
},
{
name = top;
position = "{492, 720}";
}
);
associatedMasterId = "AB099EFE-E788-4EFC-8633-CF147CB782A6";
layerId = "468E3CD5-7719-4A9D-BC7F-DB35573366CF";
name = "Half {450}";
paths = (
{
closed = 1;
nodes = (
"550 -8 OFFCURVE",
"678 116 OFFCURVE",
"724 314 CURVE SMOOTH",
"742 392 LINE",
"408 392 LINE",
"388 300 LINE",
"614 300 LINE",
"584 170 OFFCURVE",
"500 88 OFFCURVE",
"374 88 CURVE SMOOTH",
"234 88 OFFCURVE",
"136 190 OFFCURVE",
"172 354 CURVE SMOOTH",
"208 514 OFFCURVE",
"342 632 OFFCURVE",
"496 632 CURVE SMOOTH",
"572 632 OFFCURVE",
"640 604 OFFCURVE",
"670 566 CURVE",
"730 662 LINE",
"670 708 OFFCURVE",
"586 728 OFFCURVE",
"506 728 CURVE SMOOTH",
"278 728 OFFCURVE",
"112 566 OFFCURVE",
"68 364 CURVE SMOOTH",
"20 142 OFFCURVE",
"166 -8 OFFCURVE",
"368 -8 CURVE SMOOTH"
);
}
);
width = 752;
}
);
leftKerningGroup = LAT_O_UC;
leftMetricsKey = O;
rightKerningGroup = LAT_G_UC;
unicode = 0047;
},
{
glyphname = H;
lastChange = "2020-06-09 05:16:28 +0000";
layers = (
{
anchors = (
{
name = bottom;
position = "{288, 0}";
},
{
name = center;
position = "{408, 530}";
},
{
name = top;
position = "{452, 720}";
}
);
layerId = "AB099EFE-E788-4EFC-8633-CF147CB782A6";
paths = (
{
closed = 1;
nodes = (
"42 0 LINE",
"74 0 LINE",
"154 354 LINE",
"580 354 LINE",
"500 0 LINE",
"532 0 LINE",
"696 720 LINE",
"664 720 LINE",
"588 384 LINE",
"162 384 LINE",
"238 720 LINE",
"206 720 LINE"
);
}
);
width = 690;
},
{
anchors = (
{
name = bottom;
position = "{320, 0}";
},
{
name = center;
position = "{452, 578}";
},
{
name = top;
position = "{484, 720}";
}
);
guideLines = (
{
angle = 77.1957;
position = "{-48, 0}";
}
);
layerId = "2D8F7115-C311-411E-929D-56333CF7FFB2";
paths = (
{
closed = 1;
nodes = (
"12 0 LINE",
"192 0 LINE",
"256 282 LINE",
"510 282 LINE",
"448 0 LINE",
"628 0 LINE",
"792 720 LINE",
"612 720 LINE",
"548 442 LINE",
"292 442 LINE",
"356 720 LINE",
"176 720 LINE"
);
}
);
width = 760;
}
);
leftKerningGroup = LAT_H_UC;
rightKerningGroup = LAT_H_UC;
unicode = 0048;
},
{
glyphname = I;
lastChange = "2020-06-08 07:50:20 +0000";
layers = (
{
anchors = (
{
name = bottom;
position = "{62, 0}";
},
{
name = ogonek;
position = "{16, 0}";
},
{
name = top;
position = "{226, 720}";
}
);
layerId = "AB099EFE-E788-4EFC-8633-CF147CB782A6";
paths = (
{
closed = 1;
nodes = (
"46 0 LINE",
"78 0 LINE",
"242 720 LINE",
"210 720 LINE"
);
}
);
width = 240;
},
{
anchors = (
{
name = bottom;
position = "{112, 0}";
},
{
name = ogonek;
position = "{96, 0}";
},
{
name = top;
position = "{276, 720}";
}
);
layerId = "2D8F7115-C311-411E-929D-56333CF7FFB2";
paths = (
{
closed = 1;
nodes = (
"22 0 LINE",
"202 0 LINE",
"366 720 LINE",
"186 720 LINE"
);
}
);
width = 346;
}
);
leftKerningGroup = LAT_H_UC;
rightKerningGroup = LAT_H_UC;
unicode = 0049;
},
{
color = 10;
glyphname = I.ss04;
lastChange = "2020-06-08 07:50:20 +0000";
layers = (
{
anchors = (
{
name = bottom;
position = "{122, 0}";
},
{
name = ogonek;
position = "{98, 0}";
},
{
name = top;
position = "{286, 720}";
}
);
layerId = "AB099EFE-E788-4EFC-8633-CF147CB782A6";
paths = (
{
closed = 1;
nodes = (
"108 0 LINE",
"138 0 LINE",
"302 720 LINE",
"270 720 LINE"
);
},
{
closed = 1;
nodes = (
"178 690 LINE",
"380 690 LINE",
"388 720 LINE",
"186 720 LINE"
);
},
{
closed = 1;
nodes = (
"22 0 LINE",
"224 0 LINE",
"230 30 LINE",
"28 30 LINE"
);
}
);
width = 362;
},
{
anchors = (
{
name = bottom;
position = "{180, 0}";
},
{
name = ogonek;
position = "{164, 0}";
},
{
name = top;
position = "{344, 720}";
}
);
layerId = "2D8F7115-C311-411E-929D-56333CF7FFB2";
paths = (
{
closed = 1;
nodes = (
"94 0 LINE",
"268 0 LINE",
"432 720 LINE",
"258 720 LINE"
);
},
{
closed = 1;
nodes = (
"126 564 LINE",
"488 564 LINE",
"526 720 LINE",
"164 720 LINE"
);
},
{
closed = 1;
nodes = (
"0 0 LINE",
"362 0 LINE",
"398 156 LINE",
"38 156 LINE"
);
}
);
width = 482;
}
);
leftKerningGroup = LAT_ISS03_UC;
rightKerningGroup = LAT_ISS03_UC;
},
{
color = 10;
glyphname = IJ.ss04;
lastChange = "2020-06-08 07:31:58 +0000";
layers = (
{
components = (
{
name = I.ss04;
}
);
layerId = "AB099EFE-E788-4EFC-8633-CF147CB782A6";
paths = (
{
closed = 1;
nodes = (
"348 -90 OFFCURVE",
"308 -184 OFFCURVE",
"178 -184 CURVE SMOOTH",
"134 -184 OFFCURVE",
"102 -164 OFFCURVE",
"88 -120 CURVE",
"60 -134 LINE",
"78 -180 OFFCURVE",
"116 -214 OFFCURVE",
"182 -212 CURVE SMOOTH",
"320 -214 OFFCURVE",
"372 -122 OFFCURVE",
"404 18 CURVE SMOOTH",
"564 720 LINE",
"532 720 LINE",
"370 10 LINE SMOOTH"
);
}
);
width = 558;
},
{
components = (
{
name = I.ss04;
}
);
layerId = "2D8F7115-C311-411E-929D-56333CF7FFB2";
paths = (
{
closed = 1;
nodes = (
"470 -66 OFFCURVE",
"432 -100 OFFCURVE",
"392 -100 CURVE SMOOTH",
"370 -100 OFFCURVE",
"342 -90 OFFCURVE",
"340 -68 CURVE",
"184 -128 LINE",
"202 -204 OFFCURVE",
"288 -248 OFFCURVE",
"388 -248 CURVE SMOOTH",
"516 -248 OFFCURVE",
"622 -174 OFFCURVE",
"656 -30 CURVE SMOOTH",
"826 720 LINE",
"650 720 LINE",
"480 -28 LINE SMOOTH"
);
}
);
width = 796;
}
);
leftKerningGroup = LAT_ISS03_UC;
leftMetricsKey = I.ss04;
rightKerningGroup = LAT_J_UC;
rightMetricsKey = H;
},
{
glyphname = J;
lastChange = "2020-06-09 02:49:56 +0000";
layers = (
{
anchors = (
{
name = bottom;
position = "{150, 0}";
},
{
name = top;
position = "{434, 720}";
}
);
layerId = "AB099EFE-E788-4EFC-8633-CF147CB782A6";
paths = (
{
closed = 1;
nodes = (
"278 78 OFFCURVE",
"218 22 OFFCURVE",
"142 22 CURVE SMOOTH",
"68 22 OFFCURVE",
"16 80 OFFCURVE",
"36 168 CURVE",
"4 172 LINE",
"-16 68 OFFCURVE",
"46 -8 OFFCURVE",
"142 -8 CURVE SMOOTH",
"234 -8 OFFCURVE",
"306 58 OFFCURVE",
"340 210 CURVE SMOOTH",
"456 720 LINE",
"424 720 LINE",
"308 212 LINE SMOOTH"
);
}
);
width = 450;
},
{
anchors = (
{
name = bottom;
position = "{216, 0}";
},
{
name = top;
position = "{492, 720}";
}
);
layerId = "2D8F7115-C311-411E-929D-56333CF7FFB2";
paths = (
{
closed = 1;
nodes = (
"288 208 OFFCURVE",
"274 152 OFFCURVE",
"220 152 CURVE SMOOTH",
"182 152 OFFCURVE",
"160 178 OFFCURVE",
"174 234 CURVE",
"8 250 LINE",
"-26 98 OFFCURVE",
"52 -8 OFFCURVE",
"212 -8 CURVE SMOOTH",
"348 -8 OFFCURVE",
"440 76 OFFCURVE",
"472 220 CURVE SMOOTH",
"584 720 LINE",
"404 720 LINE",
"294 234 LINE SMOOTH"
);
}
);
width = 552;
}
);
leftKerningGroup = LAT_J_UC;
rightKerningGroup = LAT_U_UC;
rightMetricsKey = H;
unicode = 004A;
},
{
glyphname = K;
lastChange = "2020-06-09 05:57:17 +0000";
layers = (
{
anchors = (
{
name = bottom;
position = "{246, 0}";
},
{
name = top;
position = "{410, 720}";
}
);
layerId = "AB099EFE-E788-4EFC-8633-CF147CB782A6";
paths = (
{
closed = 1;
nodes = (
"74 0 LINE",
"152 346 LINE",
"168 346 LINE",
"154 358 LINE",
"446 0 LINE",
"484 0 LINE",
"182 368 LINE",
"182 348 LINE",
"628 720 LINE",
"582 720 LINE",
"154 362 LINE",
"176 374 LINE",
"158 374 LINE",
"238 720 LINE",
"206 720 LINE",
"42 0 LINE"
);
}
);
width = 584;
},
{
anchors = (
{
name = bottom;
position = "{300, 0}";
},
{
name = top;
position = "{446, 720}";
}
);
guideLines = (
{
angle = 120;
position = "{524, 0}";
}
);
layerId = "2D8F7115-C311-411E-929D-56333CF7FFB2";
paths = (
{
closed = 1;
nodes = (
"192 0 LINE",
"262 312 LINE",
"304 312 LINE",
"254 338 LINE",
"426 0 LINE",
"624 0 LINE",
"410 398 LINE",
"400 300 LINE",
"792 720 LINE",
"570 720 LINE",
"260 378 LINE",
"326 404 LINE",
"284 404 LINE",
"356 720 LINE",
"176 720 LINE",
"12 0 LINE"
);
}
);
width = 702;
}
);
leftKerningGroup = LAT_H_UC;
leftMetricsKey = H;
rightKerningGroup = LAT_K_UC;
unicode = 004B;
},
{
glyphname = L;
lastChange = "2020-06-08 07:50:20 +0000";
layers = (
{
anchors = (
{
name = bottom;
position = "{228, 0}";
},
{
name = center;
position = "{140, 360}";
},
{
name = dot;
position = "{390, 360}";
},
{
name = top;
position = "{222, 720}";
},
{
name = topright;
position = "{472, 720}";
}
);
layerId = "AB099EFE-E788-4EFC-8633-CF147CB782A6";
paths = (
{
closed = 1;
nodes = (
"42 0 LINE",
"400 0 LINE",
"406 30 LINE",
"80 30 LINE",
"238 720 LINE",
"206 720 LINE"
);
}
);
width = 484;
},
{
anchors = (
{
name = bottom;
position = "{224, 0}";
},
{
name = center;
position = "{184, 370}";
},
{
name = dot;
position = "{444, 370}";
},
{
name = top;
position = "{270, 720}";
},
{
name = topright;
position = "{412, 720}";
}
);
layerId = "2D8F7115-C311-411E-929D-56333CF7FFB2";
paths = (
{
closed = 1;
nodes = (
"12 0 LINE",
"426 0 LINE",
"464 160 LINE",
"228 160 LINE",
"356 720 LINE",
"176 720 LINE"
);
}
);
width = 504;
}
);
leftKerningGroup = LAT_H_UC;
leftMetricsKey = H;
rightKerningGroup = LAT_L_UC;
unicode = 004C;
},
{
glyphname = M;
lastChange = "2020-06-09 02:57:52 +0000";
layers = (
{
anchors = (
{
name = bottom;
position = "{330, 0}";
},
{
name = top;
position = "{494, 720}";
}
);
layerId = "AB099EFE-E788-4EFC-8633-CF147CB782A6";
paths = (
{
closed = 1;
nodes = (
"42 0 LINE",
"74 0 LINE",
"192 522 LINE",
"224 658 LINE",
"228 658 LINE",
"352 134 LINE",
"372 134 LINE",
"730 658 LINE",
"734 658 LINE",
"702 522 LINE",
"584 0 LINE",
"616 0 LINE",
"780 720 LINE",
"736 720 LINE",
"374 188 LINE",
"368 188 LINE",
"242 720 LINE",
"206 720 LINE"
);
}
);
width = 774;
},
{
anchors = (
{
name = bottom;
position = "{388, 0}";
},
{
name = top;
position = "{552, 720}";
}
);
background = {
paths = (
{
closed = 1;
nodes = (
"72 0 LINE",
"248 0 LINE",
"248 198 LINE",
"249 263 OFFCURVE",
"245 362 OFFCURVE",
"236 422 CURVE",
"240 422 LINE",
"304 302 LINE",
"434 90 LINE",
"458 90 LINE",
"586 302 LINE",
"650 422 LINE",
"656 422 LINE",
"645 351 OFFCURVE",
"641 249 OFFCURVE",
"642 198 CURVE",
"642 0 LINE",
"820 0 LINE",
"820 720 LINE",
"626 720 LINE",
"498 486 LINE",
"485 467 OFFCURVE",
"469 430 OFFCURVE",
"450 400 CURVE",
"444 400 LINE",
"428 428 OFFCURVE",
"415 460 OFFCURVE",
"398 486 CURVE",
"270 720 LINE",
"72 720 LINE"
);
}
);
};
layerId = "2D8F7115-C311-411E-929D-56333CF7FFB2";
paths = (
{
closed = 1;
nodes = (
"12 0 LINE",
"192 0 LINE",
"234 196 LINE",
"276 398 LINE",
"282 398 LINE",
"408 150 LINE",
"440 150 LINE",
"676 398 LINE",
"678 398 LINE",
"626 196 LINE",
"582 0 LINE",
"764 0 LINE",
"928 720 LINE",
"784 720 LINE",
"470 400 LINE",
"466 400 LINE",
"292 720 LINE",
"176 720 LINE"
);
}
);
width = 896;
},
{
anchors = (
{
name = bottom;
position = "{362, 0}";
},
{
name = top;
position = "{526, 720}";
}
);
associatedMasterId = "AB099EFE-E788-4EFC-8633-CF147CB782A6";
background = {
paths = (
{
closed = 1;
nodes = (
"754 924 LINE",
"422 304 LINE",
"88 926 LINE",
"88 0 LINE",
"192 0 LINE",
"192 512 LINE",
"422 88 LINE",
"648 512 LINE",
"648 0 LINE",
"754 0 LINE"
);
}
);
};
layerId = "6123BCBE-8DAE-43AC-AC2E-27695F353F5A";
name = "Half {450}";
paths = (
{
closed = 1;
nodes = (
"28 0 LINE",
"132 0 LINE",
"212 352 LINE",
"244 496 LINE",
"248 496 LINE",
"380 140 LINE",
"414 140 LINE",
"702 496 LINE",
"706 496 LINE",
"670 352 LINE",
"590 0 LINE",
"694 0 LINE",
"858 720 LINE",
"766 720 LINE",
"426 298 LINE",
"422 298 LINE",
"266 720 LINE",
"192 720 LINE"
);
}
);
width = 840;
}
);
leftKerningGroup = LAT_H_UC;
leftMetricsKey = H;
rightKerningGroup = LAT_H_UC;
rightMetricsKey = H;
unicode = 004D;
},
{
glyphname = N;
lastChange = "2020-06-09 02:35:44 +0000";
layers = (
{
anchors = (
{
name = bottom;
position = "{282, 0}";
},
{
name = leghookright;
position = "{520, 0}";
},
{
name = top;
position = "{454, 720}";
}
);
layerId = "AB099EFE-E788-4EFC-8633-CF147CB782A6";
paths = (
{
closed = 1;
nodes = (
"42 0 LINE",
"74 0 LINE",
"182 472 LINE",
"224 660 LINE",
"228 660 LINE",
"284 528 LINE",
"506 0 LINE",
"536 0 LINE",
"700 720 LINE",
"668 720 LINE",
"562 252 LINE",
"518 58 LINE",
"512 58 LINE",
"458 190 LINE",
"234 720 LINE",
"206 720 LINE"
);
}
);
width = 694;
},
{
anchors = (
{
name = bottom;
position = "{326, 0}";
},
{
name = leghookright;
position = "{558, 0}";
},
{
name = top;
position = "{492, 720}";
}
);
layerId = "2D8F7115-C311-411E-929D-56333CF7FFB2";
paths = (
{
closed = 1;
nodes = (
"12 0 LINE",
"192 0 LINE",
"248 254 LINE",
"280 414 LINE",
"286 414 LINE",
"318 348 LINE",
"514 0 LINE",
"644 0 LINE",
"808 720 LINE",
"626 720 LINE",
"568 466 LINE",
"538 316 LINE",
"532 316 LINE",
"498 380 LINE",
"304 720 LINE",
"176 720 LINE"
);
}
);
width = 776;
},
{
anchors = (
{
name = bottom;
position = "{310, 0}";
},
{
name = leghookright;
position = "{548, 0}";
},
{
name = top;
position = "{478, 720}";
}
);
associatedMasterId = "AB099EFE-E788-4EFC-8633-CF147CB782A6";
background = {
paths = (
{
closed = 1;
nodes = (
"550 190 LINE",
"66 874 LINE",
"88 720 LINE",
"88 0 LINE",
"192 0 LINE",
"192 536 LINE",
"678 -146 LINE",
"654 -2 LINE",
"654 720 LINE",
"550 720 LINE"
);
}
);
};
layerId = "94E0382F-BC24-4C69-AAF8-052F59CB1787";
name = "Half {450}";
paths = (
{
closed = 1;
nodes = (
"28 0 LINE",
"132 0 LINE",
"212 352 LINE",
"252 524 LINE",
"256 524 LINE",
"302 438 LINE",
"526 0 LINE",
"600 0 LINE",
"764 720 LINE",
"660 720 LINE",
"582 372 LINE",
"542 196 LINE",
"536 196 LINE",
"492 284 LINE",
"268 720 LINE",
"192 720 LINE"
);
}
);
width = 746;
}
);
leftKerningGroup = LAT_H_UC;
leftMetricsKey = H;
rightKerningGroup = LAT_H_UC;
rightMetricsKey = H;
unicode = 004E;
},
{
glyphname = O;
lastChange = "2020-06-09 12:11:02 +0000";
layers = (
{
anchors = (
{
name = bottom;
position = "{336, 0}";
},
{
name = center;
position = "{418, 358}";
},
{
name = horn;
position = "{648, 688}";
},
{
name = ogonek;
position = "{336, 0}";
},
{
name = top;
position = "{500, 720}";
},
{
name = topleft;
position = "{144, 720}";
},
{
name = topright;
position = "{858, 720}";
}
);
layerId = "AB099EFE-E788-4EFC-8633-CF147CB782A6";
paths = (
{
closed = 1;
nodes = (
"548 -8 OFFCURVE",
"708 152 OFFCURVE",
"752 354 CURVE SMOOTH",
"800 572 OFFCURVE",
"684 728 OFFCURVE",
"492 728 CURVE SMOOTH",
"292 728 OFFCURVE",
"126 560 OFFCURVE",
"84 362 CURVE SMOOTH",
"38 148 OFFCURVE",
"152 -8 OFFCURVE",
"348 -8 CURVE SMOOTH"
);
},
{
closed = 1;
nodes = (
"166 22 OFFCURVE",
"72 172 OFFCURVE",
"114 358 CURVE SMOOTH",
"154 540 OFFCURVE",
"310 698 OFFCURVE",
"492 698 CURVE SMOOTH",
"664 698 OFFCURVE",
"768 558 OFFCURVE",
"722 358 CURVE SMOOTH",
"682 178 OFFCURVE",
"536 22 OFFCURVE",
"350 22 CURVE SMOOTH"
);
}
);
width = 790;
},
{
anchors = (
{
name = bottom;
position = "{340, 0}";
},
{
name = center;
position = "{422, 360}";
},
{
name = horn;
position = "{656, 696}";
},
{
name = ogonek;
position = "{342, 0}";
},
{
name = top;
position = "{504, 720}";
},
{
name = topleft;
position = "{112, 720}";
},
{
name = topright;
position = "{894, 720}";
}
);
background = {
paths = (
{
closed = 1;
nodes = (
"290 156 OFFCURVE",
"204 228 OFFCURVE",
"226 348 CURVE SMOOTH",
"248 466 OFFCURVE",
"352 562 OFFCURVE",
"462 562 CURVE SMOOTH",
"558 562 OFFCURVE",
"636 486 OFFCURVE",
"616 374 CURVE SMOOTH",
"598 268 OFFCURVE",
"498 156 OFFCURVE",
"382 156 CURVE SMOOTH"
);
},
{
closed = 1;
nodes = (
"597 -10 OFFCURVE",
"796 186 OFFCURVE",
"797 407 CURVE SMOOTH",
"797 588 OFFCURVE",
"653 728 OFFCURVE",
"462 728 CURVE SMOOTH",
"265 728 OFFCURVE",
"87 573 OFFCURVE",
"51 378 CURVE SMOOTH",
"12 166 OFFCURVE",
"166 -10 OFFCURVE",
"382 -10 CURVE SMOOTH"
);
}
);
};
layerId = "2D8F7115-C311-411E-929D-56333CF7FFB2";
paths = (
{
closed = 1;
nodes = (
"589 -8 OFFCURVE",
"746 156 OFFCURVE",
"790 350 CURVE SMOOTH",
"836 552 OFFCURVE",
"689 728 OFFCURVE",
"472 728 CURVE SMOOTH",
"247 728 OFFCURVE",
"85 554 OFFCURVE",
"52 368 CURVE SMOOTH",
"8 170 OFFCURVE",
"151 -8 OFFCURVE",
"370 -8 CURVE SMOOTH"
);
},
{
closed = 1;
nodes = (
"283 156 OFFCURVE",
"202 232 OFFCURVE",
"226 348 CURVE SMOOTH",
"252 470 OFFCURVE",
"359 564 OFFCURVE",
"462 564 CURVE SMOOTH",
"567 564 OFFCURVE",
"638 482 OFFCURVE",
"616 374 CURVE SMOOTH",
"592 258 OFFCURVE",
"489 156 OFFCURVE",
"382 156 CURVE SMOOTH"
);
}
);
width = 798;
},
{
anchors = (
{
name = bottom;
position = "{338, 0}";
},
{
name = center;
position = "{420, 359}";
},
{
name = horn;
position = "{652, 692}";
},
{
name = ogonek;
position = "{339, 0}";
},
{
name = top;
position = "{502, 720}";
},
{
name = topleft;
position = "{128, 720}";
},
{
name = topright;
position = "{876, 720}";
}
);
associatedMasterId = "AB099EFE-E788-4EFC-8633-CF147CB782A6";
layerId = "57EC84BE-8EB9-4FB6-8557-76103B1D2DBA";
name = "Half {450}";
paths = (
{
closed = 1;
nodes = (
"566 -8 OFFCURVE",
"734 160 OFFCURVE",
"772 350 CURVE SMOOTH",
"814 554 OFFCURVE",
"694 728 OFFCURVE",
"484 728 CURVE SMOOTH",
"274 728 OFFCURVE",
"106 554 OFFCURVE",
"68 366 CURVE SMOOTH",
"26 160 OFFCURVE",
"154 -8 OFFCURVE",
"360 -8 CURVE SMOOTH"
);
},
{
closed = 1;
nodes = (
"210 90 OFFCURVE",
"140 216 OFFCURVE",
"172 358 CURVE SMOOTH",
"206 506 OFFCURVE",
"336 632 OFFCURVE",
"478 632 CURVE SMOOTH",
"612 632 OFFCURVE",
"704 520 OFFCURVE",
"668 360 CURVE SMOOTH",
"634 208 OFFCURVE",
"504 90 OFFCURVE",
"360 90 CURVE SMOOTH"
);
}
);
width = 796;
}
);
leftKerningGroup = LAT_O_UC;
rightKerningGroup = LAT_O_UC;
unicode = 004F;
},
{
glyphname = OE;
lastChange = "2020-06-08 07:50:20 +0000";
layers = (
{
anchors = (
{
name = bottom;
position = "{518, 0}";
},
{
name = top;
position = "{682, 720}";
}
);
background = {
components = (
{
name = E;
transform = "{1, 0, 0, 1, 586, 0}";
}
);
};
layerId = "AB099EFE-E788-4EFC-8633-CF147CB782A6";
paths = (
{
closed = 1;
nodes = (
"472 -8 OFFCURVE",
"612 76 OFFCURVE",
"684 220 CURVE",
"670 222 LINE",
"620 0 LINE",
"988 0 LINE",
"994 30 LINE",
"658 30 LINE",
"732 354 LINE",
"1022 354 LINE",
"1030 384 LINE",
"740 384 LINE",
"808 690 LINE",
"1144 690 LINE",
"1152 720 LINE",
"784 720 LINE",
"734 498 LINE",
"746 496 LINE",
"740 640 OFFCURVE",
"636 728 OFFCURVE",
"496 728 CURVE SMOOTH",
"310 728 OFFCURVE",
"132 574 OFFCURVE",
"84 362 CURVE SMOOTH",
"36 152 OFFCURVE",
"146 -8 OFFCURVE",
"334 -8 CURVE SMOOTH"
);
},
{
closed = 1;
nodes = (
"166 20 OFFCURVE",
"72 168 OFFCURVE",
"114 356 CURVE SMOOTH",
"162 566 OFFCURVE",
"334 698 OFFCURVE",
"498 698 CURVE SMOOTH",
"676 698 OFFCURVE",
"750 552 OFFCURVE",
"706 358 CURVE SMOOTH",
"666 176 OFFCURVE",
"520 20 OFFCURVE",
"338 20 CURVE SMOOTH"
);
}
);
width = 1114;
},
{
anchors = (
{
name = bottom;
position = "{460, 0}";
},
{
name = top;
position = "{624, 720}";
}
);
background = {
anchors = (
{
name = bottom;
position = "{518, 0}";
},
{
name = top;
position = "{518, 720}";
}
);
components = (
{
name = E;
transform = "{1, 0, 0, 1, 486, 0}";
}
);
paths = (
{
closed = 1;
nodes = (
"536 0 LINE",
"536 156 LINE",
"438 156 LINE SMOOTH",
"339 156 OFFCURVE",
"267 243 OFFCURVE",
"268 358 CURVE SMOOTH",
"267 471 OFFCURVE",
"337 564 OFFCURVE",
"438 564 CURVE SMOOTH",
"536 564 LINE",
"536 720 LINE",
"444 720 LINE SMOOTH",
"249 720 OFFCURVE",
"90 555 OFFCURVE",
"90 358 CURVE SMOOTH",
"90 158 OFFCURVE",
"238 0 OFFCURVE",
"444 0 CURVE SMOOTH"
);
}
);
};
layerId = "2D8F7115-C311-411E-929D-56333CF7FFB2";
paths = (
{
closed = 1;
nodes = (
"444 -8 OFFCURVE",
"540 42 OFFCURVE",
"610 142 CURVE",
"544 150 LINE",
"510 0 LINE",
"912 0 LINE",
"950 160 LINE",
"708 160 LINE",
"734 286 LINE",
"936 286 LINE",
"972 438 LINE",
"770 438 LINE",
"798 560 LINE",
"1040 560 LINE",
"1076 720 LINE",
"674 720 LINE",
"642 570 LINE",
"704 562 LINE",
"678 664 OFFCURVE",
"620 732 OFFCURVE",
"482 732 CURVE SMOOTH",
"302 732 OFFCURVE",
"102 586 OFFCURVE",
"54 374 CURVE SMOOTH",
"6 158 OFFCURVE",
"136 -8 OFFCURVE",
"330 -8 CURVE SMOOTH"
);
},
{
closed = 1;
nodes = (
"258 144 OFFCURVE",
"200 228 OFFCURVE",
"226 344 CURVE SMOOTH",
"256 476 OFFCURVE",
"366 576 OFFCURVE",
"476 576 CURVE SMOOTH",
"584 576 OFFCURVE",
"638 492 OFFCURVE",
"612 372 CURVE SMOOTH",
"584 244 OFFCURVE",
"472 144 OFFCURVE",
"360 144 CURVE SMOOTH"
);
}
);
width = 1024;
}
);
leftKerningGroup = LAT_O_UC;
leftMetricsKey = O;
rightKerningGroup = LAT_E_UC;
rightMetricsKey = E;
unicode = 0152;
},
{
glyphname = P;
lastChange = "2020-06-09 05:56:23 +0000";
layers = (
{
anchors = (
{
name = bottom;
position = "{68, 0}";
},
{
name = top;
position = "{412, 720}";
}
);
layerId = "AB099EFE-E788-4EFC-8633-CF147CB782A6";
paths = (
{
closed = 1;
nodes = (
"220 690 LINE",
"402 690 LINE SMOOTH",
"498 690 OFFCURVE",
"570 640 OFFCURVE",
"546 526 CURVE SMOOTH",
"526 434 OFFCURVE",
"452 354 OFFCURVE",
"348 354 CURVE SMOOTH",
"144 354 LINE",
"138 324 LINE",
"340 324 LINE SMOOTH",
"460 324 OFFCURVE",
"552 408 OFFCURVE",
"576 520 CURVE SMOOTH",
"604 652 OFFCURVE",
"520 720 OFFCURVE",
"404 720 CURVE SMOOTH",
"228 720 LINE"
);
},
{
closed = 1;
nodes = (
"238 720 LINE",
"206 720 LINE",
"42 0 LINE",
"74 0 LINE"
);
}
);
width = 570;
},
{
anchors = (
{
name = bottom;
position = "{114, 0}";
},
{
name = top;
position = "{436, 720}";
}
);
layerId = "2D8F7115-C311-411E-929D-56333CF7FFB2";
paths = (
{
closed = 1;
nodes = (
"284 560 LINE",
"404 560 LINE SMOOTH",
"456 560 OFFCURVE",
"490 534 OFFCURVE",
"480 478 CURVE SMOOTH",
"470 420 OFFCURVE",
"422 378 OFFCURVE",
"370 378 CURVE SMOOTH",
"242 378 LINE",
"206 220 LINE",
"352 220 LINE SMOOTH",
"518 220 OFFCURVE",
"622 326 OFFCURVE",
"650 458 CURVE SMOOTH",
"682 616 OFFCURVE",
"586 720 OFFCURVE",
"416 720 CURVE SMOOTH",
"320 720 LINE"
);
},
{
closed = 1;
nodes = (
"356 720 LINE",
"176 720 LINE",
"12 0 LINE",
"192 0 LINE"
);
}
);
width = 640;
}
);
leftKerningGroup = LAT_H_UC;
leftMetricsKey = H;
rightKerningGroup = LAT_P_UC;
unicode = 0050;
},
{
glyphname = Thorn;
lastChange = "2020-06-09 05:21:36 +0000";
layers = (
{
layerId = "AB099EFE-E788-4EFC-8633-CF147CB782A6";
paths = (
{
closed = 1;
nodes = (
"74 0 LINE",
"238 720 LINE",
"206 720 LINE",
"42 0 LINE"
);
},
{
closed = 1;
nodes = (
"306 160 LINE SMOOTH",
"426 160 OFFCURVE",
"518 244 OFFCURVE",
"542 356 CURVE SMOOTH",
"570 488 OFFCURVE",
"486 556 OFFCURVE",
"370 556 CURVE SMOOTH",
"194 556 LINE",
"186 526 LINE",
"368 526 LINE SMOOTH",
"464 526 OFFCURVE",
"536 476 OFFCURVE",
"512 362 CURVE SMOOTH",
"492 270 OFFCURVE",
"418 190 OFFCURVE",
"314 190 CURVE SMOOTH",
"110 190 LINE",
"104 160 LINE"
);
}
);
width = 574;
},
{
layerId = "2D8F7115-C311-411E-929D-56333CF7FFB2";
paths = (
{
closed = 1;
nodes = (
"188 0 LINE",
"352 720 LINE",
"176 720 LINE",
"12 0 LINE"
);
},
{
closed = 1;
nodes = (
"322 112 LINE SMOOTH",
"488 112 OFFCURVE",
"592 218 OFFCURVE",
"620 350 CURVE SMOOTH",
"654 502 OFFCURVE",
"570 612 OFFCURVE",
"394 612 CURVE SMOOTH",
"290 612 LINE",
"254 452 LINE",
"358 452 LINE SMOOTH",
"422 452 OFFCURVE",
"458 424 OFFCURVE",
"450 370 CURVE SMOOTH",
"442 322 OFFCURVE",
"402 270 OFFCURVE",
"340 270 CURVE SMOOTH",
"212 270 LINE",
"176 112 LINE"
);
}
);
width = 640;
}
);
leftKerningGroup = LAT_H_UC;
leftMetricsKey = H;
rightKerningGroup = LAT_P_SC;
unicode = 00DE;
},
{
glyphname = Q;
lastChange = "2020-06-09 02:41:51 +0000";
layers = (
{
anchors = (
{
name = bottom;
position = "{330, 0}";
},
{
name = top;
position = "{488, 720}";
}
);
components = (
{
name = O;
}
);
layerId = "AB099EFE-E788-4EFC-8633-CF147CB782A6";
paths = (
{
closed = 1;
nodes = (
"592 0 LINE",
"554 76 LINE",
"550 84 LINE",
"468 268 LINE",
"434 268 LINE",
"524 66 LINE",
"528 58 LINE",
"556 0 LINE"
);
}
);
width = 798;
},
{
anchors = (
{
name = bottom;
position = "{324, 0}";
},
{
name = top;
position = "{496, 720}";
}
);
components = (
{
name = O;
}
);
layerId = "2D8F7115-C311-411E-929D-56333CF7FFB2";
paths = (
{
closed = 1;
nodes = (
"736 0 LINE",
"638 146 LINE",
"558 220 LINE",
"506 308 LINE",
"316 308 LINE",
"424 156 LINE",
"494 98 LINE",
"560 0 LINE"
);
}
);
width = 820;
},
{
anchors = (
{
name = bottom;
position = "{400, 0}";
},
{
name = top;
position = "{402, 720}";
}
);
associatedMasterId = "AB099EFE-E788-4EFC-8633-CF147CB782A6";
components = (
{
alignment = -1;
name = O;
}
);
guideLines = (
{
angle = 120;
position = "{616, 0}";
}
);
layerId = "5F397B99-8889-4A27-BB1C-6FD1F8D7B180";
name = "Half {450}";
paths = (
{
closed = 1;
nodes = (
"698 0 LINE",
"636 118 LINE",
"604 160 LINE",
"532 298 LINE",
"422 298 LINE",
"520 116 LINE",
"550 82 LINE",
"590 0 LINE"
);
}
);
width = 812;
}
);
leftKerningGroup = LAT_O_UC;
leftMetricsKey = O;
rightKerningGroup = LAT_Q_UC;
rightMetricsKey = "=O+8";
unicode = 0051;
},
{
glyphname = R;
lastChange = "2020-06-09 12:13:07 +0000";
layers = (
{
anchors = (
{
name = bottom;
position = "{252, 0}";
},
{
name = top;
position = "{400, 720}";
}
);
guideLines = (
{
angle = 120;
position = "{428, 0}";
},
{
angle = 67.5;
position = "{16, 2}";
}
);
layerId = "AB099EFE-E788-4EFC-8633-CF147CB782A6";
paths = (
{
closed = 1;
nodes = (
"214 690 LINE",
"390 692 LINE SMOOTH",
"496 694 OFFCURVE",
"562 628 OFFCURVE",
"540 526 CURVE SMOOTH",
"520 434 OFFCURVE",
"440 358 OFFCURVE",
"330 356 CURVE SMOOTH",
"138 354 LINE",
"132 324 LINE",
"334 326 LINE SMOOTH",
"452 328 OFFCURVE",
"550 414 OFFCURVE",
"572 526 CURVE SMOOTH",
"596 652 OFFCURVE",
"504 724 OFFCURVE",
"396 722 CURVE SMOOTH",
"222 720 LINE"
);
},
{
closed = 1;
nodes = (
"238 720 LINE",
"206 720 LINE",
"42 0 LINE",
"74 0 LINE"
);
},
{
closed = 1;
nodes = (
"330 328 LINE",
"440 0 LINE",
"472 0 LINE",
"356 350 LINE"
);
}
);
width = 598;
},
{
anchors = (
{
name = bottom;
position = "{286, 0}";
},
{
name = top;
position = "{440, 720}";
}
);
guideLines = (
{
angle = 120;
position = "{546, 0}";
}
);
layerId = "2D8F7115-C311-411E-929D-56333CF7FFB2";
paths = (
{
closed = 1;
nodes = (
"284 560 LINE",
"410 560 LINE SMOOTH",
"460 560 OFFCURVE",
"490 532 OFFCURVE",
"480 478 CURVE SMOOTH",
"470 422 OFFCURVE",
"420 382 OFFCURVE",
"366 382 CURVE SMOOTH",
"242 382 LINE",
"210 236 LINE",
"312 236 LINE SMOOTH",
"488 236 OFFCURVE",
"620 328 OFFCURVE",
"652 470 CURVE SMOOTH",
"684 616 OFFCURVE",
"590 720 OFFCURVE",
"422 720 CURVE SMOOTH",
"320 720 LINE"
);
},
{
closed = 1;
nodes = (
"356 720 LINE",
"176 720 LINE",
"12 0 LINE",
"192 0 LINE"
);
},
{
closed = 1;
nodes = (
"340 262 LINE",
"414 0 LINE",
"598 0 LINE",
"480 368 LINE"
);
}
);
width = 694;
}
);
leftKerningGroup = LAT_H_UC;
leftMetricsKey = H;
rightKerningGroup = LAT_R_UC;
unicode = 0052;
},
{
glyphname = S;
lastChange = "2020-06-09 05:28:36 +0000";
layers = (
{
anchors = (
{
name = bottom;
position = "{256, 0}";
},
{
name = top;
position = "{404, 720}";
}
);
background = {
paths = (
{
closed = 1;
nodes = (
"400 -8 OFFCURVE",
"530 96 OFFCURVE",
"558 222 CURVE SMOOTH",
"590 358 OFFCURVE",
"474 402 OFFCURVE",
"424 420 CURVE SMOOTH",
"379 436 OFFCURVE",
"286 456 OFFCURVE",
"298 514 CURVE SMOOTH",
"307 548 OFFCURVE",
"345 568 OFFCURVE",
"376 568 CURVE SMOOTH",
"415 568 OFFCURVE",
"438 534 OFFCURVE",
"442 506 CURVE",
"622 574 LINE",
"608 666 OFFCURVE",
"530 728 OFFCURVE",
"410 728 CURVE SMOOTH",
"274 728 OFFCURVE",
"150 650 OFFCURVE",
"120 518 CURVE SMOOTH",
"92 396 OFFCURVE",
"169 338 OFFCURVE",
"260 306 CURVE SMOOTH",
"313 286 OFFCURVE",
"390 272 OFFCURVE",
"378 216 CURVE SMOOTH",
"369 180 OFFCURVE",
"328 156 OFFCURVE",
"292 156 CURVE SMOOTH",
"238 156 OFFCURVE",
"210 202 OFFCURVE",
"204 246 CURVE",
"16 174 LINE",
"25 72 OFFCURVE",
"126 -8 OFFCURVE",
"252 -8 CURVE SMOOTH"
);
}
);
};
guideLines = (
{
angle = 22.5;
position = "{322, 288}";
}
);
layerId = "2D8F7115-C311-411E-929D-56333CF7FFB2";
paths = (
{
closed = 1;
nodes = (
"422 -8 OFFCURVE",
"526 90 OFFCURVE",
"552 202 CURVE SMOOTH",
"586 346 OFFCURVE",
"468 400 OFFCURVE",
"418 418 CURVE SMOOTH",
"368 436 OFFCURVE",
"290 458 OFFCURVE",
"300 508 CURVE SMOOTH",
"304 536 OFFCURVE",
"332 568 OFFCURVE",
"372 568 CURVE SMOOTH",
"412 568 OFFCURVE",
"436 538 OFFCURVE",
"440 510 CURVE",
"618 570 LINE",
"604 660 OFFCURVE",
"526 728 OFFCURVE",
"394 728 CURVE SMOOTH",
"260 728 OFFCURVE",
"154 664 OFFCURVE",
"124 540 CURVE SMOOTH",
"94 418 OFFCURVE",
"164 352 OFFCURVE",
"262 310 CURVE SMOOTH",
"314 288 OFFCURVE",
"382 268 OFFCURVE",
"374 220 CURVE SMOOTH",
"370 192 OFFCURVE",
"346 156 OFFCURVE",
"298 156 CURVE SMOOTH",
"246 156 OFFCURVE",
"208 198 OFFCURVE",
"202 242 CURVE",
"20 178 LINE",
"28 80 OFFCURVE",
"140 -8 OFFCURVE",
"278 -8 CURVE SMOOTH"
);
}
);
userData = {
RMXScaler = {
height = 137;
weight = 160;
width = 140;
};
};
width = 606;
},
{
anchors = (
{
name = bottom;
position = "{220, 0}";
},
{
name = top;
position = "{370, 720}";
}
);
background = {
paths = (
{
closed = 1;
nodes = (
"312 -8 OFFCURVE",
"427 64 OFFCURVE",
"452 178 CURVE SMOOTH",
"486 324 OFFCURVE",
"341 366 OFFCURVE",
"284 390 CURVE SMOOTH",
"221 416 OFFCURVE",
"151 462 OFFCURVE",
"172 556 CURVE SMOOTH",
"191 638 OFFCURVE",
"263 698 OFFCURVE",
"354 698 CURVE SMOOTH",
"443 698 OFFCURVE",
"479 644 OFFCURVE",
"490 602 CURVE",
"522 614 LINE",
"510 666 OFFCURVE",
"464 728 OFFCURVE",
"362 728 CURVE SMOOTH",
"258 728 OFFCURVE",
"165 662 OFFCURVE",
"140 556 CURVE SMOOTH",
"116 446 OFFCURVE",
"194 394 OFFCURVE",
"286 356 CURVE SMOOTH",
"347 330 OFFCURVE",
"446 290 OFFCURVE",
"420 178 CURVE SMOOTH",
"399 82 OFFCURVE",
"303 22 OFFCURVE",
"212 22 CURVE SMOOTH",
"133 22 OFFCURVE",
"70 68 OFFCURVE",
"58 142 CURVE",
"24 128 LINE",
"38 62 OFFCURVE",
"90 -8 OFFCURVE",
"202 -8 CURVE SMOOTH"
);
}
);
};
layerId = "AB099EFE-E788-4EFC-8633-CF147CB782A6";
paths = (
{
closed = 1;
nodes = (
"344 -8 OFFCURVE",
"430 72 OFFCURVE",
"452 176 CURVE SMOOTH",
"482 322 OFFCURVE",
"356 360 OFFCURVE",
"284 390 CURVE SMOOTH",
"216 418 OFFCURVE",
"152 460 OFFCURVE",
"174 556 CURVE SMOOTH",
"192 638 OFFCURVE",
"264 698 OFFCURVE",
"356 698 CURVE SMOOTH",
"444 698 OFFCURVE",
"480 644 OFFCURVE",
"490 602 CURVE",
"522 614 LINE",
"510 666 OFFCURVE",
"456 728 OFFCURVE",
"356 728 CURVE SMOOTH",
"252 728 OFFCURVE",
"166 664 OFFCURVE",
"142 558 CURVE SMOOTH",
"118 444 OFFCURVE",
"196 394 OFFCURVE",
"286 356 CURVE SMOOTH",
"348 330 OFFCURVE",
"446 294 OFFCURVE",
"420 182 CURVE SMOOTH",
"400 86 OFFCURVE",
"316 22 OFFCURVE",
"226 22 CURVE SMOOTH",
"144 22 OFFCURVE",
"72 76 OFFCURVE",
"62 146 CURVE",
"28 132 LINE",
"40 68 OFFCURVE",
"112 -8 OFFCURVE",
"224 -8 CURVE SMOOTH"
);
}
);
userData = {
RMXScaler = {
height = 139;
width = 140;
};
};
width = 536;
},
{
anchors = (
{
name = bottom;
position = "{226, 0}";
},
{
name = top;
position = "{388, 720}";
}
);
associatedMasterId = "AB099EFE-E788-4EFC-8633-CF147CB782A6";
background = {
paths = (
{
closed = 1;
nodes = (
"348 -8 OFFCURVE",
"471 74 OFFCURVE",
"500 200 CURVE SMOOTH",
"532 342 OFFCURVE",
"409 390 OFFCURVE",
"346 414 CURVE SMOOTH",
"295 434 OFFCURVE",
"223 462 OFFCURVE",
"240 540 CURVE SMOOTH",
"255 602 OFFCURVE",
"314 632 OFFCURVE",
"364 632 CURVE SMOOTH",
"424 632 OFFCURVE",
"458 588 OFFCURVE",
"466 556 CURVE",
"570 596 LINE",
"555 662 OFFCURVE",
"500 728 OFFCURVE",
"384 728 CURVE SMOOTH",
"264 728 OFFCURVE",
"162 652 OFFCURVE",
"136 540 CURVE SMOOTH",
"111 424 OFFCURVE",
"182 368 OFFCURVE",
"272 332 CURVE SMOOTH",
"316 314 OFFCURVE",
"415 286 OFFCURVE",
"396 198 CURVE SMOOTH",
"381 134 OFFCURVE",
"314 88 OFFCURVE",
"246 88 CURVE SMOOTH",
"176 88 OFFCURVE",
"138 142 OFFCURVE",
"132 196 CURVE",
"26 156 LINE",
"33 74 OFFCURVE",
"110 -8 OFFCURVE",
"230 -8 CURVE SMOOTH"
);
}
);
};
layerId = "86659515-6DAE-41E7-8983-96D73F096C54";
name = "Half {450}";
paths = (
{
closed = 1;
nodes = (
"372 -8 OFFCURVE",
"478 60 OFFCURVE",
"500 182 CURVE SMOOTH",
"528 332 OFFCURVE",
"398 390 OFFCURVE",
"342 414 CURVE SMOOTH",
"290 436 OFFCURVE",
"222 468 OFFCURVE",
"238 542 CURVE SMOOTH",
"248 588 OFFCURVE",
"292 632 OFFCURVE",
"354 632 CURVE SMOOTH",
"416 632 OFFCURVE",
"458 590 OFFCURVE",
"466 558 CURVE",
"568 594 LINE",
"550 670 OFFCURVE",
"470 728 OFFCURVE",
"362 728 CURVE SMOOTH",
"252 728 OFFCURVE",
"160 668 OFFCURVE",
"136 568 CURVE SMOOTH",
"102 430 OFFCURVE",
"222 360 OFFCURVE",
"282 332 CURVE SMOOTH",
"332 310 OFFCURVE",
"410 278 OFFCURVE",
"394 194 CURVE SMOOTH",
"384 136 OFFCURVE",
"332 88 OFFCURVE",
"266 88 CURVE SMOOTH",
"194 88 OFFCURVE",
"138 144 OFFCURVE",
"132 198 CURVE",
"26 162 LINE",
"36 76 OFFCURVE",
"130 -8 OFFCURVE",
"256 -8 CURVE SMOOTH"
);
}
);
userData = {
RMXScaler = {
height = 139;
width = 140;
};
};
width = 566;
}
);
leftKerningGroup = LAT_S_UC;
rightKerningGroup = LAT_S_UC;
unicode = 0053;
userData = {
RMXScaler = {
source = s;
};
};
},
{
glyphname = Germandbls;
lastChange = "2020-06-08 07:50:20 +0000";
layers = (
{
layerId = "AB099EFE-E788-4EFC-8633-CF147CB782A6";
paths = (
{
closed = 1;
nodes = (
"416 -8 OFFCURVE",
"542 90 OFFCURVE",
"570 214 CURVE SMOOTH",
"600 346 OFFCURVE",
"520 442 OFFCURVE",
"366 436 CURVE",
"378 420 LINE",
"556 690 LINE",
"556 698 LINE",
"504 720 OFFCURVE",
"442 728 OFFCURVE",
"390 728 CURVE SMOOTH",
"198 728 OFFCURVE",
"172 606 OFFCURVE",
"160 552 CURVE SMOOTH",
"34 0 LINE",
"66 0 LINE",
"190 550 LINE SMOOTH",
"202 606 OFFCURVE",
"228 698 OFFCURVE",
"402 698 CURVE SMOOTH",
"448 698 OFFCURVE",
"490 690 OFFCURVE",
"522 676 CURVE",
"522 692 LINE",
"348 422 LINE",
"344 408 LINE",
"364 408 LINE SMOOTH",
"492 408 OFFCURVE",
"566 340 OFFCURVE",
"540 224 CURVE SMOOTH",
"512 98 OFFCURVE",
"390 22 OFFCURVE",
"300 22 CURVE SMOOTH",
"266 22 OFFCURVE",
"228 30 OFFCURVE",
"194 38 CURVE",
"188 6 LINE",
"218 -2 OFFCURVE",
"262 -8 OFFCURVE",
"292 -8 CURVE SMOOTH"
);
}
);
width = 648;
},
{
layerId = "2D8F7115-C311-411E-929D-56333CF7FFB2";
paths = (
{
closed = 1;
nodes = (
"526 -8 OFFCURVE",
"644 72 OFFCURVE",
"674 200 CURVE SMOOTH",
"708 350 OFFCURVE",
"610 432 OFFCURVE",
"472 432 CURVE",
"554 346 LINE",
"724 654 LINE",
"722 668 LINE",
"674 698 OFFCURVE",
"570 728 OFFCURVE",
"462 728 CURVE SMOOTH",
"292 728 OFFCURVE",
"156 654 OFFCURVE",
"122 506 CURVE SMOOTH",
"8 0 LINE",
"184 0 LINE",
"290 468 LINE SMOOTH",
"296 498 OFFCURVE",
"334 572 OFFCURVE",
"450 572 CURVE SMOOTH",
"488 572 OFFCURVE",
"516 568 OFFCURVE",
"520 556 CURVE",
"514 594 LINE",
"372 332 LINE",
"368 304 LINE",
"424 304 LINE SMOOTH",
"492 304 OFFCURVE",
"518 276 OFFCURVE",
"508 232 CURVE SMOOTH",
"496 180 OFFCURVE",
"448 142 OFFCURVE",
"382 142 CURVE SMOOTH",
"374 142 OFFCURVE",
"350 142 OFFCURVE",
"322 148 CURVE",
"294 -6 LINE",
"314 -6 OFFCURVE",
"328 -8 OFFCURVE",
"358 -8 CURVE SMOOTH"
);
}
);
width = 718;
}
);
leftKerningGroup = LAT_GERMANDBLS_UC;
rightKerningGroup = LAT_GERMANDBLS_UC;
rightMetricsKey = B;
unicode = 1E9E;
},
{
glyphname = Schwa;
lastChange = "2020-06-08 07:50:20 +0000";
layers = (
{
anchors = (
{
name = bottom;
position = "{304, -24}";
},
{
name = top;
position = "{482, 750}";
}
);
layerId = "AB099EFE-E788-4EFC-8633-CF147CB782A6";
paths = (
{
closed = 1;
nodes = (
"486 -8 OFFCURVE",
"638 130 OFFCURVE",
"690 360 CURVE SMOOTH",
"742 592 OFFCURVE",
"648 728 OFFCURVE",
"468 728 CURVE SMOOTH",
"364 728 OFFCURVE",
"248 680 OFFCURVE",
"172 590 CURVE",
"200 572 LINE",
"274 658 OFFCURVE",
"380 698 OFFCURVE",
"472 698 CURVE SMOOTH",
"632 698 OFFCURVE",
"708 578 OFFCURVE",
"660 368 CURVE SMOOTH",
"608 146 OFFCURVE",
"464 22 OFFCURVE",
"310 22 CURVE SMOOTH",
"162 22 OFFCURVE",
"84 142 OFFCURVE",
"128 352 CURVE",
"668 354 LINE",
"676 384 LINE",
"104 384 LINE",
"100 364 LINE SMOOTH",
"58 150 OFFCURVE",
"124 -8 OFFCURVE",
"310 -8 CURVE SMOOTH"
);
}
);
width = 706;
},
{
anchors = (
{
name = bottom;
position = "{334, -24}";
},
{
name = top;
position = "{496, 740}";
}
);
layerId = "2D8F7115-C311-411E-929D-56333CF7FFB2";
paths = (
{
closed = 1;
nodes = (
"532 -8 OFFCURVE",
"700 134 OFFCURVE",
"746 338 CURVE SMOOTH",
"800 570 OFFCURVE",
"674 728 OFFCURVE",
"466 728 CURVE SMOOTH",
"344 728 OFFCURVE",
"216 670 OFFCURVE",
"134 566 CURVE",
"276 486 LINE",
"316 532 OFFCURVE",
"382 572 OFFCURVE",
"450 572 CURVE SMOOTH",
"550 572 OFFCURVE",
"604 496 OFFCURVE",
"576 370 CURVE SMOOTH",
"550 250 OFFCURVE",
"462 144 OFFCURVE",
"342 144 CURVE SMOOTH",
"260 144 OFFCURVE",
"194 194 OFFCURVE",
"210 264 CURVE",
"604 272 LINE",
"636 410 LINE",
"76 412 LINE",
"58 338 LINE SMOOTH",
"6 120 OFFCURVE",
"134 -8 OFFCURVE",
"324 -8 CURVE SMOOTH"
);
}
);
width = 754;
},
{
anchors = (
{
name = bottom;
position = "{326, -24}";
},
{
name = top;
position = "{496, 746}";
}
);
associatedMasterId = "AB099EFE-E788-4EFC-8633-CF147CB782A6";
layerId = "E88D8049-1054-478F-B246-304D48DB4790";
name = "Half {450}";
paths = (
{
closed = 1;
nodes = (
"492 -6 OFFCURVE",
"682 136 OFFCURVE",
"732 356 CURVE SMOOTH",
"780 570 OFFCURVE",
"664 730 OFFCURVE",
"464 730 CURVE SMOOTH",
"346 730 OFFCURVE",
"224 676 OFFCURVE",
"144 578 CURVE",
"228 532 LINE",
"280 594 OFFCURVE",
"368 638 OFFCURVE",
"450 638 CURVE SMOOTH",
"592 638 OFFCURVE",
"658 516 OFFCURVE",
"626 364 CURVE SMOOTH",
"588 192 OFFCURVE",
"450 86 OFFCURVE",
"320 82 CURVE SMOOTH",
"194 78 OFFCURVE",
"128 172 OFFCURVE",
"156 298 CURVE",
"630 300 LINE",
"650 390 LINE",
"78 390 LINE",
"62 318 LINE SMOOTH",
"18 132 OFFCURVE",
"114 -14 OFFCURVE",
"310 -10 CURVE SMOOTH"
);
}
);
width = 742;
}
);
leftKerningGroup = LAT_SCHWA_UC;
rightKerningGroup = LAT_O_UC;
unicode = 018F;
},
{
glyphname = T;
lastChange = "2020-06-08 13:38:35 +0000";
layers = (
{
anchors = (
{
name = bottom;
position = "{194, 0}";
},
{
name = cedilla;
position = "{194, 0}";
},
{
name = center;
position = "{276, 360}";
},
{
name = top;
position = "{358, 720}";
}
);
layerId = "AB099EFE-E788-4EFC-8633-CF147CB782A6";
paths = (
{
closed = 1;
nodes = (
"210 0 LINE",
"368 698 LINE",
"336 698 LINE",
"178 0 LINE"
);
},
{
closed = 1;
nodes = (
"564 690 LINE",
"572 720 LINE",
"142 720 LINE",
"134 690 LINE"
);
}
);
width = 502;
},
{
anchors = (
{
name = bottom;
position = "{222, 0}";
},
{
name = cedilla;
position = "{222, 0}";
},
{
name = center;
position = "{296, 328}";
},
{
name = top;
position = "{386, 720}";
}
);
layerId = "2D8F7115-C311-411E-929D-56333CF7FFB2";
paths = (
{
closed = 1;
nodes = (
"314 0 LINE",
"446 584 LINE",
"264 584 LINE",
"134 0 LINE"
);
},
{
closed = 1;
nodes = (
"602 560 LINE",
"640 720 LINE",
"132 720 LINE",
"96 560 LINE"
);
}
);
width = 564;
}
);
leftKerningGroup = LAT_T_UC;
rightKerningGroup = LAT_T_UC;
unicode = 0054;
},
{
glyphname = U;
lastChange = "2020-06-09 02:44:38 +0000";
layers = (
{
anchors = (
{
name = bottom;
position = "{274, 0}";
},
{
name = horn;
position = "{650, 720}";
},
{
name = ogonek;
position = "{274, 0}";
},
{
name = top;
position = "{438, 720}";
}
);
layerId = "AB099EFE-E788-4EFC-8633-CF147CB782A6";
paths = (
{
closed = 1;
nodes = (
"62 90 OFFCURVE",
"142 -8 OFFCURVE",
"290 -8 CURVE SMOOTH",
"426 -8 OFFCURVE",
"524 82 OFFCURVE",
"558 230 CURVE SMOOTH",
"670 720 LINE",
"638 720 LINE",
"528 242 LINE SMOOTH",
"496 102 OFFCURVE",
"402 22 OFFCURVE",
"286 22 CURVE SMOOTH",
"168 22 OFFCURVE",
"98 100 OFFCURVE",
"128 234 CURVE SMOOTH",
"238 720 LINE",
"206 720 LINE",
"94 230 LINE SMOOTH"
);
}
);
width = 664;
},
{
anchors = (
{
name = bottom;
position = "{300, 0}";
},
{
name = horn;
position = "{706, 720}";
},
{
name = ogonek;
position = "{300, 0}";
},
{
name = top;
position = "{462, 720}";
}
);
layerId = "2D8F7115-C311-411E-929D-56333CF7FFB2";
paths = (
{
closed = 1;
nodes = (
"40 116 OFFCURVE",
"146 -8 OFFCURVE",
"324 -8 CURVE SMOOTH",
"496 -8 OFFCURVE",
"610 96 OFFCURVE",
"650 274 CURVE SMOOTH",
"750 720 LINE",
"570 720 LINE",
"470 278 LINE SMOOTH",
"454 206 OFFCURVE",
"410 152 OFFCURVE",
"338 152 CURVE SMOOTH",
"278 152 OFFCURVE",
"236 188 OFFCURVE",
"252 262 CURVE SMOOTH",
"356 720 LINE",
"176 720 LINE",
"80 294 LINE SMOOTH"
);
}
);
width = 720;
}
);
leftKerningGroup = LAT_U_UC;
leftMetricsKey = H;
rightKerningGroup = LAT_U_UC;
rightMetricsKey = H;
unicode = 0055;
},
{
glyphname = V;
lastChange = "2020-06-09 12:11:40 +0000";
layers = (
{
anchors = (
{
name = bottom;
position = "{280, 0}";
},
{
name = top;
position = "{440, 720}";
}
);
layerId = "AB099EFE-E788-4EFC-8633-CF147CB782A6";
paths = (
{
closed = 1;
nodes = (
"292 0 LINE",
"746 720 LINE",
"708 720 LINE",
"442 294 LINE",
"288 44 LINE",
"284 44 LINE",
"242 294 LINE",
"170 720 LINE",
"138 720 LINE",
"264 0 LINE"
);
}
);
width = 672;
},
{
anchors = (
{
name = bottom;
position = "{310, 0}";
},
{
name = top;
position = "{472, 720}";
}
);
layerId = "2D8F7115-C311-411E-929D-56333CF7FFB2";
paths = (
{
closed = 1;
nodes = (
"388 0 LINE",
"836 720 LINE",
"630 720 LINE",
"466 438 LINE",
"360 242 LINE",
"356 242 LINE",
"332 438 LINE",
"296 720 LINE",
"108 720 LINE",
"236 0 LINE"
);
}
);
width = 736;
},
{
anchors = (
{
name = bottom;
position = "{294, 0}";
},
{
name = top;
position = "{454, 720}";
}
);
associatedMasterId = "AB099EFE-E788-4EFC-8633-CF147CB782A6";
layerId = "0D7ABE1B-ED2C-477C-ADA0-3A50A773B746";
name = "Half {450}";
paths = (
{
closed = 1;
nodes = (
"336 0 LINE",
"794 720 LINE",
"674 720 LINE",
"460 366 LINE",
"328 152 LINE",
"324 152 LINE",
"284 366 LINE",
"228 720 LINE",
"116 720 LINE",
"252 0 LINE"
);
}
);
width = 702;
}
);
leftKerningGroup = LAT_V_UC;
rightKerningGroup = LAT_V_UC;
unicode = 0056;
},
{
glyphname = W;
lastChange = "2020-06-08 07:50:20 +0000";
layers = (
{
background = {
anchors = (
{
name = bottom;
position = "{452, 0}";
},
{
name = top;
position = "{452, 720}";
}
);
paths = (
{
closed = 1;
nodes = (
"228 0 LINE",
"268 0 LINE",
"348 292 LINE",
"450 658 LINE",
"452 658 LINE",
"554 292 LINE",
"636 0 LINE",
"672 0 LINE",
"868 720 LINE",
"832 720 LINE",
"720 290 LINE",
"656 40 LINE",
"652 40 LINE",
"586 290 LINE",
"468 720 LINE",
"432 720 LINE",
"316 290 LINE",
"248 40 LINE",
"246 40 LINE",
"180 290 LINE",
"70 720 LINE",
"32 720 LINE"
);
}
);
};
components = (
{
name = W.001;
}
);
layerId = "AB099EFE-E788-4EFC-8633-CF147CB782A6";
width = 900;
},
{
background = {
anchors = (
{
name = bottom;
position = "{506, 0}";
},
{
name = top;
position = "{502, 720}";
}
);
paths = (
{
closed = 1;
nodes = (
"184 0 LINE",
"382 0 LINE",
"442 156 LINE",
"502 342 LINE",
"506 342 LINE",
"566 156 LINE",
"624 0 LINE",
"822 0 LINE",
"998 720 LINE",
"806 720 LINE",
"738 428 LINE",
"706 216 LINE",
"702 216 LINE",
"648 396 LINE",
"536 720 LINE",
"470 720 LINE",
"360 396 LINE",
"306 216 LINE",
"302 216 LINE",
"266 428 LINE",
"202 720 LINE",
"8 720 LINE"
);
}
);
};
components = (
{
name = W.001;
}
);
layerId = "2D8F7115-C311-411E-929D-56333CF7FFB2";
width = 1020;
},
{
associatedMasterId = "AB099EFE-E788-4EFC-8633-CF147CB782A6";
background = {
anchors = (
{
name = bottom;
position = "{474, 0}";
},
{
name = top;
position = "{472, 720}";
}
);
paths = (
{
closed = 1;
nodes = (
"206 0 LINE",
"320 0 LINE",
"388 210 LINE",
"472 466 LINE",
"474 466 LINE",
"560 210 LINE",
"626 0 LINE",
"740 0 LINE",
"924 720 LINE",
"814 720 LINE",
"726 350 LINE",
"676 146 LINE",
"672 146 LINE",
"612 344 LINE",
"498 720 LINE",
"448 720 LINE",
"338 344 LINE",
"274 146 LINE",
"272 146 LINE",
"222 350 LINE",
"136 720 LINE",
"22 720 LINE"
);
}
);
};
components = (
{
name = W.001;
}
);
layerId = "EFE37E7D-F637-41FE-8784-1086CBF7F997";
name = "Half {450}";
width = 944;
}
);
leftKerningGroup = LAT_W_UC;
rightKerningGroup = LAT_W_UC;
unicode = 0057;
},
{
color = 9;
glyphname = W.ss06;
lastChange = "2020-06-08 07:50:20 +0000";
layers = (
{
anchors = (
{
name = bottom;
position = "{388, -24}";
},
{
name = top;
position = "{562, 754}";
}
);
layerId = "AB099EFE-E788-4EFC-8633-CF147CB782A6";
paths = (
{
closed = 1;
nodes = (
"168 0 LINE",
"208 0 LINE",
"354 292 LINE",
"536 658 LINE",
"540 658 LINE",
"554 292 LINE",
"570 0 LINE",
"608 0 LINE",
"966 720 LINE",
"932 720 LINE",
"722 290 LINE",
"600 40 LINE",
"596 40 LINE",
"586 290 LINE",
"566 720 LINE",
"538 720 LINE",
"322 290 LINE",
"198 40 LINE",
"194 40 LINE",
"186 290 LINE",
"172 720 LINE",
"138 720 LINE"
);
}
);
width = 892;
},
{
anchors = (
{
name = bottom;
position = "{424, -24}";
},
{
name = top;
position = "{596, 744}";
}
);
layerId = "2D8F7115-C311-411E-929D-56333CF7FFB2";
paths = (
{
closed = 1;
nodes = (
"116 0 LINE",
"292 0 LINE",
"428 236 LINE",
"518 396 LINE",
"522 396 LINE",
"538 236 LINE",
"568 0 LINE",
"738 0 LINE",
"1066 720 LINE",
"880 720 LINE",
"762 432 LINE",
"692 240 LINE",
"686 240 LINE",
"672 396 LINE",
"640 720 LINE",
"538 720 LINE",
"360 398 LINE",
"278 240 LINE",
"274 240 LINE",
"284 432 LINE",
"300 720 LINE",
"116 720 LINE"
);
}
);
width = 974;
},
{
anchors = (
{
name = bottom;
position = "{412, 0}";
},
{
name = top;
position = "{576, 720}";
}
);
associatedMasterId = "AB099EFE-E788-4EFC-8633-CF147CB782A6";
background = {
paths = (
{
closed = 1;
nodes = (
"198 0 LINE",
"328 0 LINE",
"400 262 LINE",
"470 536 LINE",
"474 536 LINE",
"544 262 LINE",
"616 0 LINE",
"746 0 LINE",
"924 720 LINE",
"808 720 LINE",
"724 352 LINE",
"674 132 LINE",
"672 132 LINE",
"620 344 LINE",
"520 720 LINE",
"424 720 LINE",
"324 346 LINE",
"274 132 LINE",
"270 132 LINE",
"220 352 LINE",
"138 720 LINE",
"20 720 LINE"
);
}
);
};
layerId = "4EB0F398-00BB-4F07-8BB1-D388A8938904";
name = "Half {450}";
paths = (
{
closed = 1;
nodes = (
"166 0 LINE",
"262 0 LINE",
"376 214 LINE",
"524 494 LINE",
"528 494 LINE",
"550 214 LINE",
"566 0 LINE",
"664 0 LINE",
"1028 720 LINE",
"922 720 LINE",
"740 350 LINE",
"654 164 LINE",
"650 164 LINE",
"634 364 LINE",
"606 720 LINE",
"548 720 LINE",
"354 364 LINE",
"252 164 LINE",
"248 164 LINE",
"246 350 LINE",
"232 720 LINE",
"124 720 LINE"
);
}
);
width = 946;
}
);
leftKerningGroup = LAT_W_UC;
rightKerningGroup = LAT_W_UC;
},
{
glyphname = X;
lastChange = "2020-06-09 05:58:55 +0000";
layers = (
{
anchors = (
{
name = bottom;
position = "{248, 0}";
},
{
name = top;
position = "{412, 720}";
}
);
layerId = "AB099EFE-E788-4EFC-8633-CF147CB782A6";
paths = (
{
closed = 1;
nodes = (
"30 0 LINE",
"330 336 LINE",
"334 336 LINE",
"354 356 LINE",
"354 360 LINE",
"672 720 LINE",
"634 720 LINE",
"336 384 LINE",
"332 384 LINE",
"314 364 LINE",
"314 360 LINE",
"-10 0 LINE"
);
},
{
closed = 1;
nodes = (
"508 0 LINE",
"354 358 LINE",
"354 362 LINE",
"338 384 LINE",
"334 384 LINE",
"186 720 LINE",
"154 720 LINE",
"314 362 LINE",
"314 358 LINE",
"328 336 LINE",
"332 336 LINE",
"474 0 LINE"
);
}
);
width = 614;
},
{
anchors = (
{
name = bottom;
position = "{320, 0}";
},
{
name = top;
position = "{484, 720}";
}
);
layerId = "2D8F7115-C311-411E-929D-56333CF7FFB2";
paths = (
{
closed = 1;
nodes = (
"196 0 LINE",
"380 224 LINE",
"382 224 LINE",
"522 346 LINE",
"522 348 LINE",
"832 720 LINE",
"610 720 LINE",
"424 478 LINE",
"420 478 LINE",
"282 372 LINE",
"282 370 LINE",
"-34 0 LINE"
);
},
{
closed = 1;
nodes = (
"668 0 LINE",
"522 344 LINE",
"522 346 LINE",
"426 478 LINE",
"422 478 LINE",
"336 720 LINE",
"142 720 LINE",
"282 374 LINE",
"282 372 LINE",
"378 224 LINE",
"382 224 LINE",
"474 0 LINE"
);
}
);
width = 758;
}
);
leftKerningGroup = LAT_X_UC;
rightKerningGroup = LAT_X_UC;
unicode = 0058;
},
{
glyphname = Y;
lastChange = "2020-06-09 04:46:01 +0000";
layers = (
{
anchors = (
{
name = bottom;
position = "{234, 0}";
},
{
name = top;
position = "{396, 720}";
}
);
layerId = "AB099EFE-E788-4EFC-8633-CF147CB782A6";
paths = (
{
closed = 1;
nodes = (
"218 0 LINE",
"250 0 LINE",
"324 328 LINE",
"658 720 LINE",
"618 720 LINE",
"440 510 LINE",
"318 366 LINE",
"314 366 LINE",
"252 510 LINE",
"166 720 LINE",
"134 720 LINE",
"294 332 LINE"
);
}
);
width = 584;
},
{
anchors = (
{
name = bottom;
position = "{276, 0}";
},
{
name = top;
position = "{426, 720}";
}
);
layerId = "2D8F7115-C311-411E-929D-56333CF7FFB2";
paths = (
{
closed = 1;
nodes = (
"186 0 LINE",
"366 0 LINE",
"426 258 LINE",
"772 720 LINE",
"548 720 LINE",
"464 586 LINE",
"372 442 LINE",
"366 442 LINE",
"332 586 LINE",
"296 720 LINE",
"108 720 LINE",
"248 270 LINE"
);
}
);
width = 672;
}
);
leftKerningGroup = LAT_Y_UC;
rightKerningGroup = LAT_Y_UC;
unicode = 0059;
},
{
glyphname = Z;
lastChange = "2020-06-09 02:51:24 +0000";
layers = (
{
anchors = (
{
name = bottom;
position = "{256, 0}";
},
{
name = top;
position = "{416, 720}";
}
);
guideLines = (
{
angle = 58;
position = "{128, 112}";
}
);
layerId = "AB099EFE-E788-4EFC-8633-CF147CB782A6";
paths = (
{
closed = 1;
nodes = (
"10 0 LINE",
"472 0 LINE",
"478 30 LINE",
"62 30 LINE",
"64 32 LINE",
"618 702 LINE",
"622 720 LINE",
"190 720 LINE",
"182 690 LINE",
"566 690 LINE",
"566 688 LINE",
"14 18 LINE"
);
}
);
width = 598;
},
{
anchors = (
{
name = bottom;
position = "{250, 0}";
},
{
name = top;
position = "{414, 720}";
}
);
guideLines = (
{
angle = 63;
position = "{124, 112}";
}
);
layerId = "2D8F7115-C311-411E-929D-56333CF7FFB2";
paths = (
{
closed = 1;
nodes = (
"-20 0 LINE",
"524 0 LINE",
"560 158 LINE",
"282 158 LINE",
"284 160 LINE",
"670 694 LINE",
"676 720 LINE",
"148 720 LINE",
"110 562 LINE",
"372 562 LINE",
"370 560 LINE",
"-16 24 LINE"
);
}
);
width = 620;
}
);
leftKerningGroup = LAT_Z_UC;
rightKerningGroup = LAT_Z_UC;
unicode = 005A;
},
{
export = 0;
glyphname = C.001;
lastChange = "2020-06-02 06:37:47 +0000";
layers = (
{
anchors = (
{
name = base;
position = "{364, 0}";
},
{
name = bottom;
position = "{344, 0}";
},
{
name = cedilla;
position = "{344, 0}";
},
{
name = top;
position = "{508, 720}";
}
);
layerId = "AB099EFE-E788-4EFC-8633-CF147CB782A6";
paths = (
{
closed = 1;
nodes = (
"616 146 LINE",
"566 79 OFFCURVE",
"457 22 OFFCURVE",
"346 20 CURVE SMOOTH",
"180 22 OFFCURVE",
"70 163 OFFCURVE",
"114 358 CURVE SMOOTH",
"160 559 OFFCURVE",
"347 700 OFFCURVE",
"508 698 CURVE SMOOTH",
"607 700 OFFCURVE",
"695 649 OFFCURVE",
"720 574 CURVE",
"750 586 LINE",
"726 661 OFFCURVE",
"631 728 OFFCURVE",
"510 728 CURVE SMOOTH",
"329 728 OFFCURVE",
"132 577 OFFCURVE",
"84 362 CURVE SMOOTH",
"35 149 OFFCURVE",
"158 -8 OFFCURVE",
"344 -8 CURVE SMOOTH",
"450 -8 OFFCURVE",
"571 43 OFFCURVE",
"640 122 CURVE"
);
}
);
width = 720;
},
{
anchors = (
{
name = base;
position = "{356, 0}";
},
{
name = bottom;
position = "{348, 0}";
},
{
name = cedilla;
position = "{360, 0}";
},
{
name = top;
position = "{510, 720}";
}
);
layerId = "2D8F7115-C311-411E-929D-56333CF7FFB2";
paths = (
{
closed = 1;
nodes = (
"562 244 LINE",
"530 198 OFFCURVE",
"450 144 OFFCURVE",
"372 144 CURVE SMOOTH",
"262 144 OFFCURVE",
"200 230 OFFCURVE",
"226 346 CURVE SMOOTH",
"256 476 OFFCURVE",
"370 576 OFFCURVE",
"488 576 CURVE SMOOTH",
"552 576 OFFCURVE",
"610 544 OFFCURVE",
"620 496 CURVE",
"786 554 LINE",
"760 656 OFFCURVE",
"636 732 OFFCURVE",
"504 732 CURVE SMOOTH",
"294 732 OFFCURVE",
"102 580 OFFCURVE",
"54 376 CURVE SMOOTH",
"6 156 OFFCURVE",
"136 -8 OFFCURVE",
"354 -8 CURVE SMOOTH",
"492 -8 OFFCURVE",
"644 58 OFFCURVE",
"714 166 CURVE"
);
}
);
width = 742;
},
{
anchors = (
{
name = base;
position = "{350, 0}";
},
{
name = bottom;
position = "{340, 0}";
},
{
name = cedilla;
position = "{342, 0}";
},
{
name = top;
position = "{504, 720}";
}
);
associatedMasterId = "AB099EFE-E788-4EFC-8633-CF147CB782A6";
layerId = "0C70BBED-6CBF-4E45-B429-2F50D50C94E8";
name = "Half {450}";
paths = (
{
closed = 1;
nodes = (
"580 194 LINE",
"522 122 OFFCURVE",
"442 82 OFFCURVE",
"356 82 CURVE SMOOTH",
"220 82 OFFCURVE",
"130 194 OFFCURVE",
"168 358 CURVE SMOOTH",
"206 520 OFFCURVE",
"342 636 OFFCURVE",
"486 638 CURVE SMOOTH",
"572 638 OFFCURVE",
"634 596 OFFCURVE",
"658 530 CURVE",
"756 574 LINE",
"720 672 OFFCURVE",
"628 730 OFFCURVE",
"504 730 CURVE SMOOTH",
"302 730 OFFCURVE",
"112 580 OFFCURVE",
"64 362 CURVE SMOOTH",
"12 140 OFFCURVE",
"144 -8 OFFCURVE",
"344 -8 CURVE SMOOTH",
"472 -8 OFFCURVE",
"588 52 OFFCURVE",
"664 148 CURVE"
);
}
);
width = 722;
}
);
leftKerningGroup = LAT_O_UC;
leftMetricsKey = O;
rightKerningGroup = LAT_C_UC;
},
{
export = 0;
glyphname = C.002;
lastChange = "2020-06-02 06:37:47 +0000";
layers = (
{
anchors = (
{
name = base;
position = "{364, 0}";
},
{
name = bottom;
position = "{344, 0}";
},
{
name = cedilla;
position = "{344, 0}";
},
{
name = top;
position = "{508, 720}";
}
);
background = {
paths = (
{
closed = 1;
nodes = (
"640 144 LINE",
"603 78 OFFCURVE",
"507 21 OFFCURVE",
"400 20 CURVE SMOOTH",
"231 21 OFFCURVE",
"87 164 OFFCURVE",
"88 360 CURVE SMOOTH",
"87 559 OFFCURVE",
"241 699 OFFCURVE",
"402 698 CURVE SMOOTH",
"500 699 OFFCURVE",
"601 647 OFFCURVE",
"644 572 CURVE",
"672 588 LINE",
"630 662 OFFCURVE",
"521 728 OFFCURVE",
"402 728 CURVE SMOOTH",
"219 728 OFFCURVE",
"54 576 OFFCURVE",
"56 360 CURVE SMOOTH",
"54 148 OFFCURVE",
"213 -8 OFFCURVE",
"398 -8 CURVE SMOOTH",
"505 -8 OFFCURVE",
"614 43 OFFCURVE",
"666 124 CURVE"
);
}
);
};
layerId = "AB099EFE-E788-4EFC-8633-CF147CB782A6";
paths = (
{
closed = 1;
nodes = (
"430 -8 OFFCURVE",
"527 25 OFFCURVE",
"596 80 CURVE",
"580 110 LINE",
"525 59 OFFCURVE",
"437 24 OFFCURVE",
"348 22 CURVE SMOOTH",
"181 24 OFFCURVE",
"70 163 OFFCURVE",
"114 358 CURVE SMOOTH",
"160 559 OFFCURVE",
"347 700 OFFCURVE",
"508 698 CURVE SMOOTH",
"585 700 OFFCURVE",
"658 669 OFFCURVE",
"696 618 CURVE",
"720 642 LINE",
"677 691 OFFCURVE",
"601 728 OFFCURVE",
"510 728 CURVE SMOOTH",
"329 728 OFFCURVE",
"132 577 OFFCURVE",
"84 362 CURVE SMOOTH",
"35 149 OFFCURVE",
"158 -8 OFFCURVE",
"344 -8 CURVE SMOOTH"
);
}
);
width = 680;
},
{
anchors = (
{
name = base;
position = "{356, 0}";
},
{
name = bottom;
position = "{348, 0}";
},
{
name = cedilla;
position = "{360, 0}";
},
{
name = top;
position = "{510, 720}";
}
);
background = {
paths = (
{
closed = 1;
nodes = (
"570 236 LINE",
"547 189 OFFCURVE",
"481 144 OFFCURVE",
"408 144 CURVE SMOOTH",
"294 144 OFFCURVE",
"207 238 OFFCURVE",
"208 362 CURVE SMOOTH",
"207 483 OFFCURVE",
"294 576 OFFCURVE",
"408 576 CURVE SMOOTH",
"475 576 OFFCURVE",
"543 539 OFFCURVE",
"566 488 CURVE",
"722 562 LINE",
"672 664 OFFCURVE",
"534 732 OFFCURVE",
"406 732 CURVE SMOOTH",
"191 732 OFFCURVE",
"29 571 OFFCURVE",
"28 360 CURVE SMOOTH",
"29 148 OFFCURVE",
"193 -8 OFFCURVE",
"408 -8 CURVE SMOOTH",
"549 -8 OFFCURVE",
"688 66 OFFCURVE",
"734 174 CURVE"
);
}
);
};
backgroundImage = {
crop = "{{21.78, 0}, {150.366, 213}}";
imagePath = ../../Ideation/Client/image_480.png;
locked = "1";
transform = "{4.775, 0, 2.16971, 4.775, -286.299, -146}";
};
layerId = "2D8F7115-C311-411E-929D-56333CF7FFB2";
paths = (
{
closed = 1;
nodes = (
"446 -8 OFFCURVE",
"548 18 OFFCURVE",
"624 76 CURVE",
"540 216 LINE",
"508 184 OFFCURVE",
"440 152 OFFCURVE",
"374 152 CURVE SMOOTH",
"264 152 OFFCURVE",
"200 230 OFFCURVE",
"226 346 CURVE SMOOTH",
"256 476 OFFCURVE",
"368 568 OFFCURVE",
"486 568 CURVE SMOOTH",
"540 568 OFFCURVE",
"592 550 OFFCURVE",
"614 514 CURVE",
"742 630 LINE",
"688 688 OFFCURVE",
"600 728 OFFCURVE",
"502 728 CURVE SMOOTH",
"294 728 OFFCURVE",
"102 580 OFFCURVE",
"54 376 CURVE SMOOTH",
"6 156 OFFCURVE",
"136 -8 OFFCURVE",
"354 -8 CURVE SMOOTH"
);
}
);
width = 684;
},
{
anchors = (
{
name = base;
position = "{350, 0}";
},
{
name = bottom;
position = "{340, 0}";
},
{
name = cedilla;
position = "{342, 0}";
},
{
name = top;
position = "{504, 720}";
}
);
associatedMasterId = "AB099EFE-E788-4EFC-8633-CF147CB782A6";
background = {
paths = (
{
closed = 1;
nodes = (
"596 192 LINE",
"553 121 OFFCURVE",
"483 82 OFFCURVE",
"400 82 CURVE SMOOTH",
"261 82 OFFCURVE",
"146 195 OFFCURVE",
"146 360 CURVE SMOOTH",
"146 522 OFFCURVE",
"255 637 OFFCURVE",
"398 638 CURVE SMOOTH",
"485 637 OFFCURVE",
"557 594 OFFCURVE",
"596 528 CURVE",
"684 576 LINE",
"627 674 OFFCURVE",
"522 730 OFFCURVE",
"400 730 CURVE SMOOTH",
"197 730 OFFCURVE",
"39 578 OFFCURVE",
"40 360 CURVE SMOOTH",
"39 138 OFFCURVE",
"203 -8 OFFCURVE",
"402 -8 CURVE SMOOTH",
"532 -8 OFFCURVE",
"635 53 OFFCURVE",
"688 150 CURVE"
);
}
);
};
layerId = "0C70BBED-6CBF-4E45-B429-2F50D50C94E8";
name = "Half {450}";
paths = (
{
closed = 1;
nodes = (
"448 -8 OFFCURVE",
"540 30 OFFCURVE",
"612 92 CURVE",
"556 170 LINE",
"502 118 OFFCURVE",
"436 82 OFFCURVE",
"356 82 CURVE SMOOTH",
"220 82 OFFCURVE",
"128 194 OFFCURVE",
"166 358 CURVE SMOOTH",
"204 520 OFFCURVE",
"342 636 OFFCURVE",
"486 638 CURVE SMOOTH",
"568 638 OFFCURVE",
"614 600 OFFCURVE",
"644 556 CURVE",
"728 626 LINE",
"684 690 OFFCURVE",
"610 730 OFFCURVE",
"504 730 CURVE SMOOTH",
"302 730 OFFCURVE",
"112 580 OFFCURVE",
"64 362 CURVE SMOOTH",
"12 140 OFFCURVE",
"144 -8 OFFCURVE",
"344 -8 CURVE SMOOTH"
);
}
);
width = 682;
}
);
leftKerningGroup = LAT_O_UC;
leftMetricsKey = O;
rightKerningGroup = LAT_C_UC;
},
{
export = 0;
glyphname = G.001;
lastChange = "2020-06-02 06:14:12 +0000";
layers = (
{
anchors = (
{
name = bottom;
position = "{330, 0}";
},
{
name = hook;
position = "{722, 616}";
},
{
name = top;
position = "{494, 720}";
}
);
layerId = "AB099EFE-E788-4EFC-8633-CF147CB782A6";
paths = (
{
closed = 1;
nodes = (
"518 18 OFFCURVE",
"344 18 CURVE SMOOTH",
"174 18 OFFCURVE",
"70 158 OFFCURVE",
"114 358 CURVE SMOOTH",
"158 550 OFFCURVE",
"322 700 OFFCURVE",
"498 698 CURVE SMOOTH",
"592 700 OFFCURVE",
"672 658 OFFCURVE",
"704 576 CURVE",
"734 586 LINE",
"698 676 OFFCURVE",
"606 728 OFFCURVE",
"496 728 CURVE SMOOTH",
"308 728 OFFCURVE",
"132 572 OFFCURVE",
"84 362 CURVE SMOOTH",
"34 144 OFFCURVE",
"154 -8 OFFCURVE",
"340 -8 CURVE SMOOTH",
"528 -8 OFFCURVE",
"670 134 OFFCURVE",
"716 340 CURVE SMOOTH",
"720 366 LINE",
"400 366 LINE",
"394 338 LINE",
"682 340 LINE",
"644 166 OFFCURVE"
);
}
);
width = 762;
},
{
anchors = (
{
name = bottom;
position = "{334, 0}";
},
{
name = hook;
position = "{736, 638}";
},
{
name = top;
position = "{498, 720}";
}
);
layerId = "2D8F7115-C311-411E-929D-56333CF7FFB2";
paths = (
{
closed = 1;
nodes = (
"468 144 OFFCURVE",
"374 144 CURVE SMOOTH",
"258 144 OFFCURVE",
"200 228 OFFCURVE",
"226 346 CURVE SMOOTH",
"258 480 OFFCURVE",
"366 576 OFFCURVE",
"476 576 CURVE SMOOTH",
"538 576 OFFCURVE",
"592 550 OFFCURVE",
"610 502 CURVE",
"776 558 LINE",
"738 662 OFFCURVE",
"636 732 OFFCURVE",
"496 732 CURVE SMOOTH",
"294 732 OFFCURVE",
"104 586 OFFCURVE",
"54 376 CURVE SMOOTH",
"4 148 OFFCURVE",
"134 -8 OFFCURVE",
"352 -8 CURVE SMOOTH",
"548 -8 OFFCURVE",
"704 112 OFFCURVE",
"742 282 CURVE SMOOTH",
"772 412 LINE",
"420 410 LINE",
"388 272 LINE",
"578 280 LINE",
"562 208 OFFCURVE"
);
}
);
width = 770;
},
{
anchors = (
{
name = bottom;
position = "{336, 0}";
},
{
name = hook;
position = "{704, 554}";
},
{
name = top;
position = "{492, 720}";
}
);
associatedMasterId = "AB099EFE-E788-4EFC-8633-CF147CB782A6";
layerId = "468E3CD5-7719-4A9D-BC7F-DB35573366CF";
name = "Half {450}";
paths = (
{
closed = 1;
nodes = (
"486 80 OFFCURVE",
"354 82 CURVE SMOOTH",
"212 82 OFFCURVE",
"130 196 OFFCURVE",
"168 360 CURVE SMOOTH",
"206 518 OFFCURVE",
"336 636 OFFCURVE",
"476 638 CURVE SMOOTH",
"556 638 OFFCURVE",
"620 600 OFFCURVE",
"646 536 CURVE",
"748 574 LINE",
"712 672 OFFCURVE",
"614 730 OFFCURVE",
"492 730 CURVE SMOOTH",
"296 730 OFFCURVE",
"110 574 OFFCURVE",
"64 362 CURVE SMOOTH",
"12 142 OFFCURVE",
"134 -12 OFFCURVE",
"338 -8 CURVE SMOOTH",
"528 -12 OFFCURVE",
"678 126 OFFCURVE",
"722 314 CURVE SMOOTH",
"740 392 LINE",
"404 392 LINE",
"384 300 LINE",
"616 302 LINE",
"586 180 OFFCURVE"
);
}
);
width = 758;
}
);
leftKerningGroup = LAT_O_UC;
leftMetricsKey = O;
rightKerningGroup = LAT_G_UC;
},
{
export = 0;
glyphname = G.002;
lastChange = "2020-06-02 06:14:14 +0000";
layers = (
{
anchors = (
{
name = bottom;
position = "{328, 0}";
},
{
name = hook;
position = "{718, 642}";
},
{
name = top;
position = "{492, 720}";
}
);
background = {
paths = (
{
closed = 1;
nodes = (
"658 164 OFFCURVE",
"567 18 OFFCURVE",
"394 18 CURVE SMOOTH",
"224 18 OFFCURVE",
"86 160 OFFCURVE",
"86 360 CURVE SMOOTH",
"86 551 OFFCURVE",
"214 699 OFFCURVE",
"388 698 CURVE SMOOTH",
"483 699 OFFCURVE",
"573 656 OFFCURVE",
"624 574 CURVE",
"654 588 LINE",
"598 678 OFFCURVE",
"493 728 OFFCURVE",
"386 728 CURVE SMOOTH",
"195 728 OFFCURVE",
"53 569 OFFCURVE",
"54 360 CURVE SMOOTH",
"53 142 OFFCURVE",
"205 -8 OFFCURVE",
"392 -8 CURVE SMOOTH",
"580 -8 OFFCURVE",
"691 136 OFFCURVE",
"690 342 CURVE SMOOTH",
"690 366 LINE",
"370 366 LINE",
"370 338 LINE",
"658 338 LINE"
);
}
);
};
layerId = "AB099EFE-E788-4EFC-8633-CF147CB782A6";
paths = (
{
closed = 1;
nodes = (
"528 -8 OFFCURVE",
"668 134 OFFCURVE",
"716 340 CURVE SMOOTH",
"720 366 LINE",
"400 366 LINE",
"394 338 LINE",
"682 340 LINE",
"644 166 OFFCURVE",
"520 20 OFFCURVE",
"344 20 CURVE SMOOTH",
"176 20 OFFCURVE",
"70 158 OFFCURVE",
"114 358 CURVE SMOOTH",
"158 550 OFFCURVE",
"322 700 OFFCURVE",
"504 698 CURVE SMOOTH",
"586 700 OFFCURVE",
"656 670 OFFCURVE",
"694 618 CURVE",
"718 642 LINE",
"676 692 OFFCURVE",
"600 728 OFFCURVE",
"502 728 CURVE SMOOTH",
"306 728 OFFCURVE",
"132 572 OFFCURVE",
"84 362 CURVE SMOOTH",
"34 144 OFFCURVE",
"154 -8 OFFCURVE",
"340 -8 CURVE SMOOTH"
);
}
);
width = 760;
},
{
anchors = (
{
name = bottom;
position = "{336, 0}";
},
{
name = hook;
position = "{748, 640}";
},
{
name = top;
position = "{500, 720}";
}
);
background = {
paths = (
{
closed = 1;
nodes = (
"576 200 OFFCURVE",
"501 144 OFFCURVE",
"414 144 CURVE SMOOTH",
"292 144 OFFCURVE",
"210 236 OFFCURVE",
"210 362 CURVE SMOOTH",
"210 487 OFFCURVE",
"292 576 OFFCURVE",
"398 576 CURVE SMOOTH",
"464 576 OFFCURVE",
"526 543 OFFCURVE",
"556 496 CURVE",
"714 564 LINE",
"651 668 OFFCURVE",
"536 732 OFFCURVE",
"400 732 CURVE SMOOTH",
"193 732 OFFCURVE",
"31 578 OFFCURVE",
"30 360 CURVE SMOOTH",
"31 140 OFFCURVE",
"193 -8 OFFCURVE",
"408 -8 CURVE SMOOTH",
"608 -8 OFFCURVE",
"740 119 OFFCURVE",
"740 290 CURVE SMOOTH",
"740 412 LINE",
"388 410 LINE",
"388 272 LINE",
"576 272 LINE"
);
}
);
};
layerId = "2D8F7115-C311-411E-929D-56333CF7FFB2";
paths = (
{
closed = 1;
nodes = (
"548 -8 OFFCURVE",
"704 112 OFFCURVE",
"742 282 CURVE SMOOTH",
"772 412 LINE",
"420 410 LINE",
"388 272 LINE",
"578 280 LINE",
"562 208 OFFCURVE",
"470 148 OFFCURVE",
"376 148 CURVE SMOOTH",
"260 148 OFFCURVE",
"200 228 OFFCURVE",
"226 346 CURVE SMOOTH",
"258 480 OFFCURVE",
"364 568 OFFCURVE",
"480 568 CURVE SMOOTH",
"542 568 OFFCURVE",
"594 550 OFFCURVE",
"614 514 CURVE",
"744 630 LINE",
"690 688 OFFCURVE",
"602 728 OFFCURVE",
"500 728 CURVE SMOOTH",
"296 728 OFFCURVE",
"104 586 OFFCURVE",
"54 376 CURVE SMOOTH",
"4 148 OFFCURVE",
"134 -8 OFFCURVE",
"352 -8 CURVE SMOOTH"
);
}
);
width = 766;
},
{
anchors = (
{
name = bottom;
position = "{332, 0}";
},
{
name = hook;
position = "{700, 554}";
},
{
name = top;
position = "{488, 720}";
}
);
associatedMasterId = "AB099EFE-E788-4EFC-8633-CF147CB782A6";
background = {
paths = (
{
closed = 1;
nodes = (
"526 81 OFFCURVE",
"396 82 CURVE SMOOTH",
"252 83 OFFCURVE",
"143 198 OFFCURVE",
"144 362 CURVE SMOOTH",
"145 520 OFFCURVE",
"247 637 OFFCURVE",
"386 638 CURVE SMOOTH",
"467 637 OFFCURVE",
"540 599 OFFCURVE",
"580 534 CURVE",
"674 576 LINE",
"617 673 OFFCURVE",
"507 730 OFFCURVE",
"386 730 CURVE SMOOTH",
"188 730 OFFCURVE",
"37 573 OFFCURVE",
"36 360 CURVE SMOOTH",
"37 141 OFFCURVE",
"193 -11 OFFCURVE",
"394 -8 CURVE SMOOTH",
"586 -13 OFFCURVE",
"707 127 OFFCURVE",
"708 316 CURVE SMOOTH",
"708 392 LINE",
"372 392 LINE",
"372 300 LINE",
"604 300 LINE",
"603 178 OFFCURVE"
);
}
);
};
layerId = "468E3CD5-7719-4A9D-BC7F-DB35573366CF";
name = "Half {450}";
paths = (
{
closed = 1;
nodes = (
"526 -8 OFFCURVE",
"678 126 OFFCURVE",
"720 314 CURVE SMOOTH",
"738 392 LINE",
"404 392 LINE",
"384 300 LINE",
"614 302 LINE",
"586 180 OFFCURVE",
"484 80 OFFCURVE",
"352 80 CURVE SMOOTH",
"212 80 OFFCURVE",
"130 196 OFFCURVE",
"166 360 CURVE SMOOTH",
"202 518 OFFCURVE",
"338 638 OFFCURVE",
"480 638 CURVE SMOOTH",
"566 638 OFFCURVE",
"610 600 OFFCURVE",
"640 556 CURVE",
"724 626 LINE",
"682 690 OFFCURVE",
"604 730 OFFCURVE",
"494 730 CURVE SMOOTH",
"294 730 OFFCURVE",
"112 574 OFFCURVE",
"64 362 CURVE SMOOTH",
"14 144 OFFCURVE",
"134 -8 OFFCURVE",
"336 -8 CURVE SMOOTH"
);
}
);
width = 748;
}
);
leftKerningGroup = LAT_O_UC;
leftMetricsKey = O;
rightKerningGroup = LAT_G_UC;
},
{
export = 0;
glyphname = IJ;
lastChange = "2020-06-02 06:11:58 +0000";
layers = (
{
anchors = (
{
name = bottom;
position = "{410, -24}";
},
{
name = top;
position = "{692, 750}";
}
);
components = (
{
name = I;
transform = "{1, 0, 0, 1, 18, 0}";
}
);
layerId = "AB099EFE-E788-4EFC-8633-CF147CB782A6";
paths = (
{
closed = 1;
nodes = (
"272 -214 OFFCURVE",
"326 -152 OFFCURVE",
"344 -70 CURVE SMOOTH",
"522 716 LINE",
"488 716 LINE",
"310 -70 LINE SMOOTH",
"296 -128 OFFCURVE",
"254 -186 OFFCURVE",
"176 -184 CURVE SMOOTH",
"132 -186 OFFCURVE",
"94 -170 OFFCURVE",
"74 -156 CURVE",
"62 -188 LINE",
"98 -206 OFFCURVE",
"134 -214 OFFCURVE",
"176 -214 CURVE SMOOTH"
);
}
);
width = 512;
},
{
anchors = (
{
name = bottom;
position = "{570, -24}";
},
{
name = top;
position = "{836, 740}";
}
);
components = (
{
name = I;
}
);
layerId = "2D8F7115-C311-411E-929D-56333CF7FFB2";
paths = (
{
closed = 1;
nodes = (
"400 -218 OFFCURVE",
"486 -136 OFFCURVE",
"512 -14 CURVE SMOOTH",
"678 716 LINE",
"500 716 LINE",
"342 18 LINE SMOOTH",
"332 -34 OFFCURVE",
"286 -64 OFFCURVE",
"220 -64 CURVE SMOOTH",
"198 -64 OFFCURVE",
"154 -62 OFFCURVE",
"122 -44 CURVE",
"56 -190 LINE",
"106 -208 OFFCURVE",
"182 -218 OFFCURVE",
"240 -218 CURVE SMOOTH"
);
}
);
width = 646;
}
);
leftKerningGroup = LAT_I_UC;
rightKerningGroup = LAT_I_UC;
unicode = 0132;
},
{
export = 0;
glyphname = Q.001;
lastChange = "2020-06-02 06:14:28 +0000";
layers = (
{
anchors = (
{
name = bottom;
position = "{290, -206}";
},
{
name = top;
position = "{500, 720}";
}
);
components = (
{
name = O;
}
);
layerId = "AB099EFE-E788-4EFC-8633-CF147CB782A6";
paths = (
{
closed = 1;
nodes = (
"304 -56 LINE SMOOTH",
"290 -120 OFFCURVE",
"328 -164 OFFCURVE",
"394 -164 CURVE SMOOTH",
"408 -164 OFFCURVE",
"420 -162 OFFCURVE",
"432 -158 CURVE",
"430 -130 LINE",
"420 -132 OFFCURVE",
"406 -134 OFFCURVE",
"394 -134 CURVE SMOOTH",
"354 -134 OFFCURVE",
"326 -116 OFFCURVE",
"336 -70 CURVE SMOOTH",
"354 8 LINE",
"320 8 LINE"
);
}
);
width = 790;
},
{
anchors = (
{
name = bottom;
position = "{292, -206}";
},
{
name = top;
position = "{502, 720}";
}
);
components = (
{
name = O;
}
);
layerId = "2D8F7115-C311-411E-929D-56333CF7FFB2";
paths = (
{
closed = 1;
nodes = (
"262 -46 LINE SMOOTH",
"244 -134 OFFCURVE",
"306 -210 OFFCURVE",
"406 -210 CURVE SMOOTH",
"418 -210 OFFCURVE",
"456 -210 OFFCURVE",
"480 -204 CURVE",
"494 -54 LINE",
"484 -58 OFFCURVE",
"452 -62 OFFCURVE",
"432 -62 CURVE SMOOTH",
"394 -62 OFFCURVE",
"378 -54 OFFCURVE",
"384 -30 CURVE SMOOTH",
"398 32 LINE",
"280 32 LINE"
);
}
);
width = 798;
},
{
anchors = (
{
name = bottom;
position = "{294, -206}";
},
{
name = top;
position = "{504, 720}";
}
);
associatedMasterId = "AB099EFE-E788-4EFC-8633-CF147CB782A6";
components = (
{
alignment = -1;
name = O;
}
);
layerId = "5F397B99-8889-4A27-BB1C-6FD1F8D7B180";
name = "Half {450}";
paths = (
{
closed = 1;
nodes = (
"282 -54 LINE SMOOTH",
"266 -130 OFFCURVE",
"304 -186 OFFCURVE",
"388 -188 CURVE SMOOTH",
"404 -188 OFFCURVE",
"432 -184 OFFCURVE",
"452 -178 CURVE",
"462 -92 LINE",
"448 -98 OFFCURVE",
"420 -102 OFFCURVE",
"406 -100 CURVE SMOOTH",
"372 -100 OFFCURVE",
"362 -80 OFFCURVE",
"370 -48 CURVE SMOOTH",
"386 20 LINE",
"300 20 LINE"
);
}
);
width = 800;
}
);
leftKerningGroup = LAT_O_UC;
rightKerningGroup = LAT_O_UC;
},
{
export = 0;
glyphname = Q.002;
lastChange = "2020-06-02 06:14:50 +0000";
layers = (
{
anchors = (
{
name = bottom;
position = "{338, 0}";
},
{
name = top;
position = "{500, 720}";
}
);
components = (
{
name = O;
}
);
layerId = "AB099EFE-E788-4EFC-8633-CF147CB782A6";
paths = (
{
closed = 1;
nodes = (
"586 -26 LINE",
"554 70 LINE",
"550 82 LINE",
"506 208 LINE",
"478 192 LINE",
"522 62 LINE",
"526 52 LINE",
"554 -44 LINE"
);
}
);
width = 790;
},
{
anchors = (
{
name = bottom;
position = "{340, 0}";
},
{
name = top;
position = "{504, 720}";
}
);
components = (
{
alignment = -1;
name = O;
}
);
layerId = "2D8F7115-C311-411E-929D-56333CF7FFB2";
paths = (
{
closed = 1;
nodes = (
"652 0 LINE",
"614 96 LINE",
"558 206 LINE",
"508 348 LINE",
"372 280 LINE",
"436 106 LINE",
"484 20 LINE",
"516 -68 LINE"
);
}
);
width = 798;
},
{
anchors = (
{
name = bottom;
position = "{338, 0}";
},
{
name = top;
position = "{500, 720}";
}
);
associatedMasterId = "AB099EFE-E788-4EFC-8633-CF147CB782A6";
components = (
{
alignment = -1;
name = O;
}
);
guideLines = (
{
angle = 22.5;
position = "{538, -10}";
},
{
angle = 150;
position = "{552, 0}";
}
);
layerId = "5F397B99-8889-4A27-BB1C-6FD1F8D7B180";
name = "Half {450}";
paths = (
{
closed = 1;
nodes = (
"600 -42 LINE",
"564 64 LINE",
"552 98 LINE",
"498 256 LINE",
"400 208 LINE",
"444 80 LINE",
"460 32 LINE",
"502 -90 LINE"
);
}
);
width = 794;
}
);
leftKerningGroup = LAT_O_UC;
rightKerningGroup = LAT_O_UC;
},
{
export = 0;
glyphname = Q.003;
lastChange = "2020-06-02 06:15:00 +0000";
layers = (
{
anchors = (
{
name = bottom;
position = "{290, -206}";
},
{
name = top;
position = "{500, 720}";
}
);
components = (
{
name = O;
}
);
layerId = "AB099EFE-E788-4EFC-8633-CF147CB782A6";
paths = (
{
closed = 1;
nodes = (
"606 8 LINE",
"564 104 LINE",
"558 118 LINE",
"502 242 LINE",
"472 226 LINE",
"532 96 LINE",
"538 86 LINE",
"576 -8 LINE"
);
}
);
width = 790;
},
{
anchors = (
{
name = bottom;
position = "{292, -206}";
},
{
name = top;
position = "{502, 720}";
}
);
components = (
{
alignment = -1;
name = O;
}
);
layerId = "2D8F7115-C311-411E-929D-56333CF7FFB2";
paths = (
{
closed = 1;
nodes = (
"710 58 LINE",
"650 138 LINE",
"564 226 LINE",
"480 368 LINE",
"358 284 LINE",
"464 128 LINE",
"538 62 LINE",
"590 -26 LINE"
);
}
);
width = 798;
},
{
anchors = (
{
name = bottom;
position = "{290, -206}";
},
{
name = top;
position = "{500, 720}";
}
);
associatedMasterId = "AB099EFE-E788-4EFC-8633-CF147CB782A6";
components = (
{
alignment = -1;
name = O;
}
);
guideLines = (
{
angle = 60;
position = "{552, 0}";
},
{
angle = 150;
position = "{552, 0}";
}
);
layerId = "5F397B99-8889-4A27-BB1C-6FD1F8D7B180";
name = "Half {450}";
paths = (
{
closed = 1;
nodes = (
"692 50 LINE",
"634 130 LINE",
"600 160 LINE",
"498 300 LINE",
"414 240 LINE",
"518 98 LINE",
"550 66 LINE",
"606 -8 LINE"
);
}
);
width = 794;
}
);
leftKerningGroup = LAT_O_UC;
rightKerningGroup = LAT_O_UC;
},
{
export = 0;
glyphname = Q.archive;
lastChange = "2020-06-02 06:15:10 +0000";
layers = (
{
anchors = (
{
name = bottom;
position = "{344, 0}";
},
{
name = top;
position = "{504, 720}";
}
);
components = (
{
name = O;
}
);
guideLines = (
{
angle = 22.5;
position = "{560, 0}";
}
);
layerId = "AB099EFE-E788-4EFC-8633-CF147CB782A6";
paths = (
{
closed = 1;
nodes = (
"618 0 LINE",
"576 84 LINE",
"572 92 LINE",
"486 268 LINE",
"456 256 LINE",
"546 74 LINE",
"550 66 LINE",
"588 -12 LINE"
);
}
);
width = 810;
},
{
anchors = (
{
name = bottom;
position = "{342, 0}";
},
{
name = top;
position = "{506, 720}";
}
);
components = (
{
name = O;
}
);
guideLines = (
{
angle = 22.5;
position = "{556, 0}";
}
);
layerId = "2D8F7115-C311-411E-929D-56333CF7FFB2";
paths = (
{
closed = 1;
nodes = (
"706 12 LINE",
"630 144 LINE",
"554 220 LINE",
"502 320 LINE",
"342 266 LINE",
"422 156 LINE",
"490 98 LINE",
"568 -42 LINE"
);
}
);
width = 814;
},
{
anchors = (
{
name = bottom;
position = "{340, 0}";
},
{
name = top;
position = "{506, 720}";
}
);
associatedMasterId = "AB099EFE-E788-4EFC-8633-CF147CB782A6";
components = (
{
alignment = -1;
name = O;
}
);
guideLines = (
{
angle = 120;
position = "{498, 0}";
},
{
angle = 22.5;
position = "{622, 10}";
}
);
layerId = "5F397B99-8889-4A27-BB1C-6FD1F8D7B180";
name = "Half {450}";
paths = (
{
closed = 1;
nodes = (
"678 10 LINE",
"620 118 LINE",
"590 160 LINE",
"514 308 LINE",
"424 274 LINE",
"508 116 LINE",
"536 82 LINE",
"588 -24 LINE"
);
}
);
width = 802;
}
);
leftKerningGroup = LAT_O_UC;
leftMetricsKey = O;
rightKerningGroup = LAT_Q_UC;
rightMetricsKey = "=O+8";
},
{
export = 0;
glyphname = W.001;
lastChange = "2020-06-09 02:42:43 +0000";
layers = (
{
anchors = (
{
name = bottom;
position = "{392, 0}";
},
{
name = top;
position = "{548, 720}";
}
);
layerId = "AB099EFE-E788-4EFC-8633-CF147CB782A6";
paths = (
{
closed = 1;
nodes = (
"178 0 LINE",
"218 0 LINE",
"522 606 LINE",
"526 606 LINE",
"582 0 LINE",
"622 0 LINE",
"974 720 LINE",
"940 720 LINE",
"654 134 LINE",
"610 36 LINE",
"606 36 LINE",
"548 672 LINE",
"524 672 LINE",
"206 36 LINE",
"202 36 LINE",
"198 134 LINE",
"170 720 LINE",
"138 720 LINE"
);
}
);
width = 900;
},
{
anchors = (
{
name = bottom;
position = "{450, 0}";
},
{
name = top;
position = "{614, 720}";
}
);
layerId = "2D8F7115-C311-411E-929D-56333CF7FFB2";
paths = (
{
closed = 1;
nodes = (
"174 0 LINE",
"320 0 LINE",
"520 312 LINE",
"524 312 LINE",
"612 0 LINE",
"756 0 LINE",
"1116 720 LINE",
"920 720 LINE",
"782 430 LINE",
"702 250 LINE",
"698 250 LINE",
"614 638 LINE",
"542 638 LINE",
"318 250 LINE",
"314 250 LINE",
"308 430 LINE",
"294 720 LINE",
"112 720 LINE"
);
}
);
width = 1020;
},
{
anchors = (
{
name = bottom;
position = "{412, 0}";
},
{
name = top;
position = "{576, 720}";
}
);
associatedMasterId = "AB099EFE-E788-4EFC-8633-CF147CB782A6";
layerId = "EFE37E7D-F637-41FE-8784-1086CBF7F997";
name = "Half {450}";
paths = (
{
closed = 1;
nodes = (
"184 0 LINE",
"276 0 LINE",
"502 396 LINE",
"506 396 LINE",
"574 0 LINE",
"666 0 LINE",
"1032 720 LINE",
"924 720 LINE",
"744 352 LINE",
"646 150 LINE",
"642 150 LINE",
"572 636 LINE",
"532 636 LINE",
"266 150 LINE",
"262 150 LINE",
"248 352 LINE",
"228 720 LINE",
"120 720 LINE"
);
}
);
width = 944;
}
);
leftKerningGroup = LAT_W_UC;
rightKerningGroup = LAT_W_UC;
},
{
color = 4;
glyphname = a.ss01;
lastChange = "2020-06-08 07:50:20 +0000";
layers = (
{
anchors = (
{
name = bottom;
position = "{252, 0}";
},
{
name = center;
position = "{320, 256}";
},
{
name = ogonek;
position = "{476, 0}";
},
{
name = top;
position = "{378, 512}";
},
{
name = topright;
position = "{662, 512}";
}
);
components = (
{
alignment = -1;
name = "_part.bowl-reverse.ss01";
transform = "{1, 0, 0, 1, 24, 0}";
}
);
layerId = "AB099EFE-E788-4EFC-8633-CF147CB782A6";
paths = (
{
closed = 1;
nodes = (
"478 0 LINE",
"594 512 LINE",
"564 512 LINE",
"538 396 LINE",
"528 396 LINE",
"534 372 LINE",
"482 140 LINE",
"462 116 LINE",
"474 116 LINE",
"448 0 LINE"
);
}
);
width = 614;
},
{
anchors = (
{
name = bottom;
position = "{292, 0}";
},
{
name = center;
position = "{350, 264}";
},
{
name = ogonek;
position = "{540, 0}";
},
{
name = top;
position = "{418, 528}";
},
{
name = topright;
position = "{696, 528}";
}
);
components = (
{
alignment = -1;
name = "_part.bowl-reverse.ss01";
transform = "{1, 0, 0, 1, 28, 0}";
}
);
layerId = "2D8F7115-C311-411E-929D-56333CF7FFB2";
paths = (
{
closed = 1;
nodes = (
"534 0 LINE",
"656 528 LINE",
"492 528 LINE",
"478 470 LINE",
"460 470 LINE",
"466 420 LINE",
"386 88 LINE",
"368 62 LINE",
"386 62 LINE",
"372 0 LINE"
);
}
);
width = 658;
},
{
anchors = (
{
name = bottom;
position = "{262, 0}";
},
{
name = center;
position = "{326, 262}";
},
{
name = ogonek;
position = "{430, -2}";
},
{
name = top;
position = "{390, 520}";
},
{
name = topright;
position = "{678, 520}";
}
);
associatedMasterId = "AB099EFE-E788-4EFC-8633-CF147CB782A6";
components = (
{
alignment = -1;
name = "_part.bowl-reverse.ss01";
}
);
layerId = "AC8A3195-6078-46FD-AA9D-1AC5F6AC1630";
name = "Half {450}";
paths = (
{
closed = 1;
nodes = (
"510 0 LINE",
"630 520 LINE",
"526 520 LINE",
"512 460 LINE",
"498 460 LINE",
"512 430 LINE",
"432 90 LINE",
"408 60 LINE",
"420 60 LINE",
"406 0 LINE"
);
}
);
width = 644;
}
);
leftKerningGroup = LAT_O_LC;
leftMetricsKey = o;
rightKerningGroup = LAT_ASS01_LC;
},
{
color = 6;
glyphname = a.ss02;
lastChange = "2020-06-09 08:19:42 +0000";
layers = (
{
anchors = (
{
name = bottom;
position = "{242, 0}";
},
{
name = ogonek;
position = "{472, -8}";
},
{
name = top;
position = "{358, 512}";
},
{
name = topright;
position = "{620, 512}";
}
);
components = (
{
name = "_part.bowl-reverse";
}
);
layerId = "AB099EFE-E788-4EFC-8633-CF147CB782A6";
paths = (
{
closed = 1;
nodes = (
"478 20 LINE",
"450 34 OFFCURVE",
"445 56 OFFCURVE",
"456 106 CURVE SMOOTH",
"548 512 LINE",
"518 512 LINE",
"492 402 LINE",
"486 402 LINE",
"490 386 LINE",
"436 144 LINE",
"414 98 LINE",
"428 98 LINE",
"426 106 LINE",
"408 34 OFFCURVE",
"430 16 OFFCURVE",
"462 -8 CURVE"
);
}
);
width = 584;
},
{
anchors = (
{
name = bottom;
position = "{262, 0}";
},
{
name = ogonek;
position = "{484, -8}";
},
{
name = top;
position = "{382, 528}";
},
{
name = topright;
position = "{666, 528}";
}
);
components = (
{
name = "_part.bowl-reverse";
}
);
layerId = "2D8F7115-C311-411E-929D-56333CF7FFB2";
paths = (
{
closed = 1;
nodes = (
"574 134 LINE",
"539 146 OFFCURVE",
"539 149 OFFCURVE",
"550 196 CURVE SMOOTH",
"626 528 LINE",
"452 528 LINE",
"440 476 LINE",
"428 476 LINE",
"438 436 LINE",
"368 134 LINE",
"344 68 LINE",
"386 68 LINE",
"382 82 LINE",
"387 42 OFFCURVE",
"421 14 OFFCURVE",
"488 -6 CURVE"
);
}
);
width = 642;
},
{
anchors = (
{
name = bottom;
position = "{248, 0}";
},
{
name = ogonek;
position = "{476, -8}";
},
{
name = top;
position = "{376, 520}";
},
{
name = topright;
position = "{652, 520}";
}
);
associatedMasterId = "AB099EFE-E788-4EFC-8633-CF147CB782A6";
components = (
{
name = "_part.bowl-reverse";
}
);
layerId = "10222E3F-14CA-477D-B1AE-4234237F89B0";
name = "Half {450}";
paths = (
{
closed = 1;
nodes = (
"522 82 LINE",
"492 96 OFFCURVE",
"490 114 OFFCURVE",
"500 156 CURVE SMOOTH",
"582 512 LINE",
"480 512 LINE",
"468 456 LINE",
"452 456 LINE",
"466 404 LINE",
"404 140 LINE",
"368 66 LINE",
"426 66 LINE",
"398 92 LINE",
"392 44 OFFCURVE",
"420 16 OFFCURVE",
"466 -8 CURVE"
);
}
);
width = 604;
}
);
leftKerningGroup = LAT_O_LC;
leftMetricsKey = o;
rightKerningGroup = LAT_A_LC;
rightMetricsKey = u;
},
{
glyphname = a.ss08;
lastChange = "2020-06-08 07:31:57 +0000";
layers = (
{
anchors = (
{
name = bottom;
position = "{192, 0}";
},
{
name = ogonek;
position = "{354, 0}";
},
{
name = top;
position = "{308, 512}";
}
);
layerId = "AB099EFE-E788-4EFC-8633-CF147CB782A6";
paths = (
{
closed = 1;
nodes = (
"362 0 LINE",
"438 332 LINE SMOOTH",
"463 447 OFFCURVE",
"443 520 OFFCURVE",
"316 520 CURVE SMOOTH",
"260 520 OFFCURVE",
"178 496 OFFCURVE",
"132 464 CURVE",
"142 438 LINE",
"186 467 OFFCURVE",
"261 492 OFFCURVE",
"312 492 CURVE SMOOTH",
"409 492 OFFCURVE",
"433 445 OFFCURVE",
"410 342 CURVE SMOOTH",
"394 274 LINE",
"394 270 LINE",
"358 120 LINE",
"346 86 LINE",
"354 86 LINE",
"334 0 LINE"
);
},
{
closed = 1;
nodes = (
"239 -8 OFFCURVE",
"311 37 OFFCURVE",
"354 86 CURVE",
"370 144 LINE",
"309 69 OFFCURVE",
"240 22 OFFCURVE",
"162 20 CURVE SMOOTH",
"91 22 OFFCURVE",
"46 71 OFFCURVE",
"60 136 CURVE SMOOTH",
"78 213 OFFCURVE",
"166 268 OFFCURVE",
"310 268 CURVE SMOOTH",
"404 268 LINE",
"412 296 LINE",
"314 296 LINE SMOOTH",
"152 296 OFFCURVE",
"53 233 OFFCURVE",
"32 140 CURVE SMOOTH",
"12 55 OFFCURVE",
"69 -8 OFFCURVE",
"160 -8 CURVE SMOOTH"
);
}
);
width = 502;
},
{
anchors = (
{
name = bottom;
position = "{216, 0}";
},
{
name = ogonek;
position = "{356, 0}";
},
{
name = top;
position = "{346, 528}";
}
);
layerId = "2D8F7115-C311-411E-929D-56333CF7FFB2";
paths = (
{
closed = 1;
nodes = (
"448 0 LINE",
"526 340 LINE SMOOTH",
"543 420 OFFCURVE",
"540 536 OFFCURVE",
"334 536 CURVE SMOOTH",
"236 536 OFFCURVE",
"153 512 OFFCURVE",
"110 490 CURVE",
"146 354 LINE",
"187 378 OFFCURVE",
"255 398 OFFCURVE",
"304 398 CURVE SMOOTH",
"341 398 OFFCURVE",
"369 390 OFFCURVE",
"360 354 CURVE SMOOTH",
"342 270 LINE",
"340 246 LINE",
"312 128 LINE",
"296 64 LINE",
"318 64 LINE",
"304 0 LINE"
);
},
{
closed = 1;
nodes = (
"230 -8 OFFCURVE",
"296 25 OFFCURVE",
"326 66 CURVE",
"316 158 LINE",
"292 134 OFFCURVE",
"254 116 OFFCURVE",
"220 116 CURVE SMOOTH",
"186 116 OFFCURVE",
"169 128 OFFCURVE",
"174 148 CURVE SMOOTH",
"183 190 OFFCURVE",
"224 208 OFFCURVE",
"264 208 CURVE SMOOTH",
"338 208 LINE",
"360 308 LINE",
"244 308 LINE SMOOTH",
"116 308 OFFCURVE",
"28 248 OFFCURVE",
"6 160 CURVE SMOOTH",
"-13 64 OFFCURVE",
"40 -8 OFFCURVE",
"150 -8 CURVE SMOOTH"
);
}
);
width = 564;
},
{
anchors = (
{
name = bottom;
position = "{212, 0}";
},
{
name = ogonek;
position = "{354, 0}";
},
{
name = top;
position = "{332, 520}";
}
);
associatedMasterId = "AB099EFE-E788-4EFC-8633-CF147CB782A6";
layerId = "10222E3F-14CA-477D-B1AE-4234237F89B0";
name = "Half {450}";
paths = (
{
closed = 1;
nodes = (
"404 0 LINE",
"480 328 LINE SMOOTH",
"502 426 OFFCURVE",
"480 528 OFFCURVE",
"332 528 CURVE SMOOTH",
"264 528 OFFCURVE",
"182 508 OFFCURVE",
"126 478 CURVE",
"146 392 LINE",
"188 416 OFFCURVE",
"254 436 OFFCURVE",
"306 436 CURVE SMOOTH",
"390 436 OFFCURVE",
"392 386 OFFCURVE",
"380 330 CURVE SMOOTH",
"366 270 LINE",
"364 236 LINE",
"340 128 LINE",
"318 68 LINE",
"338 68 LINE",
"322 0 LINE"
);
},
{
closed = 1;
nodes = (
"238 -8 OFFCURVE",
"312 30 OFFCURVE",
"350 80 CURVE",
"350 168 LINE",
"314 114 OFFCURVE",
"240 78 OFFCURVE",
"180 78 CURVE SMOOTH",
"138 78 OFFCURVE",
"108 100 OFFCURVE",
"118 144 CURVE SMOOTH",
"136 224 OFFCURVE",
"250 230 OFFCURVE",
"292 230 CURVE SMOOTH",
"384 230 LINE",
"402 312 LINE",
"302 312 LINE SMOOTH",
"118 312 OFFCURVE",
"38 236 OFFCURVE",
"18 148 CURVE SMOOTH",
"-4 52 OFFCURVE",
"58 -8 OFFCURVE",
"158 -8 CURVE SMOOTH"
);
}
);
width = 532;
}
);
leftKerningGroup = LAT_ASS02_LC;
leftMetricsKey = a;
rightKerningGroup = LAT_A_LC;
rightMetricsKey = n;
},
{
glyphname = ae;
lastChange = "2020-06-08 07:50:20 +0000";
layers = (
{
anchors = (
{
name = bottom;
position = "{348, 0}";
},
{
name = top;
position = "{458, 512}";
}
);
background = {
components = (
{
name = a;
transform = "{0.96569, 0, 0, 1, 12, 0}";
},
{
name = e;
transform = "{0.94033, 0, 0, 1, 334, 0}";
}
);
};
layerId = "AB099EFE-E788-4EFC-8633-CF147CB782A6";
paths = (
{
closed = 1;
nodes = (
"254 -8 OFFCURVE",
"338 58 OFFCURVE",
"378 142 CURVE",
"372 146 LINE",
"382 54 OFFCURVE",
"436 -8 OFFCURVE",
"540 -8 CURVE SMOOTH",
"598 -8 OFFCURVE",
"660 14 OFFCURVE",
"712 58 CURVE",
"708 92 LINE",
"664 52 OFFCURVE",
"598 20 OFFCURVE",
"536 20 CURVE SMOOTH",
"434 20 OFFCURVE",
"376 110 OFFCURVE",
"412 266 CURVE SMOOTH",
"444 402 OFFCURVE",
"536 492 OFFCURVE",
"644 492 CURVE SMOOTH",
"750 492 OFFCURVE",
"792 402 OFFCURVE",
"762 278 CURVE",
"408 276 LINE",
"402 248 LINE",
"786 246 LINE",
"794 274 OFFCURVE",
"792 270 OFFCURVE",
"794 276 CURVE SMOOTH",
"830 436 OFFCURVE",
"756 520 OFFCURVE",
"644 520 CURVE SMOOTH",
"556 520 OFFCURVE",
"478 468 OFFCURVE",
"428 384 CURVE",
"436 380 LINE",
"444 466 OFFCURVE",
"416 520 OFFCURVE",
"310 520 CURVE SMOOTH",
"260 520 OFFCURVE",
"180 498 OFFCURVE",
"134 464 CURVE",
"144 438 LINE",
"180 464 OFFCURVE",
"254 492 OFFCURVE",
"306 492 CURVE SMOOTH",
"400 492 OFFCURVE",
"424 444 OFFCURVE",
"400 340 CURVE SMOOTH",
"366 196 LINE SMOOTH",
"338 80 OFFCURVE",
"236 20 OFFCURVE",
"158 20 CURVE SMOOTH",
"82 20 OFFCURVE",
"46 70 OFFCURVE",
"60 132 CURVE SMOOTH",
"76 202 OFFCURVE",
"146 248 OFFCURVE",
"290 248 CURVE SMOOTH",
"386 248 LINE",
"392 276 LINE",
"298 276 LINE SMOOTH",
"136 276 OFFCURVE",
"52 226 OFFCURVE",
"32 136 CURVE SMOOTH",
"12 50 OFFCURVE",
"64 -8 OFFCURVE",
"158 -8 CURVE SMOOTH"
);
}
);
width = 846;
},
{
anchors = (
{
name = bottom;
position = "{362, 0}";
},
{
name = top;
position = "{486, 528}";
}
);
background = {
components = (
{
name = a;
transform = "{0.96569, 0, 0, 1, -4, 0}";
},
{
name = e;
transform = "{0.94033, 0, 0, 1, 306, 0}";
}
);
};
layerId = "2D8F7115-C311-411E-929D-56333CF7FFB2";
paths = (
{
closed = 1;
nodes = (
"290 -8 OFFCURVE",
"374 56 OFFCURVE",
"394 102 CURVE",
"356 116 LINE",
"382 44 OFFCURVE",
"444 -8 OFFCURVE",
"544 -8 CURVE SMOOTH",
"602 -8 OFFCURVE",
"674 4 OFFCURVE",
"714 30 CURVE",
"686 164 LINE",
"654 144 OFFCURVE",
"612 124 OFFCURVE",
"568 124 CURVE SMOOTH",
"530 124 OFFCURVE",
"440 132 OFFCURVE",
"466 246 CURVE SMOOTH",
"496 376 OFFCURVE",
"576 408 OFFCURVE",
"622 408 CURVE SMOOTH",
"666 408 OFFCURVE",
"694 374 OFFCURVE",
"682 322 CURVE",
"464 314 LINE",
"450 216 LINE",
"796 208 LINE",
"808 236 OFFCURVE",
"810 248 OFFCURVE",
"814 264 CURVE SMOOTH",
"860 462 OFFCURVE",
"748 536 OFFCURVE",
"644 536 CURVE SMOOTH",
"576 536 OFFCURVE",
"476 508 OFFCURVE",
"444 448 CURVE",
"490 432 LINE",
"480 492 OFFCURVE",
"452 536 OFFCURVE",
"330 536 CURVE SMOOTH",
"256 536 OFFCURVE",
"166 524 OFFCURVE",
"108 494 CURVE",
"140 354 LINE",
"172 374 OFFCURVE",
"238 402 OFFCURVE",
"296 402 CURVE SMOOTH",
"392 402 OFFCURVE",
"360 340 OFFCURVE",
"352 302 CURVE SMOOTH",
"332 212 LINE SMOOTH",
"320 158 OFFCURVE",
"274 116 OFFCURVE",
"212 116 CURVE SMOOTH",
"184 116 OFFCURVE",
"160 122 OFFCURVE",
"166 150 CURVE SMOOTH",
"180 216 OFFCURVE",
"258 216 OFFCURVE",
"296 216 CURVE SMOOTH",
"350 216 LINE",
"370 312 LINE",
"270 312 LINE SMOOTH",
"126 312 OFFCURVE",
"30 266 OFFCURVE",
"6 162 CURVE SMOOTH",
"-18 52 OFFCURVE",
"58 -8 OFFCURVE",
"170 -8 CURVE SMOOTH"
);
}
);
width = 846;
},
{
anchors = (
{
name = bottom;
position = "{368, 0}";
},
{
name = top;
position = "{488, 520}";
}
);
associatedMasterId = "AB099EFE-E788-4EFC-8633-CF147CB782A6";
background = {
components = (
{
name = a;
transform = "{1, 0, 0, 1, -4, 0}";
},
{
name = e;
transform = "{0.96, 0, 0, 1, 320, 0}";
}
);
};
layerId = "0E25C16D-2446-49C2-8681-EBC11D211070";
name = "Half {450}";
paths = (
{
closed = 1;
nodes = (
"286 -8 OFFCURVE",
"368 54 OFFCURVE",
"404 110 CURVE",
"378 114 LINE",
"404 40 OFFCURVE",
"454 -8 OFFCURVE",
"556 -8 CURVE SMOOTH",
"620 -8 OFFCURVE",
"690 14 OFFCURVE",
"734 46 CURVE",
"716 132 LINE",
"672 98 OFFCURVE",
"622 80 OFFCURVE",
"568 80 CURVE SMOOTH",
"482 80 OFFCURVE",
"436 142 OFFCURVE",
"462 260 CURVE SMOOTH",
"488 378 OFFCURVE",
"564 440 OFFCURVE",
"642 440 CURVE SMOOTH",
"720 440 OFFCURVE",
"750 378 OFFCURVE",
"732 304 CURVE",
"460 302 LINE",
"440 222 LINE",
"804 220 LINE",
"808 230 OFFCURVE",
"814 248 OFFCURVE",
"818 272 CURVE SMOOTH",
"856 432 OFFCURVE",
"786 528 OFFCURVE",
"660 528 CURVE SMOOTH",
"590 528 OFFCURVE",
"516 498 OFFCURVE",
"458 436 CURVE",
"482 432 LINE",
"476 486 OFFCURVE",
"436 528 OFFCURVE",
"328 528 CURVE SMOOTH",
"254 528 OFFCURVE",
"172 506 OFFCURVE",
"126 478 CURVE",
"144 392 LINE",
"176 416 OFFCURVE",
"252 436 OFFCURVE",
"310 436 CURVE SMOOTH",
"426 436 OFFCURVE",
"398 358 OFFCURVE",
"382 290 CURVE SMOOTH",
"360 190 LINE SMOOTH",
"346 130 OFFCURVE",
"266 80 OFFCURVE",
"194 80 CURVE SMOOTH",
"146 80 OFFCURVE",
"108 102 OFFCURVE",
"118 150 CURVE SMOOTH",
"130 194 OFFCURVE",
"176 222 OFFCURVE",
"270 222 CURVE SMOOTH",
"382 222 LINE",
"400 302 LINE",
"284 302 LINE SMOOTH",
"142 302 OFFCURVE",
"42 250 OFFCURVE",
"20 150 CURVE SMOOTH",
"-2 54 OFFCURVE",
"66 -8 OFFCURVE",
"176 -8 CURVE SMOOTH"
);
}
);
width = 860;
}
);
leftKerningGroup = LAT_ASS02_LC;
leftMetricsKey = a;
rightKerningGroup = LAT_E_LC;
rightMetricsKey = e;
unicode = 00E6;
},
{
glyphname = b;
lastChange = "2020-06-09 01:29:30 +0000";
layers = (
{
anchors = (
{
name = bottom;
position = "{226, 0}";
},
{
name = center;
position = "{180, 616}";
},
{
name = top;
position = "{376, 564}";
}
);
components = (
{
name = _part.bowl;
}
);
layerId = "AB099EFE-E788-4EFC-8633-CF147CB782A6";
paths = (
{
closed = 1;
nodes = (
"26 0 LINE",
"56 0 LINE",
"82 116 LINE",
"90 116 LINE",
"86 156 LINE",
"136 372 LINE",
"156 416 LINE",
"150 416 LINE",
"226 752 LINE",
"196 752 LINE"
);
}
);
width = 574;
},
{
anchors = (
{
name = bottom;
position = "{254, 0}";
},
{
name = center;
position = "{232, 634}";
},
{
name = top;
position = "{458, 568}";
}
);
components = (
{
name = _part.bowl;
}
);
layerId = "2D8F7115-C311-411E-929D-56333CF7FFB2";
paths = (
{
closed = 1;
nodes = (
"0 0 LINE",
"164 0 LINE",
"178 66 LINE",
"198 66 LINE",
"190 132 LINE",
"264 440 LINE",
"300 496 LINE",
"286 496 LINE",
"344 752 LINE",
"170 752 LINE"
);
}
);
width = 626;
},
{
anchors = (
{
name = bottom;
position = "{250, 0}";
},
{
name = center;
position = "{206, 626}";
},
{
name = top;
position = "{428, 566}";
}
);
associatedMasterId = "AB099EFE-E788-4EFC-8633-CF147CB782A6";
components = (
{
alignment = -1;
name = _part.bowl;
}
);
layerId = "5A761FBB-D991-4916-A5B6-6B494825C86B";
name = "Half {450}";
paths = (
{
closed = 1;
nodes = (
"12 0 LINE",
"114 0 LINE",
"130 66 LINE",
"148 66 LINE",
"132 122 LINE",
"202 422 LINE",
"230 468 LINE",
"222 468 LINE",
"286 752 LINE",
"184 752 LINE"
);
}
);
width = 602;
}
);
leftKerningGroup = LAT_H_UC;
leftMetricsKey = h;
rightKerningGroup = LAT_O_LC;
rightMetricsKey = o;
unicode = 0062;
},
{
color = 4;
glyphname = b.ss01;
lastChange = "2020-06-08 08:04:31 +0000";
layers = (
{
anchors = (
{
name = bottom;
position = "{224, 0}";
},
{
name = center;
position = "{178, 616}";
},
{
name = top;
position = "{376, 564}";
}
);
components = (
{
name = _part.bowl.ss01;
}
);
layerId = "AB099EFE-E788-4EFC-8633-CF147CB782A6";
paths = (
{
closed = 1;
nodes = (
"26 0 LINE",
"56 0 LINE",
"84 124 LINE",
"92 124 LINE",
"86 140 LINE",
"136 364 LINE",
"152 394 LINE",
"146 394 LINE",
"226 752 LINE",
"196 752 LINE"
);
}
);
width = 624;
},
{
anchors = (
{
name = bottom;
position = "{258, 0}";
},
{
name = center;
position = "{236, 634}";
},
{
name = top;
position = "{462, 568}";
}
);
components = (
{
name = _part.bowl.ss01;
}
);
layerId = "2D8F7115-C311-411E-929D-56333CF7FFB2";
paths = (
{
closed = 1;
nodes = (
"0 0 LINE",
"164 0 LINE",
"180 78 LINE",
"200 78 LINE",
"190 110 LINE",
"258 398 LINE",
"298 486 LINE",
"286 486 LINE",
"344 752 LINE",
"170 752 LINE"
);
}
);
width = 656;
},
{
anchors = (
{
name = bottom;
position = "{254, 0}";
},
{
name = center;
position = "{208, 626}";
},
{
name = top;
position = "{432, 566}";
}
);
associatedMasterId = "AB099EFE-E788-4EFC-8633-CF147CB782A6";
components = (
{
alignment = -1;
name = _part.bowl.ss01;
}
);
layerId = "5A761FBB-D991-4916-A5B6-6B494825C86B";
name = "Half {450}";
paths = (
{
closed = 1;
nodes = (
"14 0 LINE",
"116 0 LINE",
"132 62 LINE",
"142 62 LINE",
"134 94 LINE",
"206 404 LINE",
"232 460 LINE",
"222 460 LINE",
"288 752 LINE",
"186 752 LINE"
);
}
);
width = 646;
}
);
leftKerningGroup = LAT_L_LC;
leftMetricsKey = h;
rightKerningGroup = LAT_O_LC;
rightMetricsKey = o;
},
{
glyphname = c;
lastChange = "2020-06-09 01:58:45 +0000";
layers = (
{
anchors = (
{
name = base;
position = "{336, 0}";
},
{
name = bottom;
position = "{224, 0}";
},
{
name = cedilla;
position = "{232, 0}";
},
{
name = top;
position = "{340, 512}";
}
);
layerId = "AB099EFE-E788-4EFC-8633-CF147CB782A6";
paths = (
{
closed = 1;
nodes = (
"296 -6 OFFCURVE",
"354 14 OFFCURVE",
"404 52 CURVE",
"396 84 LINE",
"360 50 OFFCURVE",
"298 22 OFFCURVE",
"240 22 CURVE SMOOTH",
"126 22 OFFCURVE",
"54 134 OFFCURVE",
"86 264 CURVE SMOOTH",
"118 394 OFFCURVE",
"234 492 OFFCURVE",
"348 492 CURVE SMOOTH",
"392 492 OFFCURVE",
"450 472 OFFCURVE",
"472 440 CURVE",
"490 466 LINE",
"458 498 OFFCURVE",
"404 520 OFFCURVE",
"350 520 CURVE SMOOTH",
"222 520 OFFCURVE",
"92 416 OFFCURVE",
"58 266 CURVE SMOOTH",
"22 108 OFFCURVE",
"114 -6 OFFCURVE",
"240 -6 CURVE SMOOTH"
);
}
);
userData = {
RMXScaler = {
height = 71.5;
weight = 20;
width = 77;
};
};
width = 498;
},
{
anchors = (
{
name = base;
position = "{358, 0}";
},
{
name = bottom;
position = "{248, 0}";
},
{
name = cedilla;
position = "{254, 0}";
},
{
name = top;
position = "{374, 528}";
}
);
layerId = "2D8F7115-C311-411E-929D-56333CF7FFB2";
paths = (
{
closed = 1;
nodes = (
"322 -6 OFFCURVE",
"380 8 OFFCURVE",
"416 30 CURVE",
"382 182 LINE",
"356 160 OFFCURVE",
"322 142 OFFCURVE",
"282 142 CURVE SMOOTH",
"222 142 OFFCURVE",
"184 182 OFFCURVE",
"192 252 CURVE SMOOTH",
"200 322 OFFCURVE",
"252 388 OFFCURVE",
"324 388 CURVE SMOOTH",
"356 388 OFFCURVE",
"400 372 OFFCURVE",
"414 352 CURVE",
"502 480 LINE",
"466 508 OFFCURVE",
"404 536 OFFCURVE",
"334 536 CURVE SMOOTH",
"190 536 OFFCURVE",
"72 432 OFFCURVE",
"38 290 CURVE SMOOTH",
"0 128 OFFCURVE",
"100 -6 OFFCURVE",
"268 -6 CURVE SMOOTH"
);
}
);
userData = {
RMXScaler = {
height = 73.5;
weight = -50;
width = 73;
};
};
width = 488;
},
{
anchors = (
{
name = base;
position = "{356, 0}";
},
{
name = bottom;
position = "{242, 0}";
},
{
name = cedilla;
position = "{248, 0}";
},
{
name = top;
position = "{364, 520}";
}
);
associatedMasterId = "AB099EFE-E788-4EFC-8633-CF147CB782A6";
layerId = "1CE194FB-59CD-44F4-BAA6-2BB5E627A7E4";
name = "{450}";
paths = (
{
closed = 1;
nodes = (
"318 -6 OFFCURVE",
"372 12 OFFCURVE",
"422 44 CURVE",
"402 134 LINE",
"370 108 OFFCURVE",
"314 86 OFFCURVE",
"266 86 CURVE SMOOTH",
"176 86 OFFCURVE",
"126 160 OFFCURVE",
"148 260 CURVE SMOOTH",
"170 366 OFFCURVE",
"256 436 OFFCURVE",
"338 436 CURVE SMOOTH",
"382 436 OFFCURVE",
"432 416 OFFCURVE",
"450 392 CURVE",
"504 476 LINE",
"472 506 OFFCURVE",
"414 528 OFFCURVE",
"344 528 CURVE SMOOTH",
"178 528 OFFCURVE",
"72 400 OFFCURVE",
"46 270 CURVE SMOOTH",
"14 116 OFFCURVE",
"104 -6 OFFCURVE",
"260 -6 CURVE SMOOTH"
);
}
);
userData = {
RMXScaler = {
height = 71.5;
weight = 20;
width = 77;
};
};
width = 502;
}
);
leftKerningGroup = LAT_O_LC;
leftMetricsKey = o;
rightKerningGroup = LAT_C_LC;
unicode = 0063;
userData = {
RMXScaler = {
source = C;
};
};
},
{
glyphname = d;
lastChange = "2020-06-09 08:15:44 +0000";
layers = (
{
anchors = (
{
name = bottom;
position = "{252, 0}";
},
{
name = center;
position = "{570, 616}";
},
{
name = leghookretroflex;
position = "{430, 0}";
},
{
name = top;
position = "{598, 752}";
},
{
name = topright;
position = "{614, 752}";
}
);
components = (
{
name = "_part.bowl-reverse";
}
);
layerId = "AB099EFE-E788-4EFC-8633-CF147CB782A6";
paths = (
{
closed = 1;
nodes = (
"480 20 LINE",
"446 38 OFFCURVE",
"447 62 OFFCURVE",
"458 112 CURVE SMOOTH",
"604 754 LINE",
"576 754 LINE",
"494 398 LINE",
"482 398 LINE",
"488 366 LINE",
"438 144 LINE",
"418 102 LINE",
"432 102 LINE",
"430 116 LINE",
"414 40 OFFCURVE",
"430 16 OFFCURVE",
"462 -8 CURVE"
);
}
);
width = 586;
},
{
anchors = (
{
name = bottom;
position = "{254, 0}";
},
{
name = center;
position = "{562, 634}";
},
{
name = leghookretroflex;
position = "{420, 0}";
},
{
name = top;
position = "{590, 752}";
},
{
name = topright;
position = "{670, 752}";
}
);
components = (
{
name = "_part.bowl-reverse";
}
);
layerId = "2D8F7115-C311-411E-929D-56333CF7FFB2";
paths = (
{
closed = 1;
nodes = (
"574 134 LINE",
"546 144 OFFCURVE",
"540 148 OFFCURVE",
"548 184 CURVE SMOOTH",
"676 752 LINE",
"502 752 LINE",
"440 476 LINE",
"430 476 LINE",
"440 434 LINE",
"370 134 LINE",
"346 66 LINE",
"388 66 LINE",
"378 86 LINE",
"384 42 OFFCURVE",
"428 12 OFFCURVE",
"488 -6 CURVE"
);
}
);
width = 646;
},
{
anchors = (
{
name = bottom;
position = "{230, 0}";
},
{
name = center;
position = "{556, 624}";
},
{
name = leghookretroflex;
position = "{414, 0}";
},
{
name = top;
position = "{586, 752}";
},
{
name = topright;
position = "{714, 752}";
}
);
associatedMasterId = "AB099EFE-E788-4EFC-8633-CF147CB782A6";
background = {
paths = (
{
closed = 1;
nodes = (
"574 76 LINE",
"562 82 LINE SMOOTH",
"533 97 OFFCURVE",
"524 119 OFFCURVE",
"524 162 CURVE SMOOTH",
"524 752 LINE",
"422 752 LINE",
"422 140 LINE",
"410 68 LINE",
"440 68 LINE",
"440 60 OFFCURVE",
"455 4 OFFCURVE",
"512 -6 CURVE SMOOTH",
"524 -8 LINE"
);
}
);
};
components = (
{
name = "_part.bowl-reverse";
}
);
layerId = "93F45F20-9F23-4A78-8C04-8606029ED3EE";
name = "Half {450}";
paths = (
{
closed = 1;
nodes = (
"522 82 LINE",
"494 97 OFFCURVE",
"491 110 OFFCURVE",
"500 150 CURVE SMOOTH",
"636 752 LINE",
"534 752 LINE",
"468 458 LINE",
"456 458 LINE",
"468 404 LINE",
"408 140 LINE",
"368 66 LINE",
"426 66 LINE",
"400 92 LINE",
"392 55 OFFCURVE",
"409 21 OFFCURVE",
"466 -8 CURVE"
);
}
);
width = 604;
}
);
leftKerningGroup = LAT_O_LC;
leftMetricsKey = o;
rightKerningGroup = LAT_D_LC;
unicode = 0064;
},
{
color = 4;
glyphname = d.ss01;
lastChange = "2020-06-08 08:02:05 +0000";
layers = (
{
anchors = (
{
name = bottom;
position = "{258, 0}";
},
{
name = center;
position = "{594, 616}";
},
{
name = leghookretroflex;
position = "{452, 0}";
},
{
name = top;
position = "{624, 752}";
},
{
name = topright;
position = "{640, 752}";
}
);
components = (
{
name = "_part.bowl-reverse.ss01";
}
);
layerId = "AB099EFE-E788-4EFC-8633-CF147CB782A6";
paths = (
{
closed = 1;
nodes = (
"612 752 LINE",
"536 394 LINE",
"532 394 LINE",
"534 364 LINE",
"484 132 LINE",
"468 116 LINE",
"478 116 LINE",
"454 0 LINE",
"484 0 LINE",
"642 752 LINE"
);
}
);
width = 614;
},
{
anchors = (
{
name = bottom;
position = "{270, 0}";
},
{
name = center;
position = "{576, 634}";
},
{
name = leghookretroflex;
position = "{444, 0}";
},
{
name = top;
position = "{602, 752}";
},
{
name = topright;
position = "{684, 752}";
}
);
components = (
{
name = "_part.bowl-reverse.ss01";
}
);
layerId = "2D8F7115-C311-411E-929D-56333CF7FFB2";
paths = (
{
closed = 1;
nodes = (
"520 752 LINE",
"462 480 LINE",
"450 480 LINE",
"452 398 LINE",
"394 110 LINE",
"366 62 LINE",
"386 62 LINE",
"372 0 LINE",
"536 0 LINE",
"694 752 LINE"
);
}
);
width = 650;
},
{
anchors = (
{
name = bottom;
position = "{212, 0}";
},
{
name = center;
position = "{684, 624}";
},
{
name = leghookretroflex;
position = "{400, 0}";
},
{
name = top;
position = "{742, 752}";
},
{
name = topright;
position = "{872, 752}";
}
);
associatedMasterId = "AB099EFE-E788-4EFC-8633-CF147CB782A6";
components = (
{
name = "_part.bowl-reverse.ss01";
}
);
layerId = "93F45F20-9F23-4A78-8C04-8606029ED3EE";
name = "Half {450}";
paths = (
{
closed = 1;
nodes = (
"580 752 LINE",
"514 460 LINE",
"504 460 LINE",
"504 404 LINE",
"436 94 LINE",
"412 62 LINE",
"424 62 LINE",
"410 0 LINE",
"512 0 LINE",
"682 752 LINE"
);
}
);
width = 644;
}
);
leftKerningGroup = LAT_O_LC;
leftMetricsKey = o;
rightKerningGroup = LAT_H_UC;
},
{
glyphname = eth;
lastChange = "2020-06-08 07:50:20 +0000";
layers = (
{
background = {
paths = (
{
closed = 1;
nodes = (
"489 449 OFFCURVE",
"399 499 OFFCURVE",
"306 500 CURVE SMOOTH",
"164 499 OFFCURVE",
"58 393 OFFCURVE",
"60 248 CURVE SMOOTH",
"58 102 OFFCURVE",
"161 -8 OFFCURVE",
"298 -8 CURVE SMOOTH",
"444 -8 OFFCURVE",
"537 115 OFFCURVE",
"538 304 CURVE SMOOTH",
"537 515 OFFCURVE",
"395 691 OFFCURVE",
"170 762 CURVE",
"162 734 LINE",
"373 668 OFFCURVE",
"506 503 OFFCURVE",
"508 304 CURVE SMOOTH",
"506 131 OFFCURVE",
"425 21 OFFCURVE",
"298 20 CURVE SMOOTH",
"177 21 OFFCURVE",
"89 117 OFFCURVE",
"90 248 CURVE SMOOTH",
"89 376 OFFCURVE",
"182 471 OFFCURVE",
"306 470 CURVE SMOOTH",
"388 471 OFFCURVE",
"466 427 OFFCURVE",
"502 360 CURVE",
"530 372 LINE"
);
}
);
};
layerId = "AB099EFE-E788-4EFC-8633-CF147CB782A6";
paths = (
{
closed = 1;
nodes = (
"374 -8 OFFCURVE",
"492 102 OFFCURVE",
"534 286 CURVE SMOOTH",
"592 548 OFFCURVE",
"452 706 OFFCURVE",
"284 762 CURVE",
"270 736 LINE",
"382 698 OFFCURVE",
"512 598 OFFCURVE",
"524 402 CURVE",
"532 408 LINE",
"516 408 LINE",
"528 388 LINE",
"506 460 OFFCURVE",
"432 500 OFFCURVE",
"352 500 CURVE SMOOTH",
"214 500 OFFCURVE",
"90 392 OFFCURVE",
"58 246 CURVE SMOOTH",
"26 104 OFFCURVE",
"102 -8 OFFCURVE",
"238 -8 CURVE SMOOTH"
);
},
{
closed = 1;
nodes = (
"124 16 OFFCURVE",
"58 114 OFFCURVE",
"88 248 CURVE SMOOTH",
"116 372 OFFCURVE",
"226 472 OFFCURVE",
"354 472 CURVE SMOOTH",
"450 472 OFFCURVE",
"534 414 OFFCURVE",
"500 268 CURVE SMOOTH",
"470 138 OFFCURVE",
"364 24 OFFCURVE",
"242 20 CURVE SMOOTH"
);
},
{
closed = 1;
nodes = (
"564 738 LINE",
"558 760 LINE",
"232 596 LINE",
"238 572 LINE"
);
}
);
width = 588;
},
{
background = {
components = (
{
name = delta;
transform = "{1, 0, 0, 1, -4, 0}";
}
);
};
layerId = "2D8F7115-C311-411E-929D-56333CF7FFB2";
paths = (
{
closed = 1;
nodes = (
"404 -8 OFFCURVE",
"540 110 OFFCURVE",
"586 306 CURVE SMOOTH",
"636 522 OFFCURVE",
"536 706 OFFCURVE",
"304 826 CURVE",
"216 698 LINE",
"350 644 OFFCURVE",
"436 560 OFFCURVE",
"454 446 CURVE",
"480 462 LINE",
"436 462 LINE",
"456 420 LINE",
"450 476 OFFCURVE",
"380 502 OFFCURVE",
"322 502 CURVE SMOOTH",
"196 502 OFFCURVE",
"64 404 OFFCURVE",
"32 268 CURVE SMOOTH",
"-4 110 OFFCURVE",
"94 -8 OFFCURVE",
"246 -8 CURVE SMOOTH"
);
},
{
closed = 1;
nodes = (
"208 144 OFFCURVE",
"180 186 OFFCURVE",
"194 246 CURVE SMOOTH",
"210 316 OFFCURVE",
"268 368 OFFCURVE",
"336 368 CURVE SMOOTH",
"398 368 OFFCURVE",
"426 328 OFFCURVE",
"414 278 CURVE SMOOTH",
"398 202 OFFCURVE",
"336 144 OFFCURVE",
"268 144 CURVE SMOOTH"
);
},
{
closed = 1;
nodes = (
"620 738 LINE",
"580 826 LINE",
"192 592 LINE",
"222 528 LINE"
);
}
);
width = 610;
},
{
associatedMasterId = "AB099EFE-E788-4EFC-8633-CF147CB782A6";
background = {
components = (
{
name = delta;
transform = "{1, 0, 0, 1, -4, 0}";
}
);
};
layerId = "91BDAD2D-5B11-4BE0-BF5F-19682392A8C1";
name = "Half {450}";
paths = (
{
closed = 1;
nodes = (
"394 -8 OFFCURVE",
"526 106 OFFCURVE",
"570 304 CURVE SMOOTH",
"626 554 OFFCURVE",
"494 704 OFFCURVE",
"298 796 CURVE",
"244 714 LINE",
"364 662 OFFCURVE",
"482 576 OFFCURVE",
"496 436 CURVE",
"514 450 LINE",
"488 450 LINE",
"498 430 LINE",
"488 470 OFFCURVE",
"430 504 OFFCURVE",
"350 504 CURVE SMOOTH",
"212 504 OFFCURVE",
"80 404 OFFCURVE",
"48 256 CURVE SMOOTH",
"12 104 OFFCURVE",
"100 -8 OFFCURVE",
"248 -8 CURVE SMOOTH"
);
},
{
closed = 1;
nodes = (
"178 88 OFFCURVE",
"128 162 OFFCURVE",
"148 256 CURVE SMOOTH",
"170 348 OFFCURVE",
"254 414 OFFCURVE",
"346 414 CURVE SMOOTH",
"432 414 OFFCURVE",
"484 354 OFFCURVE",
"462 260 CURVE SMOOTH",
"440 166 OFFCURVE",
"356 88 OFFCURVE",
"266 88 CURVE SMOOTH"
);
},
{
closed = 1;
nodes = (
"610 742 LINE",
"586 798 LINE",
"218 606 LINE",
"240 550 LINE"
);
}
);
width = 608;
}
);
leftKerningGroup = LAT_ETH_LC;
rightKerningGroup = LAT_ETH_LC;
unicode = 00F0;
},
{
glyphname = e;
lastChange = "2020-06-09 05:16:40 +0000";
layers = (
{
anchors = (
{
name = bottom;
position = "{226, 0}";
},
{
name = cedilla;
position = "{220, 0}";
},
{
name = ogonek;
position = "{376, 38}";
},
{
name = top;
position = "{338, 512}";
}
);
layerId = "AB099EFE-E788-4EFC-8633-CF147CB782A6";
paths = (
{
closed = 1;
nodes = (
"314 -8 OFFCURVE",
"372 20 OFFCURVE",
"410 50 CURVE",
"402 78 LINE",
"358 46 OFFCURVE",
"308 20 OFFCURVE",
"240 20 CURVE SMOOTH",
"120 20 OFFCURVE",
"56 114 OFFCURVE",
"86 254 CURVE SMOOTH",
"114 388 OFFCURVE",
"212 492 OFFCURVE",
"324 492 CURVE SMOOTH",
"432 492 OFFCURVE",
"494 396 OFFCURVE",
"460 274 CURVE",
"84 274 LINE",
"78 246 LINE",
"486 246 LINE",
"488 254 OFFCURVE",
"490 260 OFFCURVE",
"494 282 CURVE SMOOTH",
"520 428 OFFCURVE",
"448 520 OFFCURVE",
"326 520 CURVE SMOOTH",
"194 520 OFFCURVE",
"86 410 OFFCURVE",
"56 256 CURVE SMOOTH",
"26 96 OFFCURVE",
"100 -8 OFFCURVE",
"238 -8 CURVE SMOOTH"
);
}
);
width = 544;
},
{
anchors = (
{
name = bottom;
position = "{238, 0}";
},
{
name = cedilla;
position = "{234, 0}";
},
{
name = ogonek;
position = "{420, 40}";
},
{
name = top;
position = "{348, 520}";
}
);
associatedMasterId = "AB099EFE-E788-4EFC-8633-CF147CB782A6";
background = {
paths = (
{
closed = 1;
nodes = (
"354 97 OFFCURVE",
"299 78 OFFCURVE",
"258 78 CURVE SMOOTH",
"175 78 OFFCURVE",
"129 144 OFFCURVE",
"145 247 CURVE SMOOTH",
"164 366 OFFCURVE",
"236 442 OFFCURVE",
"328 442 CURVE SMOOTH",
"391 442 OFFCURVE",
"431 398 OFFCURVE",
"428 334 CURVE SMOOTH",
"425 295 OFFCURVE",
"407 260 OFFCURVE",
"426 308 CURVE",
"104 308 LINE",
"104 224 LINE",
"499 224 LINE",
"524 274 OFFCURVE",
"533 316 OFFCURVE",
"532 339 CURVE SMOOTH",
"532 447 OFFCURVE",
"447 526 OFFCURVE",
"328 526 CURVE SMOOTH",
"182 526 OFFCURVE",
"67 418 OFFCURVE",
"43 261 CURVE SMOOTH",
"18 105 OFFCURVE",
"108 -6 OFFCURVE",
"258 -6 CURVE SMOOTH",
"321 -6 OFFCURVE",
"407 22 OFFCURVE",
"449 55 CURVE",
"383 121 LINE"
);
}
);
};
guideLines = (
{
angle = 112.5;
position = "{372, 92}";
}
);
layerId = "197FD552-64D2-439A-92C4-31C862AB66D0";
name = "Half {450}";
paths = (
{
closed = 1;
nodes = (
"326 -8 OFFCURVE",
"380 10 OFFCURVE",
"428 40 CURVE",
"404 130 LINE",
"370 104 OFFCURVE",
"332 80 OFFCURVE",
"272 80 CURVE SMOOTH",
"160 80 OFFCURVE",
"120 158 OFFCURVE",
"138 260 CURVE SMOOTH",
"154 354 OFFCURVE",
"216 440 OFFCURVE",
"312 440 CURVE SMOOTH",
"394 440 OFFCURVE",
"448 376 OFFCURVE",
"430 304 CURVE",
"128 304 LINE",
"110 222 LINE",
"502 222 LINE",
"504 226 OFFCURVE",
"516 252 OFFCURVE",
"522 282 CURVE SMOOTH",
"550 414 OFFCURVE",
"470 528 OFFCURVE",
"322 528 CURVE SMOOTH",
"188 528 OFFCURVE",
"80 432 OFFCURVE",
"48 278 CURVE SMOOTH",
"12 104 OFFCURVE",
"106 -8 OFFCURVE",
"264 -8 CURVE SMOOTH"
);
}
);
width = 560;
},
{
anchors = (
{
name = bottom;
position = "{248, 0}";
},
{
name = cedilla;
position = "{252, 0}";
},
{
name = ogonek;
position = "{426, 34}";
},
{
name = top;
position = "{352, 528}";
}
);
layerId = "2D8F7115-C311-411E-929D-56333CF7FFB2";
paths = (
{
closed = 1;
nodes = (
"336 -8 OFFCURVE",
"392 4 OFFCURVE",
"434 24 CURVE",
"406 158 LINE",
"386 146 OFFCURVE",
"334 126 OFFCURVE",
"288 126 CURVE SMOOTH",
"226 126 OFFCURVE",
"168 162 OFFCURVE",
"176 250 CURVE SMOOTH",
"182 310 OFFCURVE",
"222 400 OFFCURVE",
"316 400 CURVE SMOOTH",
"356 400 OFFCURVE",
"402 382 OFFCURVE",
"390 318 CURVE",
"182 318 LINE",
"158 206 LINE",
"516 206 LINE",
"522 216 OFFCURVE",
"532 252 OFFCURVE",
"536 268 CURVE SMOOTH",
"572 414 OFFCURVE",
"476 536 OFFCURVE",
"324 536 CURVE SMOOTH",
"194 536 OFFCURVE",
"70 446 OFFCURVE",
"36 280 CURVE SMOOTH",
"2 108 OFFCURVE",
"96 -8 OFFCURVE",
"278 -8 CURVE SMOOTH"
);
}
);
width = 566;
},
{
anchors = (
{
name = bottom;
position = "{242, 0}";
},
{
name = cedilla;
position = "{242, 0}";
},
{
name = ogonek;
position = "{432, 40}";
},
{
name = top;
position = "{350, 524}";
}
);
associatedMasterId = "AB099EFE-E788-4EFC-8633-CF147CB782A6";
guideLines = (
{
angle = 112.5;
position = "{382, 92}";
}
);
layerId = "AA661440-5A2D-4B91-AB53-22C2BE9F23B9";
name = "{600}";
paths = (
{
closed = 1;
nodes = (
"326 -8 OFFCURVE",
"386 4 OFFCURVE",
"438 36 CURVE",
"412 142 LINE",
"376 120 OFFCURVE",
"326 102 OFFCURVE",
"276 102 CURVE SMOOTH",
"178 102 OFFCURVE",
"140 168 OFFCURVE",
"158 264 CURVE SMOOTH",
"174 354 OFFCURVE",
"228 420 OFFCURVE",
"314 420 CURVE SMOOTH",
"392 420 OFFCURVE",
"429 364 OFFCURVE",
"416 306 CURVE",
"150 306 LINE",
"128 212 LINE",
"510 212 LINE",
"510 220 OFFCURVE",
"526 246 OFFCURVE",
"534 288 CURVE SMOOTH",
"560 424 OFFCURVE",
"468 530 OFFCURVE",
"328 530 CURVE SMOOTH",
"190 530 OFFCURVE",
"72 426 OFFCURVE",
"40 266 CURVE SMOOTH",
"6 96 OFFCURVE",
"102 -8 OFFCURVE",
"270 -8 CURVE SMOOTH"
);
}
);
width = 566;
}
);
leftKerningGroup = LAT_O_LC;
leftMetricsKey = o;
rightKerningGroup = LAT_E_LC;
unicode = 0065;
},
{
glyphname = f;
lastChange = "2020-06-09 03:13:12 +0000";
layers = (
{
anchors = (
{
name = bottom;
position = "{94, 0}";
},
{
name = top;
position = "{352, 752}";
}
);
layerId = "AB099EFE-E788-4EFC-8633-CF147CB782A6";
paths = (
{
closed = 1;
nodes = (
"106 0 LINE",
"246 618 LINE SMOOTH",
"260 676 OFFCURVE",
"288 732 OFFCURVE",
"352 732 CURVE SMOOTH",
"368 732 OFFCURVE",
"390 728 OFFCURVE",
"400 720 CURVE",
"416 746 LINE",
"400 756 OFFCURVE",
"376 760 OFFCURVE",
"356 760 CURVE SMOOTH",
"278 760 OFFCURVE",
"234 698 OFFCURVE",
"216 616 CURVE SMOOTH",
"76 0 LINE"
);
},
{
closed = 1;
nodes = (
"344 484 LINE",
"350 512 LINE",
"110 512 LINE",
"102 484 LINE"
);
}
);
width = 342;
},
{
anchors = (
{
name = bottom;
position = "{150, 0}";
},
{
name = top;
position = "{386, 752}";
}
);
layerId = "2D8F7115-C311-411E-929D-56333CF7FFB2";
paths = (
{
closed = 1;
nodes = (
"230 0 LINE",
"354 550 LINE SMOOTH",
"363 592 OFFCURVE",
"388 618 OFFCURVE",
"422 618 CURVE SMOOTH",
"432 618 OFFCURVE",
"450 614 OFFCURVE",
"464 606 CURVE",
"544 742 LINE",
"514 758 OFFCURVE",
"462 770 OFFCURVE",
"412 770 CURVE SMOOTH",
"284 770 OFFCURVE",
"214 692 OFFCURVE",
"186 570 CURVE SMOOTH",
"56 0 LINE"
);
},
{
closed = 1;
nodes = (
"434 380 LINE",
"470 528 LINE",
"82 528 LINE",
"46 380 LINE"
);
}
);
width = 450;
},
{
anchors = (
{
name = bottom;
position = "{120, 0}";
},
{
name = top;
position = "{382, 752}";
}
);
associatedMasterId = "AB099EFE-E788-4EFC-8633-CF147CB782A6";
layerId = "D74EF1A5-D3D7-4756-8257-D68E12FD6949";
name = "Half {450}";
paths = (
{
closed = 1;
nodes = (
"168 0 LINE",
"304 594 LINE SMOOTH",
"314 638 OFFCURVE",
"340 666 OFFCURVE",
"382 666 CURVE SMOOTH",
"404 666 OFFCURVE",
"416 662 OFFCURVE",
"426 658 CURVE",
"478 742 LINE",
"452 754 OFFCURVE",
"422 760 OFFCURVE",
"388 760 CURVE SMOOTH",
"288 760 OFFCURVE",
"227 700 OFFCURVE",
"206 610 CURVE SMOOTH",
"66 0 LINE"
);
},
{
closed = 1;
nodes = (
"390 430 LINE",
"412 520 LINE",
"94 520 LINE",
"70 430 LINE"
);
}
);
width = 392;
},
{
anchors = (
{
name = bottom;
position = "{133, 0}";
},
{
name = top;
position = "{384, 752}";
}
);
associatedMasterId = "AB099EFE-E788-4EFC-8633-CF147CB782A6";
layerId = "516F4623-5CD8-441C-8966-F6D84AE729AE";
name = "{600}";
paths = (
{
closed = 1;
nodes = (
"195 0 LINE",
"325 575 LINE SMOOTH",
"335 618 OFFCURVE",
"361 645 OFFCURVE",
"399 645 CURVE SMOOTH",
"416 645 OFFCURVE",
"431 639 OFFCURVE",
"442 632 CURVE",
"506 738 LINE",
"479 754 OFFCURVE",
"439 764 OFFCURVE",
"398 764 CURVE SMOOTH",
"286 764 OFFCURVE",
"221 697 OFFCURVE",
"197 593 CURVE SMOOTH",
"62 0 LINE"
);
},
{
closed = 1;
nodes = (
"414 416 LINE",
"440 524 LINE",
"88 524 LINE",
"62 416 LINE"
);
}
);
width = 418;
}
);
leftKerningGroup = LAT_F_LC;
rightKerningGroup = LAT_F_LC;
unicode = 0066;
},
{
glyphname = g;
lastChange = "2020-06-09 08:19:25 +0000";
layers = (
{
anchors = (
{
name = bottom;
position = "{184, -206}";
},
{
name = top;
position = "{344, 512}";
}
);
components = (
{
name = "_part.bowl-reverse";
}
);
layerId = "AB099EFE-E788-4EFC-8633-CF147CB782A6";
paths = (
{
closed = 1;
nodes = (
"262 -212 OFFCURVE",
"396 -158 OFFCURVE",
"432 2 CURVE SMOOTH",
"548 512 LINE",
"518 512 LINE",
"492 396 LINE",
"488 396 LINE",
"490 374 LINE",
"434 138 LINE",
"420 98 LINE",
"424 98 LINE",
"402 4 LINE SMOOTH",
"368 -140 OFFCURVE",
"248 -184 OFFCURVE",
"174 -184 CURVE SMOOTH",
"120 -184 OFFCURVE",
"64 -162 OFFCURVE",
"30 -120 CURVE",
"12 -146 LINE",
"44 -184 OFFCURVE",
"110 -212 OFFCURVE",
"174 -212 CURVE SMOOTH"
);
}
);
width = 578;
},
{
anchors = (
{
name = bottom;
position = "{206, -206}";
},
{
name = top;
position = "{362, 528}";
}
);
components = (
{
name = "_part.bowl-reverse";
transform = "{1, 0, 0, 0.9597, 2, 22}";
}
);
layerId = "2D8F7115-C311-411E-929D-56333CF7FFB2";
paths = (
{
closed = 1;
nodes = (
"348 -214 OFFCURVE",
"480 -134 OFFCURVE",
"516 26 CURVE SMOOTH",
"630 528 LINE",
"474 528 LINE",
"458 462 LINE",
"420 462 LINE",
"442 420 LINE",
"370 112 LINE",
"348 66 LINE",
"362 66 LINE",
"354 32 LINE SMOOTH",
"338 -35 OFFCURVE",
"272 -70 OFFCURVE",
"202 -70 CURVE SMOOTH",
"144 -70 OFFCURVE",
"90 -50 OFFCURVE",
"60 -26 CURVE",
"-18 -152 LINE",
"20 -178 OFFCURVE",
"92 -214 OFFCURVE",
"194 -214 CURVE SMOOTH"
);
}
);
width = 630;
},
{
anchors = (
{
name = bottom;
position = "{196, -206}";
},
{
name = top;
position = "{354, 520}";
}
);
associatedMasterId = "AB099EFE-E788-4EFC-8633-CF147CB782A6";
components = (
{
name = "_part.bowl-reverse";
}
);
guideLines = (
{
angle = 67.5;
position = "{46, 4}";
}
);
layerId = "D548E82C-F1D5-44DE-B786-3582CB4D3885";
name = "Half {450}";
paths = (
{
closed = 1;
nodes = (
"334 -214 OFFCURVE",
"443 -134 OFFCURVE",
"476 10 CURVE SMOOTH",
"592 520 LINE",
"492 520 LINE",
"474 448 LINE",
"448 448 LINE",
"464 384 LINE",
"404 122 LINE",
"368 60 LINE",
"386 60 LINE",
"378 16 LINE SMOOTH",
"362 -74 OFFCURVE",
"282 -124 OFFCURVE",
"194 -124 CURVE SMOOTH",
"126 -124 OFFCURVE",
"68 -92 OFFCURVE",
"44 -72 CURVE",
"-10 -158 LINE",
"24 -180 OFFCURVE",
"102 -214 OFFCURVE",
"192 -214 CURVE SMOOTH"
);
}
);
width = 612;
}
);
leftKerningGroup = LAT_G_LC;
rightKerningGroup = LAT_G_LC;
unicode = 0067;
},
{
color = 4;
glyphname = g.ss01;
lastChange = "2020-06-08 08:16:47 +0000";
layers = (
{
anchors = (
{
name = bottom;
position = "{204, -206}";
},
{
name = top;
position = "{364, 512}";
}
);
components = (
{
name = "_part.bowl-reverse.ss01";
}
);
layerId = "AB099EFE-E788-4EFC-8633-CF147CB782A6";
paths = (
{
closed = 1;
nodes = (
"304 -214 OFFCURVE",
"445 -152 OFFCURVE",
"480 2 CURVE SMOOTH",
"596 512 LINE",
"566 512 LINE",
"540 396 LINE",
"532 396 LINE",
"534 362 LINE",
"486 154 LINE",
"470 120 LINE",
"478 120 LINE",
"450 4 LINE SMOOTH",
"417 -134 OFFCURVE",
"290 -184 OFFCURVE",
"208 -184 CURVE SMOOTH",
"146 -184 OFFCURVE",
"88 -162 OFFCURVE",
"58 -130 CURVE",
"34 -156 LINE",
"64 -184 OFFCURVE",
"130 -214 OFFCURVE",
"202 -214 CURVE SMOOTH"
);
}
);
width = 630;
},
{
anchors = (
{
name = bottom;
position = "{222, -206}";
},
{
name = top;
position = "{378, 528}";
}
);
components = (
{
name = "_part.bowl-reverse.ss01";
transform = "{1, 0, 0, 0.95973, 2, 22}";
}
);
layerId = "2D8F7115-C311-411E-929D-56333CF7FFB2";
paths = (
{
closed = 1;
nodes = (
"371 -218 OFFCURVE",
"499 -134 OFFCURVE",
"536 26 CURVE SMOOTH",
"650 528 LINE",
"486 528 LINE",
"474 478 LINE",
"454 478 LINE",
"462 418 LINE",
"388 104 LINE",
"370 72 LINE",
"376 72 LINE",
"368 32 LINE SMOOTH",
"353 -38 OFFCURVE",
"263 -74 OFFCURVE",
"198 -74 CURVE SMOOTH",
"157 -74 OFFCURVE",
"109 -58 OFFCURVE",
"80 -36 CURVE",
"4 -166 LINE",
"41 -188 OFFCURVE",
"113 -218 OFFCURVE",
"206 -218 CURVE SMOOTH"
);
}
);
width = 660;
},
{
anchors = (
{
name = bottom;
position = "{222, -206}";
},
{
name = top;
position = "{382, 520}";
}
);
associatedMasterId = "AB099EFE-E788-4EFC-8633-CF147CB782A6";
components = (
{
alignment = -1;
name = "_part.bowl-reverse.ss01";
transform = "{1, 0, 0, 0.97986, 0, 12}";
}
);
layerId = "D548E82C-F1D5-44DE-B786-3582CB4D3885";
name = "Half {450}";
paths = (
{
closed = 1;
nodes = (
"344 -216 OFFCURVE",
"478 -140 OFFCURVE",
"514 18 CURVE SMOOTH",
"628 520 LINE",
"528 520 LINE",
"514 460 LINE",
"500 460 LINE",
"508 416 LINE",
"440 120 LINE",
"418 70 LINE",
"422 70 LINE",
"410 16 LINE SMOOTH",
"387 -88 OFFCURVE",
"284 -124 OFFCURVE",
"208 -126 CURVE SMOOTH",
"146 -126 OFFCURVE",
"94 -102 OFFCURVE",
"58 -68 CURVE",
"2 -160 LINE",
"40 -192 OFFCURVE",
"114 -216 OFFCURVE",
"194 -216 CURVE SMOOTH"
);
}
);
width = 642;
}
);
leftKerningGroup = LAT_G_LC;
leftMetricsKey = g;
rightKerningGroup = LAT_G_LC;
rightMetricsKey = g;
},
{
color = 7;
glyphname = g.ss03;
lastChange = "2020-06-08 07:50:20 +0000";
layers = (
{
anchors = (
{
name = bottom;
position = "{176, -214}";
},
{
name = top;
position = "{328, 512}";
}
);
background = {
paths = (
{
closed = 1;
nodes = (
"430 454 LINE",
"448 478 LINE SMOOTH",
"462 497 OFFCURVE",
"487 516 OFFCURVE",
"532 516 CURVE",
"532 544 LINE",
"489 545 OFFCURVE",
"452 528 OFFCURVE",
"428 500 CURVE SMOOTH",
"410 476 LINE"
);
}
);
};
layerId = "AB099EFE-E788-4EFC-8633-CF147CB782A6";
paths = (
{
closed = 1;
nodes = (
"310 -214 OFFCURVE",
"424 -138 OFFCURVE",
"442 -58 CURVE SMOOTH",
"460 20 OFFCURVE",
"406 62 OFFCURVE",
"314 62 CURVE SMOOTH",
"182 62 LINE SMOOTH",
"114 62 OFFCURVE",
"78 94 OFFCURVE",
"90 154 CURVE SMOOTH",
"96 178 OFFCURVE",
"118 202 OFFCURVE",
"134 214 CURVE",
"118 236 LINE",
"98 222 OFFCURVE",
"72 192 OFFCURVE",
"64 158 CURVE SMOOTH",
"50 98 OFFCURVE",
"80 34 OFFCURVE",
"176 34 CURVE SMOOTH",
"318 34 LINE SMOOTH",
"394 34 OFFCURVE",
"422 -4 OFFCURVE",
"412 -46 CURVE SMOOTH",
"392 -132 OFFCURVE",
"290 -186 OFFCURVE",
"172 -186 CURVE SMOOTH",
"64 -186 OFFCURVE",
"2 -140 OFFCURVE",
"18 -70 CURVE SMOOTH",
"30 -18 OFFCURVE",
"86 36 OFFCURVE",
"128 52 CURVE",
"104 70 LINE",
"52 44 OFFCURVE",
"2 -10 OFFCURVE",
"-10 -68 CURVE SMOOTH",
"-28 -152 OFFCURVE",
"42 -214 OFFCURVE",
"170 -214 CURVE SMOOTH"
);
},
{
closed = 1;
nodes = (
"370 162 OFFCURVE",
"462 238 OFFCURVE",
"484 340 CURVE SMOOTH",
"508 448 OFFCURVE",
"444 520 OFFCURVE",
"328 520 CURVE SMOOTH",
"214 520 OFFCURVE",
"120 452 OFFCURVE",
"96 346 CURVE SMOOTH",
"72 238 OFFCURVE",
"138 162 OFFCURVE",
"254 162 CURVE SMOOTH"
);
},
{
closed = 1;
nodes = (
"154 190 OFFCURVE",
"108 262 OFFCURVE",
"126 340 CURVE SMOOTH",
"146 428 OFFCURVE",
"230 492 OFFCURVE",
"326 492 CURVE SMOOTH",
"420 492 OFFCURVE",
"474 434 OFFCURVE",
"454 344 CURVE SMOOTH",
"434 256 OFFCURVE",
"350 190 OFFCURVE",
"252 190 CURVE SMOOTH"
);
},
{
closed = 1;
nodes = (
"498 470 OFFCURVE",
"538 488 OFFCURVE",
"578 506 CURVE",
"566 534 LINE",
"526 516 OFFCURVE",
"490 494 OFFCURVE",
"452 472 CURVE",
"462 446 LINE"
);
}
);
width = 576;
},
{
anchors = (
{
name = bottom;
position = "{186, -218}";
},
{
name = top;
position = "{346, 528}";
}
);
background = {
paths = (
{
closed = 1;
nodes = (
"462 430 LINE",
"472 446 LINE SMOOTH",
"488 471 OFFCURVE",
"532 475 OFFCURVE",
"586 472 CURVE",
"586 598 LINE",
"516 598 OFFCURVE",
"453 570 OFFCURVE",
"418 522 CURVE SMOOTH",
"382 474 LINE"
);
}
);
};
layerId = "2D8F7115-C311-411E-929D-56333CF7FFB2";
paths = (
{
closed = 1;
nodes = (
"380 -214 OFFCURVE",
"484 -156 OFFCURVE",
"508 -58 CURVE SMOOTH",
"530 34 OFFCURVE",
"480 102 OFFCURVE",
"364 102 CURVE SMOOTH",
"244 102 LINE SMOOTH",
"190 102 OFFCURVE",
"156 114 OFFCURVE",
"160 136 CURVE SMOOTH",
"166 166 OFFCURVE",
"186 184 OFFCURVE",
"202 190 CURVE",
"148 250 LINE",
"80 220 OFFCURVE",
"52 162 OFFCURVE",
"46 136 CURVE SMOOTH",
"26 52 OFFCURVE",
"106 -4 OFFCURVE",
"246 -4 CURVE SMOOTH",
"304 -4 LINE SMOOTH",
"340 -4 OFFCURVE",
"358 -12 OFFCURVE",
"356 -24 CURVE SMOOTH",
"348 -62 OFFCURVE",
"292 -88 OFFCURVE",
"218 -88 CURVE SMOOTH",
"152 -88 OFFCURVE",
"84 -80 OFFCURVE",
"92 -42 CURVE SMOOTH",
"98 -16 OFFCURVE",
"130 18 OFFCURVE",
"160 26 CURVE",
"64 64 LINE",
"16 52 OFFCURVE",
"-36 -2 OFFCURVE",
"-48 -52 CURVE SMOOTH",
"-70 -148 OFFCURVE",
"20 -214 OFFCURVE",
"198 -214 CURVE SMOOTH"
);
},
{
closed = 1;
nodes = (
"396 150 OFFCURVE",
"502 224 OFFCURVE",
"526 330 CURVE SMOOTH",
"554 448 OFFCURVE",
"472 536 OFFCURVE",
"338 536 CURVE SMOOTH",
"216 536 OFFCURVE",
"108 468 OFFCURVE",
"86 368 CURVE SMOOTH",
"58 244 OFFCURVE",
"138 150 OFFCURVE",
"272 150 CURVE SMOOTH"
);
},
{
closed = 1;
nodes = (
"238 266 OFFCURVE",
"216 290 OFFCURVE",
"224 328 CURVE SMOOTH",
"234 372 OFFCURVE",
"280 416 OFFCURVE",
"330 416 CURVE SMOOTH",
"372 416 OFFCURVE",
"392 390 OFFCURVE",
"384 354 CURVE SMOOTH",
"374 306 OFFCURVE",
"330 266 OFFCURVE",
"280 266 CURVE SMOOTH"
);
},
{
closed = 1;
nodes = (
"554 450 OFFCURVE",
"572 458 OFFCURVE",
"634 458 CURVE",
"624 584 LINE",
"572 570 OFFCURVE",
"530 554 OFFCURVE",
"438 496 CURVE",
"502 432 LINE"
);
}
);
width = 596;
},
{
anchors = (
{
name = bottom;
position = "{186, -216}";
},
{
name = top;
position = "{350, 520}";
}
);
associatedMasterId = "AB099EFE-E788-4EFC-8633-CF147CB782A6";
background = {
paths = (
{
closed = 1;
nodes = (
"487 509 OFFCURVE",
"504 512 OFFCURVE",
"520 516 CURVE",
"518 588 LINE",
"489 583 OFFCURVE",
"465 577 OFFCURVE",
"442 566 CURVE",
"420 553 OFFCURVE",
"403 541 OFFCURVE",
"388 528 CURVE",
"374 504 LINE",
"347 512 OFFCURVE",
"319 520 OFFCURVE",
"288 518 CURVE",
"250 520 OFFCURVE",
"217 512 OFFCURVE",
"188 498 CURVE",
"158 482 OFFCURVE",
"135 462 OFFCURVE",
"120 436 CURVE",
"102 412 OFFCURVE",
"92 383 OFFCURVE",
"92 350 CURVE",
"92 317 OFFCURVE",
"102 288 OFFCURVE",
"120 262 CURVE",
"125 250 OFFCURVE",
"133 242 OFFCURVE",
"142 234 CURVE",
"137 225 OFFCURVE",
"132 220 OFFCURVE",
"128 214 CURVE",
"115 192 OFFCURVE",
"109 171 OFFCURVE",
"108 146 CURVE",
"109 122 OFFCURVE",
"116 100 OFFCURVE",
"130 78 CURVE",
"128 78 OFFCURVE",
"128 78 OFFCURVE",
"130 78 CURVE",
"113 66 OFFCURVE",
"100 51 OFFCURVE",
"90 32 CURVE",
"74 7 OFFCURVE",
"67 -18 OFFCURVE",
"66 -48 CURVE",
"67 -78 OFFCURVE",
"77 -107 OFFCURVE",
"94 -132 CURVE",
"115 -156 OFFCURVE",
"143 -178 OFFCURVE",
"178 -192 CURVE",
"213 -206 OFFCURVE",
"252 -213 OFFCURVE",
"294 -214 CURVE",
"341 -213 OFFCURVE",
"384 -206 OFFCURVE",
"422 -192 CURVE",
"458 -178 OFFCURVE",
"488 -157 OFFCURVE",
"510 -132 CURVE",
"531 -106 OFFCURVE",
"543 -75 OFFCURVE",
"544 -40 CURVE",
"543 -4 OFFCURVE",
"531 24 OFFCURVE",
"512 44 CURVE",
"489 60 OFFCURVE",
"465 73 OFFCURVE",
"438 78 CURVE",
"411 83 OFFCURVE",
"381 86 OFFCURVE",
"348 86 CURVE",
"286 86 LINE",
"252 86 OFFCURVE",
"227 92 OFFCURVE",
"212 104 CURVE",
"198 118 OFFCURVE",
"190 134 OFFCURVE",
"190 152 CURVE",
"190 168 OFFCURVE",
"195 182 OFFCURVE",
"204 194 CURVE",
"229 182 OFFCURVE",
"258 177 OFFCURVE",
"290 176 CURVE",
"326 177 OFFCURVE",
"360 184 OFFCURVE",
"388 198 CURVE",
"417 214 OFFCURVE",
"440 234 OFFCURVE",
"458 262 CURVE",
"473 287 OFFCURVE",
"481 317 OFFCURVE",
"480 348 CURVE",
"481 382 OFFCURVE",
"473 411 OFFCURVE",
"456 436 CURVE",
"450 447 OFFCURVE",
"442 456 OFFCURVE",
"434 464 CURVE",
"438 470 LINE",
"446 482 OFFCURVE",
"458 492 OFFCURVE",
"470 502 CURVE"
);
},
{
closed = 1;
nodes = (
"348 8 LINE",
"376 9 OFFCURVE",
"402 5 OFFCURVE",
"424 -2 CURVE",
"443 -8 OFFCURVE",
"454 -26 OFFCURVE",
"454 -50 CURVE",
"454 -66 OFFCURVE",
"447 -82 OFFCURVE",
"432 -96 CURVE",
"416 -109 OFFCURVE",
"397 -119 OFFCURVE",
"374 -126 CURVE",
"349 -133 OFFCURVE",
"324 -136 OFFCURVE",
"296 -138 CURVE",
"255 -136 OFFCURVE",
"219 -127 OFFCURVE",
"190 -110 CURVE",
"163 -92 OFFCURVE",
"150 -71 OFFCURVE",
"148 -48 CURVE",
"150 -29 OFFCURVE",
"155 -11 OFFCURVE",
"168 6 CURVE",
"174 14 OFFCURVE",
"180 23 OFFCURVE",
"188 28 CURVE",
"187 29 OFFCURVE",
"187 28 OFFCURVE",
"190 28 CURVE",
"215 14 OFFCURVE",
"247 9 OFFCURVE",
"288 8 CURVE"
);
},
{
closed = 1;
nodes = (
"347 261 OFFCURVE",
"321 251 OFFCURVE",
"290 250 CURVE",
"256 252 OFFCURVE",
"228 261 OFFCURVE",
"208 282 CURVE",
"186 297 OFFCURVE",
"176 321 OFFCURVE",
"176 350 CURVE",
"176 379 OFFCURVE",
"186 403 OFFCURVE",
"208 422 CURVE",
"227 438 OFFCURVE",
"255 447 OFFCURVE",
"288 448 CURVE",
"320 447 OFFCURVE",
"346 437 OFFCURVE",
"368 422 CURVE",
"388 402 OFFCURVE",
"399 378 OFFCURVE",
"400 348 CURVE",
"399 321 OFFCURVE",
"388 297 OFFCURVE",
"368 282 CURVE"
);
},
{
closed = 1;
nodes = (
"444 454 LINE",
"458 474 LINE SMOOTH",
"473 495 OFFCURVE",
"506 508 OFFCURVE",
"558 508 CURVE",
"558 584 LINE",
"499 584 OFFCURVE",
"442 565 OFFCURVE",
"416 528 CURVE SMOOTH",
"392 490 LINE"
);
}
);
};
layerId = "D548E82C-F1D5-44DE-B786-3582CB4D3885";
name = "Half {450}";
paths = (
{
closed = 1;
nodes = (
"350 -216 OFFCURVE",
"464 -142 OFFCURVE",
"488 -48 CURVE SMOOTH",
"508 34 OFFCURVE",
"452 88 OFFCURVE",
"358 88 CURVE SMOOTH",
"240 88 LINE SMOOTH",
"204 88 OFFCURVE",
"150 92 OFFCURVE",
"160 142 CURVE SMOOTH",
"166 164 OFFCURVE",
"180 178 OFFCURVE",
"204 192 CURVE",
"156 238 LINE",
"110 212 OFFCURVE",
"82 182 OFFCURVE",
"74 142 CURVE SMOOTH",
"60 82 OFFCURVE",
"96 2 OFFCURVE",
"234 2 CURVE SMOOTH",
"302 2 LINE SMOOTH",
"352 2 OFFCURVE",
"394 -2 OFFCURVE",
"386 -42 CURVE SMOOTH",
"374 -88 OFFCURVE",
"300 -126 OFFCURVE",
"206 -126 CURVE SMOOTH",
"130 -126 OFFCURVE",
"68 -104 OFFCURVE",
"80 -48 CURVE SMOOTH",
"88 -10 OFFCURVE",
"128 16 OFFCURVE",
"162 26 CURVE",
"90 66 LINE",
"36 42 OFFCURVE",
"-6 -4 OFFCURVE",
"-16 -52 CURVE SMOOTH",
"-40 -152 OFFCURVE",
"50 -216 OFFCURVE",
"192 -216 CURVE SMOOTH"
);
},
{
closed = 1;
nodes = (
"390 158 OFFCURVE",
"492 236 OFFCURVE",
"516 342 CURVE SMOOTH",
"542 450 OFFCURVE",
"468 528 OFFCURVE",
"350 528 CURVE SMOOTH",
"234 528 OFFCURVE",
"126 454 OFFCURVE",
"102 346 CURVE SMOOTH",
"76 238 OFFCURVE",
"154 158 OFFCURVE",
"274 158 CURVE SMOOTH"
);
},
{
closed = 1;
nodes = (
"228 244 OFFCURVE",
"188 284 OFFCURVE",
"200 340 CURVE SMOOTH",
"212 394 OFFCURVE",
"272 440 OFFCURVE",
"338 440 CURVE SMOOTH",
"388 440 OFFCURVE",
"430 412 OFFCURVE",
"416 346 CURVE SMOOTH",
"402 286 OFFCURVE",
"352 244 OFFCURVE",
"288 244 CURVE SMOOTH"
);
},
{
closed = 1;
nodes = (
"534 454 OFFCURVE",
"562 468 OFFCURVE",
"614 476 CURVE",
"590 566 LINE",
"542 548 OFFCURVE",
"496 526 OFFCURVE",
"436 490 CURVE",
"488 436 LINE"
);
}
);
width = 596;
}
);
leftKerningGroup = LAT_G_LC;
rightKerningGroup = LAT_G_LC;
},
{
glyphname = h;
lastChange = "2020-06-09 00:15:21 +0000";
layers = (
{
anchors = (
{
name = bottom;
position = "{212, 0}";
},
{
name = center;
position = "{182, 616}";
},
{
name = top;
position = "{208, 720}";
}
);
layerId = "AB099EFE-E788-4EFC-8633-CF147CB782A6";
paths = (
{
closed = 1;
nodes = (
"56 0 LINE",
"130 324 LINE SMOOTH",
"152 418 OFFCURVE",
"246 492 OFFCURVE",
"342 492 CURVE SMOOTH",
"456 492 OFFCURVE",
"456 388 OFFCURVE",
"438 308 CURVE SMOOTH",
"368 0 LINE",
"398 0 LINE",
"468 312 LINE SMOOTH",
"496 438 OFFCURVE",
"456 520 OFFCURVE",
"338 520 CURVE SMOOTH",
"256 520 OFFCURVE",
"180 470 OFFCURVE",
"138 404 CURVE",
"166 428 LINE",
"154 428 LINE",
"226 752 LINE",
"196 752 LINE",
"26 0 LINE"
);
}
);
width = 536;
},
{
anchors = (
{
name = bottom;
position = "{242, 0}";
},
{
name = center;
position = "{230, 634}";
},
{
name = top;
position = "{256, 752}";
}
);
background = {
paths = (
{
closed = 1;
nodes = (
"558 0 LINE",
"558 340 LINE SMOOTH",
"558 470 OFFCURVE",
"498 536 OFFCURVE",
"390 536 CURVE SMOOTH",
"302 536 OFFCURVE",
"214 490 OFFCURVE",
"200 426 CURVE",
"224 308 LINE",
"232 342 OFFCURVE",
"280 396 OFFCURVE",
"332 394 CURVE SMOOTH",
"382 396 OFFCURVE",
"382 338 OFFCURVE",
"382 290 CURVE SMOOTH",
"382 0 LINE"
);
}
);
};
layerId = "2D8F7115-C311-411E-929D-56333CF7FFB2";
paths = (
{
closed = 1;
nodes = (
"174 0 LINE",
"242 300 LINE SMOOTH",
"255 356 OFFCURVE",
"294 394 OFFCURVE",
"342 394 CURVE SMOOTH",
"376 394 OFFCURVE",
"399 374 OFFCURVE",
"386 318 CURVE SMOOTH",
"314 0 LINE",
"488 0 LINE",
"566 342 LINE SMOOTH",
"592 458 OFFCURVE",
"542 536 OFFCURVE",
"428 536 CURVE SMOOTH",
"360 536 OFFCURVE",
"276 508 OFFCURVE",
"244 432 CURVE",
"296 480 LINE",
"284 480 LINE",
"344 752 LINE",
"170 752 LINE",
"0 0 LINE"
);
}
);
width = 604;
},
{
anchors = (
{
name = bottom;
position = "{232, 0}";
},
{
name = center;
position = "{208, 624}";
},
{
name = top;
position = "{234, 752}";
}
);
associatedMasterId = "AB099EFE-E788-4EFC-8633-CF147CB782A6";
background = {
paths = (
{
closed = 1;
nodes = (
"512 0 LINE",
"512 332 LINE SMOOTH",
"512 415 OFFCURVE",
"477 528 OFFCURVE",
"340 528 CURVE SMOOTH",
"264 528 OFFCURVE",
"192 496 OFFCURVE",
"154 432 CURVE",
"156 306 LINE",
"193 388 OFFCURVE",
"255 438 OFFCURVE",
"316 438 CURVE SMOOTH",
"409 438 OFFCURVE",
"410 349 OFFCURVE",
"410 304 CURVE SMOOTH",
"410 0 LINE"
);
}
);
};
layerId = "39EFB1E4-533D-4678-8F1E-E84D7E2E78D0";
name = "Half {450}";
paths = (
{
closed = 1;
nodes = (
"114 0 LINE",
"186 308 LINE SMOOTH",
"206 392 OFFCURVE",
"272 436 OFFCURVE",
"340 436 CURVE SMOOTH",
"410 436 OFFCURVE",
"441 394 OFFCURVE",
"422 312 CURVE SMOOTH",
"350 0 LINE",
"452 0 LINE",
"528 330 LINE SMOOTH",
"547 412 OFFCURVE",
"530 528 OFFCURVE",
"384 528 CURVE SMOOTH",
"308 528 OFFCURVE",
"234 498 OFFCURVE",
"190 428 CURVE",
"244 466 LINE",
"220 466 LINE",
"286 752 LINE",
"184 752 LINE",
"12 0 LINE"
);
}
);
width = 580;
}
);
leftKerningGroup = LAT_H_UC;
rightKerningGroup = LAT_N_LC;
rightMetricsKey = n;
unicode = 0068;
},
{
glyphname = idotless;
lastChange = "2020-06-08 07:50:20 +0000";
layers = (
{
anchors = (
{
name = bottom;
position = "{42, 0}";
},
{
name = ogonek;
position = "{58, 0}";
},
{
name = top;
position = "{160, 512}";
}
);
layerId = "AB099EFE-E788-4EFC-8633-CF147CB782A6";
paths = (
{
closed = 1;
nodes = (
"60 0 LINE",
"176 512 LINE",
"146 512 LINE",
"30 0 LINE"
);
}
);
width = 204;
},
{
anchors = (
{
name = bottom;
position = "{90, 0}";
},
{
name = ogonek;
position = "{180, 0}";
},
{
name = top;
position = "{210, 528}";
}
);
guideLines = (
{
angle = 60;
position = "{84, 0}";
}
);
layerId = "2D8F7115-C311-411E-929D-56333CF7FFB2";
paths = (
{
closed = 1;
nodes = (
"176 0 LINE",
"296 528 LINE",
"122 528 LINE",
"2 0 LINE"
);
}
);
width = 298;
},
{
anchors = (
{
name = bottom;
position = "{68, 0}";
},
{
name = ogonek;
position = "{72, 0}";
},
{
name = top;
position = "{188, 520}";
}
);
associatedMasterId = "AB099EFE-E788-4EFC-8633-CF147CB782A6";
layerId = "AE9AEE94-C3D5-4AA6-8DA1-95250520065B";
name = "Half {450}";
paths = (
{
closed = 1;
nodes = (
"118 0 LINE",
"238 520 LINE",
"136 520 LINE",
"16 0 LINE"
);
}
);
width = 254;
}
);
unicode = 0131;
},
{
color = 8;
glyphname = idotless.ss05;
lastChange = "2020-06-08 07:50:20 +0000";
layers = (
{
anchors = (
{
name = bottom;
position = "{82, 0}";
},
{
name = center;
position = "{110, 278}";
},
{
name = ogonek;
position = "{152, 6}";
},
{
name = top;
position = "{164, 512}";
}
);
guideLines = (
{
angle = 80;
position = "{58, -8}";
}
);
layerId = "AB099EFE-E788-4EFC-8633-CF147CB782A6";
paths = (
{
closed = 1;
nodes = (
"120 -4 OFFCURVE",
"140 0 OFFCURVE",
"150 6 CURVE",
"156 36 LINE",
"146 32 OFFCURVE",
"124 24 OFFCURVE",
"106 24 CURVE SMOOTH",
"68 24 OFFCURVE",
"74 56 OFFCURVE",
"84 100 CURVE SMOOTH",
"176 512 LINE",
"148 512 LINE",
"56 110 LINE SMOOTH",
"44 56 OFFCURVE",
"34 -4 OFFCURVE",
"106 -4 CURVE SMOOTH"
);
}
);
width = 240;
},
{
anchors = (
{
name = bottom;
position = "{98, 0}";
},
{
name = center;
position = "{156, 278}";
},
{
name = ogonek;
position = "{244, 8}";
},
{
name = top;
position = "{210, 528}";
}
);
guideLines = (
{
angle = 80;
position = "{148, -8}";
}
);
layerId = "2D8F7115-C311-411E-929D-56333CF7FFB2";
paths = (
{
closed = 1;
nodes = (
"176 -8 OFFCURVE",
"208 -8 OFFCURVE",
"236 4 CURVE",
"262 144 LINE",
"250 140 OFFCURVE",
"234 136 OFFCURVE",
"226 136 CURVE SMOOTH",
"202 136 OFFCURVE",
"210 146 OFFCURVE",
"214 166 CURVE SMOOTH",
"294 528 LINE",
"122 528 LINE",
"32 132 LINE SMOOTH",
"14 50 OFFCURVE",
"58 -8 OFFCURVE",
"152 -8 CURVE SMOOTH"
);
}
);
width = 328;
},
{
anchors = (
{
name = bottom;
position = "{108, 0}";
},
{
name = center;
position = "{138, 278}";
},
{
name = ogonek;
position = "{218, 4}";
},
{
name = top;
position = "{198, 520}";
}
);
associatedMasterId = "AB099EFE-E788-4EFC-8633-CF147CB782A6";
guideLines = (
{
angle = 80;
position = "{58, -8}";
}
);
layerId = "FCE0932C-1120-48E4-95DD-8C2B49BF8D66";
name = "Half {450}";
paths = (
{
closed = 1;
nodes = (
"160 -8 OFFCURVE",
"192 -4 OFFCURVE",
"210 2 CURVE",
"230 94 LINE",
"220 90 OFFCURVE",
"202 86 OFFCURVE",
"184 86 CURVE SMOOTH",
"144 86 OFFCURVE",
"150 106 OFFCURVE",
"156 134 CURVE SMOOTH",
"244 520 LINE",
"142 520 LINE",
"52 126 LINE SMOOTH",
"32 38 OFFCURVE",
"62 -8 OFFCURVE",
"140 -8 CURVE SMOOTH"
);
}
);
width = 296;
}
);
},
{
glyphname = jdotless;
lastChange = "2020-06-08 07:50:20 +0000";
layers = (
{
anchors = (
{
name = center;
position = "{124, 278}";
},
{
name = top;
position = "{178, 512}";
}
);
layerId = "AB099EFE-E788-4EFC-8633-CF147CB782A6";
paths = (
{
closed = 1;
nodes = (
"-10 -214 OFFCURVE",
"42 -152 OFFCURVE",
"60 -70 CURVE SMOOTH",
"192 512 LINE",
"162 512 LINE",
"30 -72 LINE SMOOTH",
"16 -130 OFFCURVE",
"-24 -184 OFFCURVE",
"-90 -184 CURVE SMOOTH",
"-98 -184 OFFCURVE",
"-110 -182 OFFCURVE",
"-122 -178 CURVE",
"-126 -210 LINE",
"-114 -212 OFFCURVE",
"-100 -214 OFFCURVE",
"-90 -214 CURVE SMOOTH"
);
}
);
width = 220;
},
{
anchors = (
{
name = center;
position = "{166, 278}";
},
{
name = top;
position = "{220, 528}";
}
);
layerId = "2D8F7115-C311-411E-929D-56333CF7FFB2";
paths = (
{
closed = 1;
nodes = (
"82 -218 OFFCURVE",
"158 -136 OFFCURVE",
"186 -14 CURVE SMOOTH",
"308 528 LINE",
"136 528 LINE",
"14 -10 LINE SMOOTH",
"8 -36 OFFCURVE",
"-16 -64 OFFCURVE",
"-58 -64 CURVE SMOOTH",
"-66 -64 OFFCURVE",
"-86 -64 OFFCURVE",
"-98 -60 CURVE",
"-126 -208 LINE",
"-102 -214 OFFCURVE",
"-76 -218 OFFCURVE",
"-46 -218 CURVE SMOOTH"
);
}
);
width = 310;
},
{
anchors = (
{
name = center;
position = "{152, 278}";
},
{
name = top;
position = "{206, 520}";
}
);
associatedMasterId = "AB099EFE-E788-4EFC-8633-CF147CB782A6";
layerId = "07B42797-D86D-41F2-ABBA-4C41B9928AA5";
name = "{450}";
paths = (
{
closed = 1;
nodes = (
"42 -214 OFFCURVE",
"104 -150 OFFCURVE",
"124 -62 CURVE SMOOTH",
"258 520 LINE",
"154 520 LINE",
"24 -46 LINE SMOOTH",
"14 -94 OFFCURVE",
"-18 -118 OFFCURVE",
"-60 -118 CURVE SMOOTH",
"-72 -118 OFFCURVE",
"-88 -116 OFFCURVE",
"-102 -110 CURVE",
"-120 -208 LINE",
"-106 -212 OFFCURVE",
"-90 -214 OFFCURVE",
"-70 -214 CURVE SMOOTH"
);
}
);
width = 272;
}
);
leftKerningGroup = LAT_J_LC;
rightKerningGroup = LAT_J_LC;
unicode = 0237;
},
{
glyphname = k;
lastChange = "2020-06-09 08:22:40 +0000";
layers = (
{
anchors = (
{
name = bottom;
position = "{194, 0}";
},
{
name = top;
position = "{210, 752}";
}
);
layerId = "AB099EFE-E788-4EFC-8633-CF147CB782A6";
paths = (
{
closed = 1;
nodes = (
"56 0 LINE",
"112 246 LINE",
"152 246 LINE",
"134 258 LINE",
"340 0 LINE",
"378 0 LINE",
"162 270 LINE",
"160 252 LINE",
"470 512 LINE",
"428 512 LINE",
"132 264 LINE",
"158 276 LINE",
"118 276 LINE",
"226 752 LINE",
"196 752 LINE",
"26 0 LINE"
);
}
);
width = 476;
},
{
anchors = (
{
name = bottom;
position = "{252, 0}";
},
{
name = top;
position = "{258, 752}";
}
);
layerId = "2D8F7115-C311-411E-929D-56333CF7FFB2";
paths = (
{
closed = 1;
nodes = (
"174 0 LINE",
"224 222 LINE",
"264 222 LINE",
"220 248 LINE",
"352 0 LINE",
"534 0 LINE",
"354 318 LINE",
"346 218 LINE",
"654 528 LINE",
"438 528 LINE",
"230 296 LINE",
"288 322 LINE",
"248 322 LINE",
"344 752 LINE",
"170 752 LINE",
"0 0 LINE"
);
}
);
width = 616;
},
{
anchors = (
{
name = bottom;
position = "{224, 0}";
},
{
name = top;
position = "{234, 752}";
}
);
associatedMasterId = "AB099EFE-E788-4EFC-8633-CF147CB782A6";
layerId = "747C743E-195A-40A8-87E1-D6A4F966DDB7";
name = "Half {450}";
paths = (
{
closed = 1;
nodes = (
"114 0 LINE",
"170 238 LINE",
"210 238 LINE",
"180 266 LINE",
"360 0 LINE",
"478 0 LINE",
"274 302 LINE",
"266 248 LINE",
"578 520 LINE",
"438 520 LINE",
"178 298 LINE",
"232 324 LINE",
"188 324 LINE",
"286 752 LINE",
"184 752 LINE",
"12 0 LINE"
);
}
);
width = 562;
}
);
leftKerningGroup = LAT_H_UC;
leftMetricsKey = h;
rightKerningGroup = LAT_K_LC;
unicode = 006B;
},
{
glyphname = kgreenlandic;
lastChange = "2020-06-08 07:50:20 +0000";
layers = (
{
anchors = (
{
name = bottom;
position = "{180, 0}";
},
{
name = top;
position = "{296, 512}";
}
);
layerId = "AB099EFE-E788-4EFC-8633-CF147CB782A6";
paths = (
{
closed = 1;
nodes = (
"56 0 LINE",
"112 246 LINE",
"150 246 LINE",
"130 258 LINE",
"336 0 LINE",
"376 0 LINE",
"160 270 LINE",
"158 252 LINE",
"476 512 LINE",
"432 512 LINE",
"132 264 LINE",
"156 276 LINE",
"118 276 LINE",
"172 512 LINE",
"142 512 LINE",
"26 0 LINE"
);
}
);
width = 474;
},
{
anchors = (
{
name = bottom;
position = "{242, 0}";
},
{
name = top;
position = "{362, 528}";
}
);
layerId = "2D8F7115-C311-411E-929D-56333CF7FFB2";
paths = (
{
closed = 1;
nodes = (
"174 0 LINE",
"224 222 LINE",
"258 222 LINE",
"214 248 LINE",
"338 0 LINE",
"534 0 LINE",
"356 326 LINE",
"336 226 LINE",
"650 528 LINE",
"440 528 LINE",
"222 296 LINE",
"282 322 LINE",
"248 322 LINE",
"294 528 LINE",
"120 528 LINE",
"0 0 LINE"
);
}
);
width = 610;
}
);
leftMetricsKey = n;
rightMetricsKey = k;
unicode = 0138;
},
{
glyphname = l;
lastChange = "2020-06-09 02:09:42 +0000";
layers = (
{
anchors = (
{
name = bottom;
position = "{72, 0}";
},
{
name = center;
position = "{126, 374}";
},
{
name = top;
position = "{212, 752}";
},
{
name = topright;
position = "{230, 752}";
}
);
background = {
components = (
{
name = l.ss01;
transform = "{1, 0, 0, 1, -14, 0}";
}
);
};
layerId = "AB099EFE-E788-4EFC-8633-CF147CB782A6";
paths = (
{
closed = 1;
nodes = (
"108 -4 OFFCURVE",
"126 2 OFFCURVE",
"134 8 CURVE",
"138 38 LINE",
"134 36 OFFCURVE",
"114 24 OFFCURVE",
"92 24 CURVE SMOOTH",
"58 24 OFFCURVE",
"68 56 OFFCURVE",
"74 84 CURVE SMOOTH",
"226 752 LINE",
"196 752 LINE",
"46 92 LINE SMOOTH",
"37 52 OFFCURVE",
"30 -4 OFFCURVE",
"88 -4 CURVE SMOOTH"
);
}
);
width = 218;
},
{
anchors = (
{
name = bottom;
position = "{110, 0}";
},
{
name = center;
position = "{174, 394}";
},
{
name = top;
position = "{256, 754}";
},
{
name = topright;
position = "{334, 752}";
}
);
background = {
components = (
{
name = l.ss01;
transform = "{1, 0, 0, 1, -8, 0}";
}
);
};
layerId = "2D8F7115-C311-411E-929D-56333CF7FFB2";
paths = (
{
closed = 1;
nodes = (
"190 -8 OFFCURVE",
"226 -2 OFFCURVE",
"250 10 CURVE",
"268 150 LINE",
"260 144 OFFCURVE",
"247 136 OFFCURVE",
"228 136 CURVE SMOOTH",
"212 136 OFFCURVE",
"208 148 OFFCURVE",
"212 166 CURVE SMOOTH",
"342 752 LINE",
"170 752 LINE",
"34 152 LINE SMOOTH",
"16 72 OFFCURVE",
"48 -8 OFFCURVE",
"160 -8 CURVE SMOOTH"
);
}
);
width = 320;
},
{
anchors = (
{
name = bottom;
position = "{92, 0}";
},
{
name = center;
position = "{154, 384}";
},
{
name = top;
position = "{236, 752}";
},
{
name = topright;
position = "{390, 752}";
}
);
associatedMasterId = "AB099EFE-E788-4EFC-8633-CF147CB782A6";
background = {
components = (
{
name = l.ss01;
transform = "{1, 0, 0, 1, -10, 0}";
}
);
};
layerId = "07F136B1-63E0-44F7-A7A8-9BD3A03A128C";
name = "Half {450}";
paths = (
{
closed = 1;
nodes = (
"154 -8 OFFCURVE",
"178 -4 OFFCURVE",
"190 2 CURVE",
"196 88 LINE",
"187 86 OFFCURVE",
"175 84 OFFCURVE",
"168 84 CURVE SMOOTH",
"147 84 OFFCURVE",
"137 103 OFFCURVE",
"144 130 CURVE SMOOTH",
"286 752 LINE",
"184 752 LINE",
"44 140 LINE SMOOTH",
"24 53 OFFCURVE",
"61 -8 OFFCURVE",
"132 -8 CURVE SMOOTH"
);
}
);
width = 268;
}
);
leftKerningGroup = LAT_L_LC;
leftMetricsKey = h;
rightKerningGroup = LAT_L_LC;
unicode = 006C;
},
{
color = 4;
glyphname = l.ss01;
lastChange = "2020-06-08 07:50:20 +0000";
layers = (
{
anchors = (
{
name = bottom;
position = "{52, 0}";
},
{
name = center;
position = "{134, 358}";
},
{
name = dot;
position = "{248, 360}";
},
{
name = top;
position = "{232, 804}";
},
{
name = topright;
position = "{238, 752}";
}
);
layerId = "AB099EFE-E788-4EFC-8633-CF147CB782A6";
paths = (
{
closed = 1;
nodes = (
"68 0 LINE",
"238 752 LINE",
"206 752 LINE",
"36 0 LINE"
);
}
);
width = 220;
},
{
anchors = (
{
name = bottom;
position = "{98, 0}";
},
{
name = center;
position = "{188, 394}";
},
{
name = dot;
position = "{424, 400}";
},
{
name = top;
position = "{266, 752}";
},
{
name = topright;
position = "{356, 752}";
}
);
layerId = "2D8F7115-C311-411E-929D-56333CF7FFB2";
paths = (
{
closed = 1;
nodes = (
"186 0 LINE",
"356 752 LINE",
"180 752 LINE",
"10 0 LINE"
);
}
);
width = 316;
}
);
leftKerningGroup = LAT_H_UC;
rightKerningGroup = LAT_H_UC;
},
{
glyphname = m;
lastChange = "2020-06-08 08:23:55 +0000";
layers = (
{
anchors = (
{
name = bottom;
position = "{344, 0}";
},
{
name = leghookleft;
position = "{650, 0}";
},
{
name = top;
position = "{460, 512}";
}
);
background = {
paths = (
{
closed = 1;
nodes = (
"110 0 LINE",
"110 386 LINE",
"116 418 LINE",
"110 418 LINE",
"110 512 LINE",
"80 512 LINE",
"80 0 LINE"
);
},
{
closed = 1;
nodes = (
"420 0 LINE",
"420 336 LINE SMOOTH",
"420 466 OFFCURVE",
"356 520 OFFCURVE",
"274 520 CURVE SMOOTH",
"192 520 OFFCURVE",
"134 468 OFFCURVE",
"104 402 CURVE",
"104 354 LINE",
"136 420 OFFCURVE",
"188 492 OFFCURVE",
"274 492 CURVE SMOOTH",
"338 492 OFFCURVE",
"390 454 OFFCURVE",
"390 326 CURVE SMOOTH",
"390 0 LINE"
);
},
{
closed = 1;
nodes = (
"728 0 LINE",
"728 336 LINE SMOOTH",
"728 466 OFFCURVE",
"664 520 OFFCURVE",
"582 520 CURVE SMOOTH",
"500 520 OFFCURVE",
"438 462 OFFCURVE",
"406 398 CURVE",
"414 354 LINE",
"444 420 OFFCURVE",
"496 492 OFFCURVE",
"582 492 CURVE SMOOTH",
"646 492 OFFCURVE",
"698 454 OFFCURVE",
"698 326 CURVE SMOOTH",
"698 0 LINE"
);
}
);
};
guideLines = (
{
angle = 60;
position = "{188, 358}";
}
);
layerId = "AB099EFE-E788-4EFC-8633-CF147CB782A6";
paths = (
{
closed = 1;
nodes = (
"56 0 LINE",
"128 316 LINE SMOOTH",
"146 396 OFFCURVE",
"224 492 OFFCURVE",
"318 492 CURVE SMOOTH",
"374 492 OFFCURVE",
"434 456 OFFCURVE",
"406 334 CURVE SMOOTH",
"330 0 LINE",
"360 0 LINE",
"434 328 LINE SMOOTH",
"450 398 OFFCURVE",
"526 492 OFFCURVE",
"622 492 CURVE SMOOTH",
"678 492 OFFCURVE",
"738 460 OFFCURVE",
"708 328 CURVE SMOOTH",
"634 0 LINE",
"664 0 LINE",
"740 334 LINE SMOOTH",
"770 464 OFFCURVE",
"702 520 OFFCURVE",
"622 520 CURVE SMOOTH",
"532 520 OFFCURVE",
"472 458 OFFCURVE",
"442 406 CURVE",
"456 410 LINE",
"434 410 LINE",
"444 398 LINE",
"444 466 OFFCURVE",
"394 520 OFFCURVE",
"320 520 CURVE SMOOTH",
"242 520 OFFCURVE",
"186 470 OFFCURVE",
"140 404 CURVE",
"158 418 LINE",
"150 418 LINE",
"172 512 LINE",
"142 512 LINE",
"26 0 LINE"
);
}
);
width = 802;
},
{
anchors = (
{
name = bottom;
position = "{386, 0}";
},
{
name = leghookleft;
position = "{676, 0}";
},
{
name = top;
position = "{504, 528}";
}
);
background = {
paths = (
{
closed = 1;
nodes = (
"234 0 LINE",
"234 382 LINE",
"246 462 LINE",
"224 462 LINE",
"224 528 LINE",
"60 528 LINE",
"60 0 LINE"
);
},
{
closed = 1;
nodes = (
"534 0 LINE",
"534 330 LINE SMOOTH",
"534 408 OFFCURVE",
"512 536 OFFCURVE",
"374 536 CURVE SMOOTH",
"292 536 OFFCURVE",
"228 494 OFFCURVE",
"188 398 CURVE",
"202 308 LINE",
"220 342 OFFCURVE",
"264 396 OFFCURVE",
"310 394 CURVE SMOOTH",
"360 396 OFFCURVE",
"360 334 OFFCURVE",
"360 290 CURVE SMOOTH",
"360 0 LINE"
);
},
{
closed = 1;
nodes = (
"834 0 LINE",
"834 330 LINE SMOOTH",
"836 408 OFFCURVE",
"814 536 OFFCURVE",
"668 536 CURVE SMOOTH",
"580 536 OFFCURVE",
"512 488 OFFCURVE",
"478 398 CURVE",
"502 308 LINE",
"520 342 OFFCURVE",
"564 396 OFFCURVE",
"610 394 CURVE SMOOTH",
"660 396 OFFCURVE",
"660 334 OFFCURVE",
"660 290 CURVE SMOOTH",
"660 0 LINE"
);
}
);
};
layerId = "2D8F7115-C311-411E-929D-56333CF7FFB2";
paths = (
{
closed = 1;
nodes = (
"174 0 LINE",
"244 306 LINE SMOOTH",
"254 350 OFFCURVE",
"284 394 OFFCURVE",
"334 394 CURVE SMOOTH",
"380 394 OFFCURVE",
"376 358 OFFCURVE",
"368 322 CURVE SMOOTH",
"294 0 LINE",
"468 0 LINE",
"538 306 LINE SMOOTH",
"548 350 OFFCURVE",
"578 394 OFFCURVE",
"628 394 CURVE SMOOTH",
"676 394 OFFCURVE",
"670 356 OFFCURVE",
"662 322 CURVE SMOOTH",
"590 0 LINE",
"764 0 LINE",
"836 322 LINE SMOOTH",
"854 400 OFFCURVE",
"860 536 OFFCURVE",
"714 536 CURVE SMOOTH",
"652 536 OFFCURVE",
"584 514 OFFCURVE",
"536 446 CURVE",
"556 454 LINE",
"538 454 LINE",
"546 430 LINE",
"534 498 OFFCURVE",
"496 536 OFFCURVE",
"426 536 CURVE SMOOTH",
"350 536 OFFCURVE",
"282 502 OFFCURVE",
"220 406 CURVE",
"292 462 LINE",
"268 462 LINE",
"284 528 LINE",
"120 528 LINE",
"0 0 LINE"
);
}
);
width = 880;
},
{
anchors = (
{
name = bottom;
position = "{372, 0}";
},
{
name = leghookleft;
position = "{674, 0}";
},
{
name = top;
position = "{492, 520}";
}
);
associatedMasterId = "AB099EFE-E788-4EFC-8633-CF147CB782A6";
background = {
paths = (
{
closed = 1;
nodes = (
"174 0 LINE",
"174 404 LINE",
"186 454 LINE",
"166 454 LINE",
"166 520 LINE",
"72 520 LINE",
"72 0 LINE"
);
},
{
closed = 1;
nodes = (
"478 0 LINE",
"478 376 LINE SMOOTH",
"479 465 OFFCURVE",
"409 528 OFFCURVE",
"316 528 CURVE SMOOTH",
"247 528 OFFCURVE",
"181 483 OFFCURVE",
"148 426 CURVE",
"150 306 LINE",
"175 366 OFFCURVE",
"222 438 OFFCURVE",
"300 438 CURVE SMOOTH",
"374 438 OFFCURVE",
"376 376 OFFCURVE",
"376 304 CURVE SMOOTH",
"376 0 LINE"
);
},
{
closed = 1;
nodes = (
"784 0 LINE",
"784 376 LINE SMOOTH",
"783 465 OFFCURVE",
"715 528 OFFCURVE",
"624 528 CURVE SMOOTH",
"555 528 OFFCURVE",
"487 489 OFFCURVE",
"452 444 CURVE",
"454 306 LINE",
"479 366 OFFCURVE",
"526 438 OFFCURVE",
"604 438 CURVE SMOOTH",
"678 438 OFFCURVE",
"680 376 OFFCURVE",
"680 304 CURVE SMOOTH",
"680 0 LINE"
);
}
);
};
guideLines = (
{
angle = 60;
position = "{252, 446}";
},
{
angle = 60;
position = "{210, 350}";
}
);
layerId = "7C464084-DF0B-4897-9988-7D453C095C5A";
name = "Half {450}";
paths = (
{
closed = 1;
nodes = (
"114 0 LINE",
"186 308 LINE SMOOTH",
"206 392 OFFCURVE",
"264 436 OFFCURVE",
"324 436 CURVE SMOOTH",
"384 436 OFFCURVE",
"406 392 OFFCURVE",
"388 312 CURVE SMOOTH",
"316 0 LINE",
"418 0 LINE",
"490 308 LINE SMOOTH",
"510 392 OFFCURVE",
"568 436 OFFCURVE",
"628 436 CURVE SMOOTH",
"688 436 OFFCURVE",
"710 392 OFFCURVE",
"692 312 CURVE SMOOTH",
"620 0 LINE",
"724 0 LINE",
"800 332 LINE SMOOTH",
"824 436 OFFCURVE",
"800 528 OFFCURVE",
"678 528 CURVE SMOOTH",
"590 528 OFFCURVE",
"508 478 OFFCURVE",
"468 410 CURVE",
"528 446 LINE",
"462 446 LINE",
"500 406 LINE",
"496 472 OFFCURVE",
"462 528 OFFCURVE",
"378 528 CURVE SMOOTH",
"298 528 OFFCURVE",
"220 484 OFFCURVE",
"180 408 CURVE",
"240 462 LINE",
"220 462 LINE",
"234 520 LINE",
"130 520 LINE",
"12 0 LINE"
);
}
);
width = 852;
}
);
leftKerningGroup = LAT_N_LC;
leftMetricsKey = n;
rightKerningGroup = LAT_N_LC;
rightMetricsKey = n;
unicode = 006D;
},
{
glyphname = n;
lastChange = "2020-06-09 03:10:02 +0000";
layers = (
{
anchors = (
{
name = bottom;
position = "{222, 0}";
},
{
name = leghookleft;
position = "{42, 0}";
},
{
name = leghookretroflex;
position = "{384, 0}";
},
{
name = top;
position = "{340, 512}";
}
);
background = {
paths = (
{
closed = 1;
nodes = (
"110 0 LINE",
"110 386 LINE",
"116 412 LINE",
"110 412 LINE",
"110 512 LINE",
"80 512 LINE",
"80 0 LINE"
);
},
{
closed = 1;
nodes = (
"462 0 LINE",
"462 304 LINE SMOOTH",
"462 430 OFFCURVE",
"420 520 OFFCURVE",
"294 520 CURVE SMOOTH",
"214 520 OFFCURVE",
"140 470 OFFCURVE",
"102 396 CURVE",
"108 356 LINE",
"148 436 OFFCURVE",
"220 492 OFFCURVE",
"292 492 CURVE SMOOTH",
"430 492 OFFCURVE",
"432 354 OFFCURVE",
"432 258 CURVE SMOOTH",
"432 0 LINE"
);
}
);
};
layerId = "AB099EFE-E788-4EFC-8633-CF147CB782A6";
paths = (
{
closed = 1;
nodes = (
"56 0 LINE",
"130 324 LINE SMOOTH",
"150 414 OFFCURVE",
"230 492 OFFCURVE",
"330 492 CURVE SMOOTH",
"444 492 OFFCURVE",
"456 388 OFFCURVE",
"438 308 CURVE SMOOTH",
"368 0 LINE",
"398 0 LINE",
"468 312 LINE SMOOTH",
"496 438 OFFCURVE",
"450 520 OFFCURVE",
"332 520 CURVE SMOOTH",
"240 520 OFFCURVE",
"180 470 OFFCURVE",
"138 404 CURVE",
"166 420 LINE",
"152 420 LINE",
"172 512 LINE",
"142 512 LINE",
"26 0 LINE"
);
}
);
width = 536;
},
{
anchors = (
{
name = bottom;
position = "{240, 0}";
},
{
name = leghookleft;
position = "{86, 0}";
},
{
name = leghookretroflex;
position = "{400, 0}";
},
{
name = top;
position = "{378, 528}";
}
);
background = {
paths = (
{
closed = 1;
nodes = (
"234 0 LINE",
"234 382 LINE",
"246 456 LINE",
"228 456 LINE",
"228 528 LINE",
"60 528 LINE",
"60 0 LINE"
);
},
{
closed = 1;
nodes = (
"558 0 LINE",
"558 340 LINE SMOOTH",
"558 472 OFFCURVE",
"500 536 OFFCURVE",
"384 536 CURVE SMOOTH",
"308 536 OFFCURVE",
"214 482 OFFCURVE",
"200 398 CURVE",
"224 308 LINE",
"232 342 OFFCURVE",
"280 396 OFFCURVE",
"330 394 CURVE SMOOTH",
"382 396 OFFCURVE",
"384 338 OFFCURVE",
"384 290 CURVE SMOOTH",
"384 0 LINE"
);
}
);
};
layerId = "2D8F7115-C311-411E-929D-56333CF7FFB2";
paths = (
{
closed = 1;
nodes = (
"174 0 LINE",
"242 300 LINE SMOOTH",
"254 356 OFFCURVE",
"286 394 OFFCURVE",
"334 394 CURVE SMOOTH",
"368 394 OFFCURVE",
"398 374 OFFCURVE",
"386 318 CURVE SMOOTH",
"314 0 LINE",
"488 0 LINE",
"566 344 LINE SMOOTH",
"592 460 OFFCURVE",
"524 536 OFFCURVE",
"418 536 CURVE SMOOTH",
"344 536 OFFCURVE",
"282 496 OFFCURVE",
"246 406 CURVE",
"292 456 LINE",
"272 456 LINE",
"288 528 LINE",
"120 528 LINE",
"0 0 LINE"
);
}
);
width = 604;
},
{
anchors = (
{
name = bottom;
position = "{234, 0}";
},
{
name = leghookleft;
position = "{64, 0}";
},
{
name = leghookretroflex;
position = "{400, 0}";
},
{
name = top;
position = "{370, 520}";
}
);
associatedMasterId = "AB099EFE-E788-4EFC-8633-CF147CB782A6";
background = {
paths = (
{
closed = 1;
nodes = (
"174 0 LINE",
"174 404 LINE",
"196 450 LINE",
"174 450 LINE",
"174 520 LINE",
"72 520 LINE",
"72 0 LINE"
);
},
{
closed = 1;
nodes = (
"512 0 LINE",
"512 332 LINE SMOOTH",
"512 415 OFFCURVE",
"479 528 OFFCURVE",
"342 528 CURVE SMOOTH",
"266 528 OFFCURVE",
"192 488 OFFCURVE",
"154 420 CURVE",
"156 306 LINE",
"193 388 OFFCURVE",
"255 438 OFFCURVE",
"316 438 CURVE SMOOTH",
"409 438 OFFCURVE",
"410 349 OFFCURVE",
"410 304 CURVE SMOOTH",
"410 0 LINE"
);
}
);
};
layerId = "B3BA6D2D-8889-4E23-852D-A1E06A84ADF3";
name = "Half {450}";
paths = (
{
closed = 1;
nodes = (
"114 0 LINE",
"186 308 LINE SMOOTH",
"206 392 OFFCURVE",
"270 436 OFFCURVE",
"340 436 CURVE SMOOTH",
"414 436 OFFCURVE",
"440 388 OFFCURVE",
"422 312 CURVE SMOOTH",
"350 0 LINE",
"452 0 LINE",
"528 330 LINE SMOOTH",
"548 414 OFFCURVE",
"514 528 OFFCURVE",
"368 528 CURVE SMOOTH",
"288 528 OFFCURVE",
"232 492 OFFCURVE",
"188 424 CURVE",
"242 462 LINE",
"220 462 LINE",
"234 520 LINE",
"130 520 LINE",
"12 0 LINE"
);
}
);
width = 580;
}
);
leftKerningGroup = LAT_N_LC;
rightKerningGroup = LAT_N_LC;
unicode = 006E;
},
{
glyphname = o;
lastChange = "2020-06-09 08:13:59 +0000";
layers = (
{
anchors = (
{
name = bottom;
position = "{240, 0}";
},
{
name = center;
position = "{298, 256}";
},
{
name = horn;
position = "{464, 494}";
},
{
name = ogonek;
position = "{300, 0}";
},
{
name = top;
position = "{356, 512}";
},
{
name = topright;
position = "{632, 512}";
}
);
layerId = "AB099EFE-E788-4EFC-8633-CF147CB782A6";
paths = (
{
closed = 1;
nodes = (
"394 -8 OFFCURVE",
"506 112 OFFCURVE",
"536 256 CURVE SMOOTH",
"568 408 OFFCURVE",
"496 520 OFFCURVE",
"352 520 CURVE SMOOTH",
"198 520 OFFCURVE",
"84 394 OFFCURVE",
"56 256 CURVE SMOOTH",
"26 110 OFFCURVE",
"100 -8 OFFCURVE",
"248 -8 CURVE SMOOTH"
);
},
{
closed = 1;
nodes = (
"128 20 OFFCURVE",
"56 114 OFFCURVE",
"86 252 CURVE SMOOTH",
"114 384 OFFCURVE",
"220 492 OFFCURVE",
"350 492 CURVE SMOOTH",
"474 492 OFFCURVE",
"534 398 OFFCURVE",
"506 262 CURVE SMOOTH",
"478 128 OFFCURVE",
"380 20 OFFCURVE",
"250 20 CURVE SMOOTH"
);
}
);
width = 592;
},
{
anchors = (
{
name = bottom;
position = "{244, 0}";
},
{
name = center;
position = "{304, 264}";
},
{
name = horn;
position = "{502, 496}";
},
{
name = ogonek;
position = "{312, 0}";
},
{
name = top;
position = "{364, 528}";
},
{
name = topright;
position = "{636, 528}";
}
);
layerId = "2D8F7115-C311-411E-929D-56333CF7FFB2";
paths = (
{
closed = 1;
nodes = (
"404 -8 OFFCURVE",
"536 98 OFFCURVE",
"572 248 CURVE SMOOTH",
"610 404 OFFCURVE",
"518 536 OFFCURVE",
"352 536 CURVE SMOOTH",
"202 536 OFFCURVE",
"70 426 OFFCURVE",
"36 280 CURVE SMOOTH",
"-2 120 OFFCURVE",
"98 -8 OFFCURVE",
"258 -8 CURVE SMOOTH"
);
},
{
closed = 1;
nodes = (
"220 136 OFFCURVE",
"178 176 OFFCURVE",
"192 250 CURVE SMOOTH",
"206 322 OFFCURVE",
"264 390 OFFCURVE",
"336 390 CURVE SMOOTH",
"398 390 OFFCURVE",
"426 342 OFFCURVE",
"416 280 CURVE SMOOTH",
"404 208 OFFCURVE",
"346 136 OFFCURVE",
"274 136 CURVE SMOOTH"
);
}
);
width = 608;
},
{
anchors = (
{
name = bottom;
position = "{232, 0}";
},
{
name = center;
position = "{290, 258}";
},
{
name = horn;
position = "{472, 512}";
},
{
name = ogonek;
position = "{294, 0}";
},
{
name = top;
position = "{350, 520}";
},
{
name = topright;
position = "{620, 520}";
}
);
associatedMasterId = "AB099EFE-E788-4EFC-8633-CF147CB782A6";
layerId = "51EC8CF4-9C29-420F-ACA7-DB790A9AB824";
name = "Half {450}";
paths = (
{
closed = 1;
nodes = (
"386 -8 OFFCURVE",
"506 96 OFFCURVE",
"538 252 CURVE SMOOTH",
"572 412 OFFCURVE",
"492 528 OFFCURVE",
"342 528 CURVE SMOOTH",
"200 528 OFFCURVE",
"78 420 OFFCURVE",
"46 268 CURVE SMOOTH",
"12 108 OFFCURVE",
"102 -8 OFFCURVE",
"248 -8 CURVE SMOOTH"
);
},
{
closed = 1;
nodes = (
"164 84 OFFCURVE",
"120 158 OFFCURVE",
"146 264 CURVE SMOOTH",
"170 362 OFFCURVE",
"242 436 OFFCURVE",
"332 436 CURVE SMOOTH",
"422 436 OFFCURVE",
"462 360 OFFCURVE",
"438 262 CURVE SMOOTH",
"414 162 OFFCURVE",
"340 84 OFFCURVE",
"250 84 CURVE SMOOTH"
);
}
);
width = 584;
}
);
leftKerningGroup = LAT_O_LC;
rightKerningGroup = LAT_O_LC;
unicode = 006F;
},
{
color = 4;
glyphname = o.ss01;
lastChange = "2020-06-08 07:50:20 +0000";
layers = (
{
anchors = (
{
name = bottom;
position = "{248, 0}";
},
{
name = center;
position = "{306, 256}";
},
{
name = horn;
position = "{480, 494}";
},
{
name = ogonek;
position = "{302, 12}";
},
{
name = top;
position = "{364, 512}";
},
{
name = topright;
position = "{660, 512}";
}
);
layerId = "AB099EFE-E788-4EFC-8633-CF147CB782A6";
paths = (
{
closed = 1;
nodes = (
"390 -8 OFFCURVE",
"530 108 OFFCURVE",
"564 256 CURVE SMOOTH",
"598 402 OFFCURVE",
"508 520 OFFCURVE",
"364 520 CURVE SMOOTH",
"220 520 OFFCURVE",
"82 406 OFFCURVE",
"50 260 CURVE SMOOTH",
"16 112 OFFCURVE",
"102 -8 OFFCURVE",
"248 -8 CURVE SMOOTH"
);
},
{
closed = 1;
nodes = (
"124 20 OFFCURVE",
"48 126 OFFCURVE",
"78 258 CURVE SMOOTH",
"108 386 OFFCURVE",
"234 492 OFFCURVE",
"362 492 CURVE SMOOTH",
"486 492 OFFCURVE",
"564 390 OFFCURVE",
"536 262 CURVE SMOOTH",
"504 120 OFFCURVE",
"374 20 OFFCURVE",
"250 20 CURVE SMOOTH"
);
}
);
width = 612;
},
{
anchors = (
{
name = bottom;
position = "{240, 0}";
},
{
name = center;
position = "{300, 264}";
},
{
name = horn;
position = "{504, 496}";
},
{
name = ogonek;
position = "{304, 14}";
},
{
name = top;
position = "{364, 528}";
},
{
name = topright;
position = "{652, 528}";
}
);
layerId = "2D8F7115-C311-411E-929D-56333CF7FFB2";
paths = (
{
closed = 1;
nodes = (
"396 -8 OFFCURVE",
"540 104 OFFCURVE",
"572 248 CURVE SMOOTH",
"608 408 OFFCURVE",
"512 536 OFFCURVE",
"356 536 CURVE SMOOTH",
"206 536 OFFCURVE",
"64 424 OFFCURVE",
"32 280 CURVE SMOOTH",
"-4 120 OFFCURVE",
"90 -8 OFFCURVE",
"248 -8 CURVE SMOOTH"
);
},
{
closed = 1;
nodes = (
"206 140 OFFCURVE",
"174 188 OFFCURVE",
"188 250 CURVE SMOOTH",
"204 322 OFFCURVE",
"270 388 OFFCURVE",
"338 388 CURVE SMOOTH",
"398 388 OFFCURVE",
"430 342 OFFCURVE",
"416 282 CURVE SMOOTH",
"398 204 OFFCURVE",
"332 140 OFFCURVE",
"266 140 CURVE SMOOTH"
);
}
);
width = 604;
},
{
anchors = (
{
name = bottom;
position = "{248, 0}";
},
{
name = center;
position = "{308, 260}";
},
{
name = horn;
position = "{498, 496}";
},
{
name = ogonek;
position = "{308, 14}";
},
{
name = top;
position = "{368, 520}";
},
{
name = topright;
position = "{668, 520}";
}
);
associatedMasterId = "AB099EFE-E788-4EFC-8633-CF147CB782A6";
layerId = "51EC8CF4-9C29-420F-ACA7-DB790A9AB824";
name = "Half {450}";
paths = (
{
closed = 1;
nodes = (
"398 -8 OFFCURVE",
"546 110 OFFCURVE",
"580 260 CURVE SMOOTH",
"614 408 OFFCURVE",
"518 528 OFFCURVE",
"366 528 CURVE SMOOTH",
"216 528 OFFCURVE",
"70 412 OFFCURVE",
"38 264 CURVE SMOOTH",
"2 114 OFFCURVE",
"96 -8 OFFCURVE",
"250 -8 CURVE SMOOTH"
);
},
{
closed = 1;
nodes = (
"170 84 OFFCURVE",
"118 162 OFFCURVE",
"140 260 CURVE SMOOTH",
"162 356 OFFCURVE",
"254 436 OFFCURVE",
"350 436 CURVE SMOOTH",
"444 436 OFFCURVE",
"500 362 OFFCURVE",
"478 266 CURVE SMOOTH",
"454 166 OFFCURVE",
"360 84 OFFCURVE",
"266 84 CURVE SMOOTH"
);
}
);
width = 616;
}
);
leftKerningGroup = LAT_O_LC;
rightKerningGroup = LAT_O_LC;
},
{
glyphname = oe;
lastChange = "2020-06-08 07:50:20 +0000";
layers = (
{
anchors = (
{
name = top;
position = "{584, 550}";
}
);
background = {
components = (
{
name = o;
transform = "{0.92, 0, 0, 1, 8, 0}";
},
{
name = e;
transform = "{0.94033, 0, 0, 1, 432, 0}";
}
);
};
layerId = "AB099EFE-E788-4EFC-8633-CF147CB782A6";
paths = (
{
closed = 1;
nodes = (
"356 -8 OFFCURVE",
"470 104 OFFCURVE",
"504 256 CURVE SMOOTH",
"538 406 OFFCURVE",
"472 522 OFFCURVE",
"342 522 CURVE SMOOTH",
"214 522 OFFCURVE",
"90 410 OFFCURVE",
"56 258 CURVE SMOOTH",
"22 108 OFFCURVE",
"96 -8 OFFCURVE",
"226 -8 CURVE SMOOTH"
);
},
{
closed = 1;
nodes = (
"118 20 OFFCURVE",
"54 118 OFFCURVE",
"86 254 CURVE SMOOTH",
"118 394 OFFCURVE",
"232 494 OFFCURVE",
"340 494 CURVE SMOOTH",
"450 494 OFFCURVE",
"506 394 OFFCURVE",
"474 258 CURVE SMOOTH",
"444 124 OFFCURVE",
"340 20 OFFCURVE",
"226 20 CURVE SMOOTH"
);
},
{
closed = 1;
nodes = (
"696 -8 OFFCURVE",
"756 14 OFFCURVE",
"812 58 CURVE",
"806 92 LINE",
"762 52 OFFCURVE",
"696 20 OFFCURVE",
"634 20 CURVE SMOOTH",
"526 20 OFFCURVE",
"472 118 OFFCURVE",
"506 258 CURVE SMOOTH",
"540 392 OFFCURVE",
"636 492 OFFCURVE",
"742 492 CURVE SMOOTH",
"840 492 OFFCURVE",
"890 404 OFFCURVE",
"858 276 CURVE",
"502 274 LINE",
"496 246 LINE",
"882 244 LINE",
"886 258 OFFCURVE",
"890 270 OFFCURVE",
"890 274 CURVE SMOOTH",
"922 418 OFFCURVE",
"864 520 OFFCURVE",
"742 520 CURVE SMOOTH",
"622 520 OFFCURVE",
"512 416 OFFCURVE",
"476 256 CURVE SMOOTH",
"442 104 OFFCURVE",
"502 -8 OFFCURVE",
"636 -8 CURVE SMOOTH"
);
}
);
width = 942;
},
{
anchors = (
{
name = top;
position = "{540, 572}";
}
);
background = {
components = (
{
name = o;
transform = "{0.92, 0, 0, 1, 4, 0}";
},
{
name = e.archive;
transform = "{0.94033, 0, 0, 1, 368, 0}";
}
);
};
layerId = "2D8F7115-C311-411E-929D-56333CF7FFB2";
paths = (
{
closed = 1;
nodes = (
"382 -8 OFFCURVE",
"508 120 OFFCURVE",
"536 250 CURVE SMOOTH",
"568 390 OFFCURVE",
"496 536 OFFCURVE",
"342 536 CURVE SMOOTH",
"206 536 OFFCURVE",
"70 430 OFFCURVE",
"36 282 CURVE SMOOTH",
"-2 118 OFFCURVE",
"90 -8 OFFCURVE",
"234 -8 CURVE SMOOTH"
);
},
{
closed = 1;
nodes = (
"198 134 OFFCURVE",
"172 178 OFFCURVE",
"188 250 CURVE SMOOTH",
"208 334 OFFCURVE",
"266 392 OFFCURVE",
"332 392 CURVE SMOOTH",
"388 392 OFFCURVE",
"416 350 OFFCURVE",
"400 280 CURVE SMOOTH",
"380 194 OFFCURVE",
"322 134 OFFCURVE",
"258 134 CURVE SMOOTH"
);
},
{
closed = 1;
nodes = (
"670 -8 OFFCURVE",
"738 4 OFFCURVE",
"778 28 CURVE",
"750 162 LINE",
"714 138 OFFCURVE",
"672 124 OFFCURVE",
"634 124 CURVE SMOOTH",
"576 124 OFFCURVE",
"504 142 OFFCURVE",
"530 258 CURVE SMOOTH",
"554 366 OFFCURVE",
"630 414 OFFCURVE",
"680 414 CURVE SMOOTH",
"734 414 OFFCURVE",
"760 378 OFFCURVE",
"746 320 CURVE",
"528 312 LINE",
"506 212 LINE",
"862 204 LINE",
"878 254 OFFCURVE",
"878 258 OFFCURVE",
"880 264 CURVE SMOOTH",
"926 462 OFFCURVE",
"812 536 OFFCURVE",
"706 536 CURVE SMOOTH",
"576 536 OFFCURVE",
"442 430 OFFCURVE",
"406 276 CURVE SMOOTH",
"370 116 OFFCURVE",
"448 -8 OFFCURVE",
"606 -8 CURVE SMOOTH"
);
}
);
width = 912;
},
{
anchors = (
{
name = top;
position = "{568, 558}";
}
);
associatedMasterId = "AB099EFE-E788-4EFC-8633-CF147CB782A6";
background = {
components = (
{
name = o;
transform = "{0.94, 0, 0, 1, 6, 0}";
},
{
name = e.archive;
transform = "{0.94033, 0, 0, 1, 398, 0}";
}
);
};
layerId = "AC77F9ED-8594-4DB0-8E42-55F87E192FDC";
name = "Half {450}";
paths = (
{
closed = 1;
nodes = (
"362 -8 OFFCURVE",
"486 104 OFFCURVE",
"522 258 CURVE SMOOTH",
"558 414 OFFCURVE",
"480 528 OFFCURVE",
"344 528 CURVE SMOOTH",
"214 528 OFFCURVE",
"82 420 OFFCURVE",
"46 266 CURVE SMOOTH",
"12 120 OFFCURVE",
"84 -8 OFFCURVE",
"228 -8 CURVE SMOOTH"
);
},
{
closed = 1;
nodes = (
"164 80 OFFCURVE",
"120 152 OFFCURVE",
"144 260 CURVE SMOOTH",
"168 364 OFFCURVE",
"242 440 OFFCURVE",
"334 440 CURVE SMOOTH",
"420 440 OFFCURVE",
"464 368 OFFCURVE",
"440 260 CURVE SMOOTH",
"416 156 OFFCURVE",
"342 80 OFFCURVE",
"250 80 CURVE SMOOTH"
);
},
{
closed = 1;
nodes = (
"698 -8 OFFCURVE",
"770 14 OFFCURVE",
"812 48 CURVE",
"790 136 LINE",
"748 102 OFFCURVE",
"698 82 OFFCURVE",
"644 82 CURVE SMOOTH",
"552 82 OFFCURVE",
"508 150 OFFCURVE",
"532 258 CURVE SMOOTH",
"556 368 OFFCURVE",
"632 440 OFFCURVE",
"716 440 CURVE SMOOTH",
"794 440 OFFCURVE",
"826 380 OFFCURVE",
"806 304 CURVE",
"522 302 LINE",
"504 222 LINE",
"878 220 LINE",
"882 230 OFFCURVE",
"890 262 OFFCURVE",
"894 282 CURVE SMOOTH",
"928 436 OFFCURVE",
"854 528 OFFCURVE",
"732 528 CURVE SMOOTH",
"598 528 OFFCURVE",
"478 418 OFFCURVE",
"444 266 CURVE SMOOTH",
"408 114 OFFCURVE",
"476 -8 OFFCURVE",
"630 -8 CURVE SMOOTH"
);
}
);
width = 934;
}
);
leftKerningGroup = LAT_O_LC;
leftMetricsKey = o;
rightKerningGroup = LAT_E_LC;
rightMetricsKey = e;
unicode = 0153;
},
{
glyphname = p;
lastChange = "2020-06-09 01:34:25 +0000";
layers = (
{
anchors = (
{
name = bottom;
position = "{-4, -206}";
},
{
name = top;
position = "{346, 512}";
}
);
components = (
{
name = _part.bowl;
}
);
layerId = "AB099EFE-E788-4EFC-8633-CF147CB782A6";
paths = (
{
closed = 1;
nodes = (
"82 118 LINE",
"94 118 LINE",
"90 162 LINE",
"142 394 LINE",
"156 416 LINE",
"150 416 LINE",
"172 512 LINE",
"142 512 LINE",
"-20 -206 LINE",
"10 -206 LINE"
);
}
);
width = 574;
},
{
anchors = (
{
name = bottom;
position = "{42, -206}";
},
{
name = top;
position = "{394, 528}";
}
);
components = (
{
name = _part.bowl;
}
);
layerId = "2D8F7115-C311-411E-929D-56333CF7FFB2";
paths = (
{
closed = 1;
nodes = (
"190 52 LINE",
"214 52 LINE",
"196 122 LINE",
"266 440 LINE",
"298 488 LINE",
"276 488 LINE",
"286 528 LINE",
"122 528 LINE",
"-44 -206 LINE",
"130 -206 LINE"
);
}
);
width = 626;
},
{
anchors = (
{
name = bottom;
position = "{16, -206}";
},
{
name = top;
position = "{376, 520}";
}
);
associatedMasterId = "AB099EFE-E788-4EFC-8633-CF147CB782A6";
components = (
{
alignment = -1;
name = _part.bowl;
}
);
layerId = "AF74158E-455A-4DFD-A125-19750D17B1F5";
name = "Half {450}";
paths = (
{
closed = 1;
nodes = (
"128 68 LINE",
"144 68 LINE",
"132 130 LINE",
"198 416 LINE",
"232 464 LINE",
"218 464 LINE",
"230 520 LINE",
"128 520 LINE",
"-38 -206 LINE",
"66 -206 LINE"
);
}
);
width = 602;
}
);
leftKerningGroup = LAT_P_LC;
rightKerningGroup = LAT_O_LC;
rightMetricsKey = o;
unicode = 0070;
},
{
color = 4;
glyphname = p.ss01;
lastChange = "2020-06-08 08:02:35 +0000";
layers = (
{
anchors = (
{
name = bottom;
position = "{-6, -206}";
},
{
name = top;
position = "{344, 512}";
}
);
components = (
{
name = _part.bowl.ss01;
}
);
layerId = "AB099EFE-E788-4EFC-8633-CF147CB782A6";
paths = (
{
closed = 1;
nodes = (
"10 -206 LINE",
"82 118 LINE",
"88 118 LINE",
"88 148 LINE",
"140 380 LINE",
"156 396 LINE",
"146 396 LINE",
"172 512 LINE",
"142 512 LINE",
"-20 -206 LINE"
);
}
);
width = 624;
},
{
anchors = (
{
name = bottom;
position = "{42, -206}";
},
{
name = top;
position = "{376, 528}";
}
);
components = (
{
name = _part.bowl.ss01;
}
);
layerId = "2D8F7115-C311-411E-929D-56333CF7FFB2";
paths = (
{
closed = 1;
nodes = (
"128 -208 LINE",
"186 52 LINE",
"196 52 LINE",
"198 134 LINE",
"264 418 LINE",
"296 472 LINE",
"274 472 LINE",
"286 528 LINE",
"122 528 LINE",
"-44 -206 LINE"
);
}
);
width = 656;
},
{
anchors = (
{
name = bottom;
position = "{20, -206}";
},
{
name = top;
position = "{380, 520}";
}
);
associatedMasterId = "AB099EFE-E788-4EFC-8633-CF147CB782A6";
components = (
{
alignment = -1;
name = _part.bowl.ss01;
}
);
layerId = "AF74158E-455A-4DFD-A125-19750D17B1F5";
name = "Half {450}";
paths = (
{
closed = 1;
nodes = (
"68 -206 LINE",
"130 64 LINE",
"144 64 LINE",
"140 130 LINE",
"206 416 LINE",
"228 458 LINE",
"216 458 LINE",
"232 520 LINE",
"132 520 LINE",
"-34 -206 LINE"
);
}
);
width = 646;
}
);
leftKerningGroup = LAT_P_LC;
rightKerningGroup = LAT_O_LC;
rightMetricsKey = o;
},
{
glyphname = thorn;
lastChange = "2020-06-09 00:17:59 +0000";
layers = (
{
anchors = (
{
name = bottom;
position = "{196, -24}";
},
{
name = top;
position = "{228, 804}";
}
);
components = (
{
name = _part.bowl;
}
);
layerId = "AB099EFE-E788-4EFC-8633-CF147CB782A6";
paths = (
{
closed = 1;
nodes = (
"84 116 LINE",
"90 116 LINE",
"90 160 LINE",
"142 386 LINE",
"154 406 LINE",
"148 406 LINE",
"226 752 LINE",
"196 752 LINE",
"-20 -206 LINE",
"10 -206 LINE"
);
}
);
width = 574;
},
{
anchors = (
{
name = bottom;
position = "{228, -24}";
},
{
name = top;
position = "{272, 804}";
}
);
components = (
{
name = _part.bowl;
}
);
layerId = "2D8F7115-C311-411E-929D-56333CF7FFB2";
paths = (
{
closed = 1;
nodes = (
"188 52 LINE",
"212 52 LINE",
"194 112 LINE",
"264 430 LINE",
"296 488 LINE",
"274 488 LINE",
"334 752 LINE",
"170 752 LINE",
"-46 -206 LINE",
"128 -206 LINE"
);
}
);
width = 626;
},
{
anchors = (
{
name = bottom;
position = "{226, -24}";
},
{
name = top;
position = "{254, 804}";
}
);
associatedMasterId = "AB099EFE-E788-4EFC-8633-CF147CB782A6";
components = (
{
alignment = -1;
name = _part.bowl;
}
);
layerId = "1ACFF9C7-557E-40E4-81BB-2F99C6EE3349";
name = "Half {450}";
paths = (
{
closed = 1;
nodes = (
"130 64 LINE",
"148 64 LINE",
"132 98 LINE",
"204 414 LINE",
"236 468 LINE",
"222 468 LINE",
"286 752 LINE",
"184 752 LINE",
"-34 -206 LINE",
"68 -206 LINE"
);
}
);
width = 602;
}
);
leftKerningGroup = LAT_L_LC;
leftMetricsKey = h;
rightKerningGroup = LAT_O_LC;
rightMetricsKey = p;
unicode = 00FE;
},
{
glyphname = thorn.ss01;
lastChange = "2020-06-08 08:02:58 +0000";
layers = (
{
anchors = (
{
name = bottom;
position = "{256, 0}";
},
{
name = top;
position = "{212, 752}";
}
);
components = (
{
name = _part.bowl.ss01;
}
);
layerId = "AB099EFE-E788-4EFC-8633-CF147CB782A6";
paths = (
{
closed = 1;
nodes = (
"82 118 LINE",
"88 118 LINE",
"90 160 LINE",
"140 376 LINE",
"152 396 LINE",
"146 396 LINE",
"226 752 LINE",
"196 752 LINE",
"-20 -206 LINE",
"10 -206 LINE"
);
}
);
width = 624;
},
{
anchors = (
{
name = bottom;
position = "{318, 0}";
},
{
name = top;
position = "{252, 752}";
}
);
components = (
{
name = _part.bowl.ss01;
}
);
layerId = "2D8F7115-C311-411E-929D-56333CF7FFB2";
paths = (
{
closed = 1;
nodes = (
"184 52 LINE",
"208 52 LINE",
"188 104 LINE",
"260 410 LINE",
"294 468 LINE",
"270 468 LINE",
"334 752 LINE",
"170 752 LINE",
"-46 -206 LINE",
"128 -206 LINE"
);
}
);
width = 656;
},
{
anchors = (
{
name = bottom;
position = "{294, 0}";
},
{
name = top;
position = "{232, 752}";
}
);
associatedMasterId = "AB099EFE-E788-4EFC-8633-CF147CB782A6";
components = (
{
name = _part.bowl.ss01;
transform = "{1, 0, 0, 1, -2, 0}";
}
);
layerId = "1ACFF9C7-557E-40E4-81BB-2F99C6EE3349";
name = "Half {450}";
paths = (
{
closed = 1;
nodes = (
"128 62 LINE",
"146 62 LINE",
"130 96 LINE",
"200 404 LINE",
"232 458 LINE",
"218 458 LINE",
"284 752 LINE",
"182 752 LINE",
"-34 -206 LINE",
"68 -206 LINE"
);
}
);
width = 644;
}
);
leftKerningGroup = LAT_L_LC;
leftMetricsKey = h;
rightKerningGroup = LAT_O_LC;
rightMetricsKey = p;
},
{
glyphname = q;
lastChange = "2020-06-09 08:17:40 +0000";
layers = (
{
anchors = (
{
name = bottom;
position = "{366, -206}";
},
{
name = top;
position = "{330, 512}";
}
);
components = (
{
name = "_part.bowl-reverse";
}
);
layerId = "AB099EFE-E788-4EFC-8633-CF147CB782A6";
paths = (
{
closed = 1;
nodes = (
"432 -186 LINE",
"408 -172 OFFCURVE",
"402 -138 OFFCURVE",
"412 -94 CURVE SMOOTH",
"550 512 LINE",
"520 512 LINE",
"494 396 LINE",
"484 396 LINE",
"488 362 LINE",
"436 134 LINE",
"418 100 LINE",
"426 100 LINE",
"382 -94 LINE SMOOTH",
"368 -154 OFFCURVE",
"378 -186 OFFCURVE",
"416 -214 CURVE"
);
}
);
width = 576;
},
{
anchors = (
{
name = bottom;
position = "{382, -206}";
},
{
name = top;
position = "{344, 528}";
}
);
components = (
{
name = "_part.bowl-reverse";
}
);
layerId = "2D8F7115-C311-411E-929D-56333CF7FFB2";
paths = (
{
closed = 1;
nodes = (
"528 -74 LINE",
"500 -64 OFFCURVE",
"494 -58 OFFCURVE",
"502 -22 CURVE SMOOTH",
"626 528 LINE",
"462 528 LINE",
"448 466 LINE",
"432 466 LINE",
"438 416 LINE",
"360 70 LINE",
"312 32 LINE",
"338 32 LINE",
"326 -22 LINE SMOOTH",
"306 -112 OFFCURVE",
"350 -172 OFFCURVE",
"442 -212 CURVE"
);
}
);
width = 636;
},
{
anchors = (
{
name = bottom;
position = "{392, -206}";
},
{
name = top;
position = "{340, 520}";
}
);
associatedMasterId = "AB099EFE-E788-4EFC-8633-CF147CB782A6";
components = (
{
name = "_part.bowl-reverse";
}
);
layerId = "71FC3BAB-2654-4618-A306-03265AF02326";
name = "Half {450}";
paths = (
{
closed = 1;
nodes = (
"484 -124 LINE",
"448 -110 OFFCURVE",
"451 -100 OFFCURVE",
"466 -34 CURVE SMOOTH",
"592 520 LINE",
"492 520 LINE",
"474 448 LINE",
"450 448 LINE",
"468 402 LINE",
"398 94 LINE",
"366 48 LINE",
"382 48 LINE",
"356 -64 LINE SMOOTH",
"341 -130 OFFCURVE",
"358 -182 OFFCURVE",
"428 -214 CURVE"
);
}
);
width = 616;
}
);
leftKerningGroup = LAT_O_LC;
leftMetricsKey = o;
rightKerningGroup = LAT_Q_LC;
unicode = 0071;
},
{
color = 4;
glyphname = q.ss01;
lastChange = "2020-06-08 07:50:20 +0000";
layers = (
{
anchors = (
{
name = bottom;
position = "{422, -206}";
},
{
name = top;
position = "{386, 512}";
}
);
components = (
{
name = "_part.bowl-reverse.ss01";
transform = "{1, 0, 0, 1, 24, 0}";
}
);
layerId = "AB099EFE-E788-4EFC-8633-CF147CB782A6";
paths = (
{
closed = 1;
nodes = (
"590 512 LINE",
"560 512 LINE",
"536 396 LINE",
"528 396 LINE",
"534 380 LINE",
"484 148 LINE",
"472 118 LINE",
"478 118 LINE",
"408 -206 LINE",
"438 -206 LINE"
);
}
);
width = 618;
},
{
anchors = (
{
name = bottom;
position = "{410, -206}";
},
{
name = top;
position = "{396, 528}";
}
);
components = (
{
name = "_part.bowl-reverse.ss01";
transform = "{1, 0, 0, 1, 28, 0}";
}
);
layerId = "2D8F7115-C311-411E-929D-56333CF7FFB2";
paths = (
{
closed = 1;
nodes = (
"650 528 LINE",
"486 528 LINE",
"474 472 LINE",
"452 472 LINE",
"460 418 LINE",
"402 134 LINE",
"366 52 LINE",
"376 52 LINE",
"324 -208 LINE",
"496 -206 LINE"
);
}
);
width = 658;
},
{
anchors = (
{
name = bottom;
position = "{408.396, -206}";
},
{
name = top;
position = "{378.282, 520}";
}
);
associatedMasterId = "AB099EFE-E788-4EFC-8633-CF147CB782A6";
components = (
{
name = "_part.bowl-reverse.ss01";
}
);
layerId = "71FC3BAB-2654-4618-A306-03265AF02326";
name = "Half {450}";
paths = (
{
closed = 1;
nodes = (
"626.282 520 LINE",
"526.282 520 LINE",
"514.11 458 LINE",
"502.11 458 LINE",
"505.026 416 LINE",
"441.071 130 LINE",
"407.081 64 LINE",
"421.081 64 LINE",
"360.396 -206 LINE",
"462.396 -206 LINE"
);
}
);
width = 642;
}
);
leftKerningGroup = LAT_O_LC;
leftMetricsKey = o;
rightKerningGroup = LAT_Q_LC;
},
{
glyphname = r;
lastChange = "2020-06-09 02:04:29 +0000";
layers = (
{
anchors = (
{
name = bottom;
position = "{42, 0}";
},
{
name = top;
position = "{242, 512}";
}
);
guideLines = (
{
angle = 67.5;
position = "{-178, -200}";
}
);
layerId = "AB099EFE-E788-4EFC-8633-CF147CB782A6";
paths = (
{
closed = 1;
nodes = (
"56 0 LINE",
"126 312 LINE SMOOTH",
"149 416 OFFCURVE",
"246 492 OFFCURVE",
"312 492 CURVE SMOOTH",
"334 492 OFFCURVE",
"354 484 OFFCURVE",
"362 476 CURVE",
"376 502 LINE",
"364 511 OFFCURVE",
"343 520 OFFCURVE",
"314 520 CURVE SMOOTH",
"254 520 OFFCURVE",
"174 466 OFFCURVE",
"138 398 CURVE",
"158 420 LINE",
"152 420 LINE",
"172 512 LINE",
"142 512 LINE",
"26 0 LINE"
);
}
);
width = 332;
},
{
anchors = (
{
name = bottom;
position = "{88, 0}";
},
{
name = top;
position = "{284, 528}";
}
);
guideLines = (
{
angle = 67.5;
position = "{-58, -200}";
}
);
layerId = "2D8F7115-C311-411E-929D-56333CF7FFB2";
paths = (
{
closed = 1;
nodes = (
"174 0 LINE",
"232 256 LINE SMOOTH",
"249 330 OFFCURVE",
"312 368 OFFCURVE",
"358 368 CURVE SMOOTH",
"376 368 OFFCURVE",
"394 364 OFFCURVE",
"404 358 CURVE",
"502 512 LINE",
"492 524 OFFCURVE",
"464 536 OFFCURVE",
"426 536 CURVE SMOOTH",
"334 536 OFFCURVE",
"270 470 OFFCURVE",
"250 426 CURVE",
"286 466 LINE",
"274 466 LINE",
"288 528 LINE",
"120 528 LINE",
"0 0 LINE"
);
}
);
width = 446;
},
{
anchors = (
{
name = bottom;
position = "{64, 0}";
},
{
name = top;
position = "{268, 520}";
}
);
associatedMasterId = "AB099EFE-E788-4EFC-8633-CF147CB782A6";
guideLines = (
{
angle = 67.5;
position = "{-118, -200}";
}
);
layerId = "AE84A8BD-4857-43AC-97B6-848273A736C5";
name = "Half {450}";
paths = (
{
closed = 1;
nodes = (
"116 0 LINE",
"182 286 LINE SMOOTH",
"202 370 OFFCURVE",
"280 430 OFFCURVE",
"338 430 CURVE SMOOTH",
"360 430 OFFCURVE",
"384 422 OFFCURVE",
"390 416 CURVE",
"448 508 LINE",
"436 518 OFFCURVE",
"414 528 OFFCURVE",
"380 528 CURVE SMOOTH",
"300 528 OFFCURVE",
"222 470 OFFCURVE",
"196 412 CURVE",
"226 446 LINE",
"216 446 LINE",
"234 520 LINE",
"132 520 LINE",
"12 0 LINE"
);
}
);
width = 400;
}
);
leftKerningGroup = LAT_N_LC;
leftMetricsKey = n;
rightKerningGroup = LAT_R_LC;
unicode = 0072;
},
{
glyphname = s;
lastChange = "2020-06-09 05:17:04 +0000";
layers = (
{
anchors = (
{
name = bottom;
position = "{156, 0}";
},
{
name = cedilla;
position = "{160, 0}";
},
{
name = top;
position = "{272, 512}";
}
);
background = {
paths = (
{
closed = 1;
nodes = (
"246 -8 OFFCURVE",
"332 46 OFFCURVE",
"352 132 CURVE SMOOTH",
"375 234 OFFCURVE",
"285 262 OFFCURVE",
"228 282 CURVE SMOOTH",
"193 294 OFFCURVE",
"115 322 OFFCURVE",
"128 392 CURVE SMOOTH",
"140 448 OFFCURVE",
"194 492 OFFCURVE",
"264 492 CURVE SMOOTH",
"326 492 OFFCURVE",
"357 456 OFFCURVE",
"370 420 CURVE",
"400 432 LINE",
"390 474 OFFCURVE",
"348 520 OFFCURVE",
"272 520 CURVE SMOOTH",
"188 520 OFFCURVE",
"117 470 OFFCURVE",
"100 398 CURVE SMOOTH",
"80 310 OFFCURVE",
"165 270 OFFCURVE",
"218 254 CURVE SMOOTH",
"257 242 OFFCURVE",
"341 216 OFFCURVE",
"322 134 CURVE SMOOTH",
"306 64 OFFCURVE",
"230 20 OFFCURVE",
"168 20 CURVE SMOOTH",
"108 20 OFFCURVE",
"65 66 OFFCURVE",
"58 114 CURVE",
"26 102 LINE",
"34 46 OFFCURVE",
"82 -8 OFFCURVE",
"162 -8 CURVE SMOOTH"
);
}
);
};
layerId = "AB099EFE-E788-4EFC-8633-CF147CB782A6";
paths = (
{
closed = 1;
nodes = (
"266 -8 OFFCURVE",
"330 52 OFFCURVE",
"346 128 CURVE SMOOTH",
"364 210 OFFCURVE",
"308 252 OFFCURVE",
"234 278 CURVE SMOOTH",
"182 298 OFFCURVE",
"114 326 OFFCURVE",
"128 396 CURVE SMOOTH",
"138 448 OFFCURVE",
"188 492 OFFCURVE",
"258 492 CURVE SMOOTH",
"318 492 OFFCURVE",
"352 458 OFFCURVE",
"364 422 CURVE",
"394 430 LINE",
"384 474 OFFCURVE",
"338 520 OFFCURVE",
"260 520 CURVE SMOOTH",
"170 520 OFFCURVE",
"114 466 OFFCURVE",
"100 406 CURVE SMOOTH",
"78 316 OFFCURVE",
"160 276 OFFCURVE",
"216 254 CURVE SMOOTH",
"254 240 OFFCURVE",
"336 210 OFFCURVE",
"316 128 CURVE SMOOTH",
"300 64 OFFCURVE",
"238 20 OFFCURVE",
"176 20 CURVE SMOOTH",
"114 20 OFFCURVE",
"64 66 OFFCURVE",
"56 112 CURVE",
"26 104 LINE",
"36 46 OFFCURVE",
"92 -8 OFFCURVE",
"176 -8 CURVE SMOOTH"
);
}
);
width = 434;
},
{
anchors = (
{
name = bottom;
position = "{164, 0}";
},
{
name = cedilla;
position = "{170, 0}";
},
{
name = top;
position = "{284, 522}";
}
);
associatedMasterId = "AB099EFE-E788-4EFC-8633-CF147CB782A6";
background = {
paths = (
{
closed = 1;
nodes = (
"263 -8 OFFCURVE",
"362 58 OFFCURVE",
"382 148 CURVE SMOOTH",
"405 248 OFFCURVE",
"309 284 OFFCURVE",
"264 300 CURVE SMOOTH",
"220 314 OFFCURVE",
"166 332 OFFCURVE",
"178 382 CURVE SMOOTH",
"186 418 OFFCURVE",
"225 442 OFFCURVE",
"264 442 CURVE SMOOTH",
"311 442 OFFCURVE",
"328 408 OFFCURVE",
"334 386 CURVE",
"430 422 LINE",
"417 476 OFFCURVE",
"373 528 OFFCURVE",
"282 528 CURVE SMOOTH",
"185 528 OFFCURVE",
"101 466 OFFCURVE",
"82 384 CURVE SMOOTH",
"62 294 OFFCURVE",
"125 254 OFFCURVE",
"188 232 CURVE SMOOTH",
"228 218 OFFCURVE",
"298 198 OFFCURVE",
"286 146 CURVE SMOOTH",
"277 106 OFFCURVE",
"231 80 OFFCURVE",
"188 80 CURVE SMOOTH",
"143 80 OFFCURVE",
"111 114 OFFCURVE",
"106 152 CURVE",
"6 114 LINE",
"16 50 OFFCURVE",
"75 -8 OFFCURVE",
"168 -8 CURVE SMOOTH"
);
}
);
};
guideLines = (
{
angle = 22.5;
position = "{98, 296}";
}
);
layerId = "71E4C0AB-FD56-4113-8C0E-7CB3582C377C";
name = "Half {450}";
paths = (
{
closed = 1;
nodes = (
"282 -8 OFFCURVE",
"364 52 OFFCURVE",
"382 140 CURVE SMOOTH",
"402 240 OFFCURVE",
"314 282 OFFCURVE",
"260 300 CURVE SMOOTH",
"218 314 OFFCURVE",
"166 330 OFFCURVE",
"178 384 CURVE SMOOTH",
"186 416 OFFCURVE",
"222 442 OFFCURVE",
"262 442 CURVE SMOOTH",
"308 442 OFFCURVE",
"328 410 OFFCURVE",
"336 388 CURVE",
"430 420 LINE",
"416 474 OFFCURVE",
"364 528 OFFCURVE",
"272 528 CURVE SMOOTH",
"176 528 OFFCURVE",
"106 478 OFFCURVE",
"86 396 CURVE SMOOTH",
"64 308 OFFCURVE",
"126 254 OFFCURVE",
"190 232 CURVE SMOOTH",
"230 218 OFFCURVE",
"298 200 OFFCURVE",
"286 148 CURVE SMOOTH",
"278 108 OFFCURVE",
"238 80 OFFCURVE",
"192 80 CURVE SMOOTH",
"150 80 OFFCURVE",
"110 112 OFFCURVE",
"104 150 CURVE",
"8 116 LINE",
"18 52 OFFCURVE",
"94 -8 OFFCURVE",
"186 -8 CURVE SMOOTH"
);
}
);
width = 448;
},
{
anchors = (
{
name = bottom;
position = "{174, 0}";
},
{
name = cedilla;
position = "{182, 0}";
},
{
name = top;
position = "{294, 526}";
}
);
associatedMasterId = "AB099EFE-E788-4EFC-8633-CF147CB782A6";
background = {
paths = (
{
closed = 1;
nodes = (
"281 -8 OFFCURVE",
"383 59 OFFCURVE",
"406 154 CURVE SMOOTH",
"429 261 OFFCURVE",
"329 292 OFFCURVE",
"286 308 CURVE SMOOTH",
"242 325 OFFCURVE",
"188 335 OFFCURVE",
"198 378 CURVE SMOOTH",
"204 406 OFFCURVE",
"234 426 OFFCURVE",
"270 426 CURVE SMOOTH",
"309 426 OFFCURVE",
"328 397 OFFCURVE",
"334 378 CURVE",
"452 424 LINE",
"437 488 OFFCURVE",
"373 532 OFFCURVE",
"290 532 CURVE SMOOTH",
"186 532 OFFCURVE",
"96 469 OFFCURVE",
"74 380 CURVE SMOOTH",
"56 292 OFFCURVE",
"113 250 OFFCURVE",
"184 226 CURVE SMOOTH",
"222 213 OFFCURVE",
"293 196 OFFCURVE",
"284 154 CURVE SMOOTH",
"277 125 OFFCURVE",
"241 100 OFFCURVE",
"202 100 CURVE SMOOTH",
"158 100 OFFCURVE",
"131 134 OFFCURVE",
"124 170 CURVE",
"0 120 LINE",
"14 43 OFFCURVE",
"87 -8 OFFCURVE",
"176 -8 CURVE SMOOTH"
);
}
);
};
guideLines = (
{
angle = 22.5;
position = "{96, 296}";
}
);
layerId = "2D4EE669-74DB-46FA-B066-FDF35B907363";
name = "{600}";
paths = (
{
closed = 1;
nodes = (
"282 -8 OFFCURVE",
"382 58 OFFCURVE",
"404 152 CURVE SMOOTH",
"428 260 OFFCURVE",
"328 292 OFFCURVE",
"284 308 CURVE SMOOTH",
"241 324 OFFCURVE",
"188 334 OFFCURVE",
"198 376 CURVE SMOOTH",
"204 405 OFFCURVE",
"235 426 OFFCURVE",
"272 426 CURVE SMOOTH",
"310 426 OFFCURVE",
"328 398 OFFCURVE",
"336 380 CURVE",
"452 422 LINE",
"436 487 OFFCURVE",
"372 532 OFFCURVE",
"288 532 CURVE SMOOTH",
"186 532 OFFCURVE",
"96 470 OFFCURVE",
"76 382 CURVE SMOOTH",
"56 293 OFFCURVE",
"114 250 OFFCURVE",
"186 226 CURVE SMOOTH",
"223 214 OFFCURVE",
"294 197 OFFCURVE",
"284 156 CURVE SMOOTH",
"278 126 OFFCURVE",
"240 100 OFFCURVE",
"200 100 CURVE SMOOTH",
"157 100 OFFCURVE",
"130 133 OFFCURVE",
"122 168 CURVE",
"0 122 LINE",
"15 44 OFFCURVE",
"88 -8 OFFCURVE",
"178 -8 CURVE SMOOTH"
);
}
);
width = 462;
},
{
anchors = (
{
name = bottom;
position = "{182, 0}";
},
{
name = cedilla;
position = "{190, 0}";
},
{
name = top;
position = "{302, 528}";
}
);
associatedMasterId = "AB099EFE-E788-4EFC-8633-CF147CB782A6";
guideLines = (
{
angle = 22.5;
position = "{94, 276}";
}
);
layerId = "E7831FF5-668F-4C95-A689-CAE55089C41D";
name = "{700}";
paths = (
{
closed = 1;
nodes = (
"294 -8 OFFCURVE",
"398 58 OFFCURVE",
"420 156 CURVE SMOOTH",
"446 268 OFFCURVE",
"344 300 OFFCURVE",
"302 312 CURVE SMOOTH",
"254 326 OFFCURVE",
"204 336 OFFCURVE",
"214 374 CURVE SMOOTH",
"218 394 OFFCURVE",
"244 416 OFFCURVE",
"280 416 CURVE SMOOTH",
"316 416 OFFCURVE",
"334 390 OFFCURVE",
"340 370 CURVE",
"468 420 LINE",
"452 494 OFFCURVE",
"378 536 OFFCURVE",
"296 536 CURVE SMOOTH",
"188 536 OFFCURVE",
"96 472 OFFCURVE",
"74 378 CURVE SMOOTH",
"54 292 OFFCURVE",
"108 242 OFFCURVE",
"182 220 CURVE SMOOTH",
"222 208 OFFCURVE",
"290 194 OFFCURVE",
"282 160 CURVE SMOOTH",
"278 140 OFFCURVE",
"248 114 OFFCURVE",
"212 114 CURVE SMOOTH",
"172 114 OFFCURVE",
"142 142 OFFCURVE",
"132 176 CURVE",
"-2 124 LINE",
"16 42 OFFCURVE",
"96 -8 OFFCURVE",
"188 -8 CURVE SMOOTH"
);
}
);
width = 472;
},
{
anchors = (
{
name = bottom;
position = "{178, 0}";
},
{
name = cedilla;
position = "{186, 0}";
},
{
name = top;
position = "{298, 532}";
}
);
background = {
paths = (
{
closed = 1;
nodes = (
"298 -8 OFFCURVE",
"406 62 OFFCURVE",
"428 162 CURVE SMOOTH",
"453 270 OFFCURVE",
"355 304 OFFCURVE",
"310 316 CURVE SMOOTH",
"274 326 OFFCURVE",
"215 338 OFFCURVE",
"222 370 CURVE SMOOTH",
"227 392 OFFCURVE",
"254 404 OFFCURVE",
"276 404 CURVE SMOOTH",
"308 404 OFFCURVE",
"325 384 OFFCURVE",
"334 362 CURVE",
"478 420 LINE",
"462 494 OFFCURVE",
"390 536 OFFCURVE",
"300 536 CURVE SMOOTH",
"192 536 OFFCURVE",
"93 472 OFFCURVE",
"70 372 CURVE SMOOTH",
"51 284 OFFCURVE",
"106 238 OFFCURVE",
"180 214 CURVE SMOOTH",
"223 200 OFFCURVE",
"283 190 OFFCURVE",
"276 158 CURVE SMOOTH",
"272 140 OFFCURVE",
"248 124 OFFCURVE",
"218 124 CURVE SMOOTH",
"172 124 OFFCURVE",
"152 160 OFFCURVE",
"142 186 CURVE",
"-6 126 LINE",
"13 38 OFFCURVE",
"94 -8 OFFCURVE",
"186 -8 CURVE SMOOTH"
);
}
);
};
layerId = "2D8F7115-C311-411E-929D-56333CF7FFB2";
paths = (
{
closed = 1;
nodes = (
"296 -8 OFFCURVE",
"399 58 OFFCURVE",
"422 154 CURVE SMOOTH",
"447 266 OFFCURVE",
"348 302 OFFCURVE",
"300 314 CURVE SMOOTH",
"267 324 OFFCURVE",
"212 335 OFFCURVE",
"218 362 CURVE SMOOTH",
"223 384 OFFCURVE",
"252 404 OFFCURVE",
"278 404 CURVE SMOOTH",
"305 404 OFFCURVE",
"323 387 OFFCURVE",
"332 366 CURVE",
"470 416 LINE",
"454 490 OFFCURVE",
"384 536 OFFCURVE",
"292 536 CURVE SMOOTH",
"189 536 OFFCURVE",
"95 476 OFFCURVE",
"72 382 CURVE SMOOTH",
"52 292 OFFCURVE",
"102 244 OFFCURVE",
"184 216 CURVE SMOOTH",
"224 203 OFFCURVE",
"279 192 OFFCURVE",
"274 166 CURVE SMOOTH",
"270 146 OFFCURVE",
"241 124 OFFCURVE",
"210 124 CURVE SMOOTH",
"168 124 OFFCURVE",
"149 157 OFFCURVE",
"138 182 CURVE",
"-4 130 LINE",
"15 40 OFFCURVE",
"97 -8 OFFCURVE",
"188 -8 CURVE SMOOTH"
);
}
);
width = 466;
}
);
leftKerningGroup = LAT_S_LC;
rightKerningGroup = LAT_S_LC;
unicode = 0073;
userData = {
com.typemytype.robofont.layerData = {
background = {
anchors = (
);
components = (
);
contours = (
{
points = (
{
segmentType = curve;
smooth = 1;
x = 213;
y = -12;
},
{
smooth = 0;
x = 318;
y = -12;
},
{
smooth = 0;
x = 376;
y = 50;
},
{
segmentType = curve;
smooth = 1;
x = 376;
y = 120;
},
{
smooth = 0;
x = 376;
y = 214;
},
{
smooth = 0;
x = 288;
y = 237;
},
{
segmentType = curve;
smooth = 1;
x = 208;
y = 266;
},
{
smooth = 0;
x = 147;
y = 288;
},
{
smooth = 0;
x = 85;
y = 310;
},
{
segmentType = curve;
smooth = 1;
x = 85;
y = 368;
},
{
smooth = 0;
x = 85;
y = 415;
},
{
smooth = 0;
x = 124;
y = 462;
},
{
segmentType = curve;
smooth = 1;
x = 208;
y = 462;
},
{
smooth = 0;
x = 253;
y = 462;
},
{
smooth = 0;
x = 284;
y = 448;
},
{
segmentType = curve;
smooth = 1;
x = 314;
y = 429;
},
{
smooth = 0;
x = 325;
y = 422;
},
{
smooth = 0;
x = 336;
y = 423;
},
{
segmentType = curve;
smooth = 1;
x = 343;
y = 434;
},
{
segmentType = line;
smooth = 1;
x = 346;
y = 439;
},
{
smooth = 0;
x = 347;
y = 441;
},
{
smooth = 0;
x = 347;
y = 443;
},
{
segmentType = curve;
smooth = 1;
x = 345;
y = 444;
},
{
smooth = 0;
x = 311;
y = 468;
},
{
smooth = 0;
x = 257;
y = 490;
},
{
segmentType = curve;
smooth = 1;
x = 211;
y = 490;
},
{
smooth = 0;
x = 108;
y = 490;
},
{
smooth = 0;
x = 54;
y = 432;
},
{
segmentType = curve;
smooth = 1;
x = 54;
y = 366;
},
{
smooth = 0;
x = 54;
y = 284;
},
{
smooth = 0;
x = 141;
y = 256;
},
{
segmentType = curve;
smooth = 1;
x = 218;
y = 230;
},
{
smooth = 0;
x = 277;
y = 210;
},
{
smooth = 0;
x = 344;
y = 182;
},
{
segmentType = curve;
smooth = 1;
x = 344;
y = 118;
},
{
smooth = 0;
x = 344;
y = 64;
},
{
smooth = 0;
x = 300;
y = 16;
},
{
segmentType = curve;
smooth = 1;
x = 215;
y = 16;
},
{
smooth = 0;
x = 148;
y = 16;
},
{
smooth = 0;
x = 105;
y = 37;
},
{
segmentType = curve;
smooth = 1;
x = 66;
y = 65;
},
{
smooth = 0;
x = 55;
y = 73;
},
{
smooth = 0;
x = 45;
y = 74;
},
{
segmentType = curve;
smooth = 1;
x = 37;
y = 63;
},
{
segmentType = line;
smooth = 1;
x = 33;
y = 57;
},
{
smooth = 0;
x = 32;
y = 55;
},
{
smooth = 0;
x = 32;
y = 53;
},
{
segmentType = curve;
smooth = 1;
x = 34;
y = 51;
},
{
smooth = 0;
x = 73;
y = 12;
},
{
smooth = 0;
x = 139;
y = -12;
}
);
}
);
lib = {
};
name = s;
unicodes = (
);
width = 439;
};
};
};
},
